<svg xmlns="http://www.w3.org/2000/svg" xmlns:xlink="http://www.w3.org/1999/xlink" width="800" zoomAndPan="magnify" viewBox="0 0 600 599.999999" height="800" preserveAspectRatio="xMidYMid meet" version="1.0"><defs><filter x="0%" y="0%" width="100%" height="100%" id="8697d94afd"><feColorMatrix values="0 0 0 0 1 0 0 0 0 1 0 0 0 0 1 0 0 0 1 0" color-interpolation-filters="sRGB"/></filter><mask id="17f6c669d9"><g filter="url(#8697d94afd)"><rect x="-60" width="720" fill="#000000" y="-60" height="719.999999" fill-opacity="0.15"/></g></mask><clipPath id="cb1031b087"><path d="M 0.359375 0.199219 L 458 0.199219 L 458 465.558594 L 0.359375 465.558594 Z M 0.359375 0.199219 " clip-rule="nonzero"/></clipPath><clipPath id="1a263fc66a"><rect x="0" width="459" y="0" height="466"/></clipPath></defs><path fill="#ffb27d" d="M 489.5 481.433594 C 489.480469 481.667969 489.480469 481.898438 489.464844 482.132812 C 488.320312 502.722656 483.375 545.1875 462.214844 562.238281 C 433.785156 585.148438 398.144531 600.007812 356.570312 597.882812 C 314.980469 595.753906 244.960938 580.488281 161.371094 562.238281 C 152.496094 560.308594 144.140625 558.109375 136.28125 555.71875 C 70.070312 535.523438 38.941406 499.878906 29.835938 464.21875 C 22.121094 434.003906 29.980469 408.933594 34.25 398.519531 C 35.625 395.179688 36.625 393.359375 36.625 393.359375 L 66.265625 398.414062 L 202.855469 421.683594 L 489.804688 470.574219 C 489.804688 470.574219 489.859375 474.773438 489.5 481.433594 Z M 489.5 481.433594 " fill-opacity="1" fill-rule="nonzero"/><path fill="#d97a4a" d="M 492.765625 470.574219 C 491.496094 475.253906 487.671875 494.773438 471.980469 502.828125 C 456.28125 510.898438 426.996094 516.828125 387.960938 518.953125 C 348.925781 521.078125 243.691406 505.378906 168.15625 482.46875 C 119.960938 467.84375 79.886719 443.023438 57.191406 426.984375 C 39.992188 414.828125 29.261719 395.199219 29.3125 374.128906 C 29.3125 369.003906 29.9375 363.949219 31.527344 359.410156 C 38.742188 338.609375 63.351562 325.875 63.351562 325.875 L 485.140625 408.628906 C 485.140625 408.628906 494.050781 465.914062 492.765625 470.574219 Z M 492.765625 470.574219 " fill-opacity="1" fill-rule="nonzero"/><path fill="#ffd966" d="M 519.496094 495.609375 C 519.496094 495.609375 507.871094 488.933594 489.460938 482.128906 C 489.390625 482.09375 489.335938 482.074219 489.265625 482.058594 C 466.195312 473.539062 432.535156 464.878906 397.710938 468.878906 C 391.246094 469.628906 384.855469 470.824219 378.570312 472.378906 C 378.550781 472.398438 378.53125 472.398438 378.515625 472.398438 C 370.550781 474.378906 362.785156 476.914062 355.265625 479.828125 C 355.214844 479.84375 355.15625 479.863281 355.105469 479.878906 C 342.890625 484.628906 331.375 490.324219 320.960938 496.058594 C 320.890625 496.09375 320.800781 496.128906 320.730469 496.179688 C 311.53125 501.234375 303.210938 506.304688 295.976562 510.769531 C 288.246094 515.539062 281.78125 519.628906 276.90625 522.234375 C 272.941406 524.378906 270.03125 525.539062 268.300781 525.324219 C 263.800781 524.769531 254.550781 514.523438 241.800781 500.894531 C 236.890625 495.644531 231.480469 489.894531 225.601562 484.003906 C 225.550781 483.949219 225.496094 483.894531 225.441406 483.859375 C 213.261719 471.683594 199.171875 458.929688 183.816406 448.878906 C 180.636719 446.789062 177.386719 444.824219 174.101562 443.003906 C 171.78125 441.71875 169.386719 440.484375 166.957031 439.324219 C 120.546875 417.09375 56.492188 416.878906 55.277344 412.449219 C 54.921875 411.144531 59.492188 405.648438 66.261719 398.414062 C 78.742188 385.039062 98.757812 365.664062 109.03125 355.859375 C 113.027344 352.019531 115.546875 349.644531 115.546875 349.644531 L 132.746094 339.480469 L 150.761719 328.855469 C 150.761719 328.855469 151.085938 328.925781 151.691406 329.050781 C 170.710938 332.925781 475.015625 395.210938 477.5 400.140625 C 477.910156 400.960938 479.390625 403.785156 481.609375 407.925781 C 482.964844 410.480469 484.605469 413.554688 486.410156 416.980469 C 488.140625 420.210938 490.035156 423.78125 492.015625 427.535156 C 505.371094 452.695312 523.054688 486.460938 523.320312 489.820312 C 523.746094 495.054688 519.496094 495.609375 519.496094 495.609375 Z M 519.496094 495.609375 " fill-opacity="1" fill-rule="nonzero"/><path fill="#a0d995" d="M 565.476562 420.648438 C 547.371094 429.148438 535.191406 412.738281 534.640625 405.378906 C 534.070312 398.023438 523.03125 394.628906 513.980469 396.898438 C 504.925781 399.148438 498.425781 392.648438 495.320312 388.683594 C 492.210938 384.71875 489.375 399.148438 490.230469 404.808594 C 491.070312 410.46875 504.085938 421.21875 492.765625 427.167969 L 492.015625 427.542969 C 490.710938 428.152344 489.425781 428.542969 488.15625 428.757812 C 478.730469 430.367188 470.480469 422.132812 465.601562 417.257812 C 459.960938 411.597656 451.746094 409.0625 444.386719 411.597656 C 437.03125 414.152344 437.03125 421.222656 431.65625 413.027344 C 426.28125 404.8125 409.316406 401.417969 412.136719 409.617188 C 414.976562 417.828125 414.121094 429.152344 407.046875 428.007812 C 399.972656 426.882812 389.226562 420.367188 384.996094 420.652344 C 380.746094 420.9375 367.441406 422.632812 361.226562 415.277344 C 354.992188 407.917969 339.726562 395.757812 334.066406 397.457031 C 328.40625 399.152344 324.726562 403.6875 325.296875 417.832031 C 325.867188 431.972656 303.796875 432.8125 286.546875 415.847656 C 269.28125 398.882812 258.527344 384.722656 251.191406 384.722656 C 243.851562 384.722656 234.78125 390.097656 235.617188 397.171875 C 236.476562 404.242188 231.652344 413.296875 217.246094 406.796875 C 210.207031 403.617188 206.675781 397.832031 203.746094 392.617188 C 200.65625 387.152344 198.261719 382.347656 193.191406 381.902344 C 183.300781 381.046875 184.421875 394.636719 164.332031 394.636719 C 144.242188 394.636719 148.78125 374.261719 143.117188 368.046875 C 137.457031 361.8125 116.527344 373.976562 110.582031 371.152344 C 105.511719 368.742188 111.207031 361.332031 109.03125 355.867188 C 108.671875 354.957031 108.082031 354.097656 107.1875 353.332031 C 100.972656 347.957031 74.097656 355.886719 59.957031 355.601562 C 45.8125 355.316406 42.972656 345.136719 48.0625 336.921875 C 48.207031 336.707031 48.332031 336.496094 48.457031 336.261719 C 53.492188 327.960938 59.691406 313.886719 49.492188 319.957031 C 39.011719 326.171875 18.363281 329.28125 13.828125 314.296875 C 9.3125 299.296875 24.863281 291.671875 38.457031 293.082031 C 52.027344 294.492188 39.296875 283.457031 31.671875 279.777344 C 24.582031 276.367188 18.367188 263.367188 30.242188 258.851562 C 42.136719 254.316406 68.722656 269.601562 72.121094 254.316406 C 73.976562 245.921875 81.996094 245.050781 88.832031 245.976562 C 94.460938 246.707031 99.28125 248.671875 99.28125 248.671875 C 99.28125 248.671875 126.621094 252.796875 167.566406 259.007812 C 188.105469 262.117188 212.050781 265.742188 237.710938 269.636719 C 325.191406 282.90625 432.375 299.207031 490.570312 308.207031 C 514.230469 311.867188 529.785156 314.3125 532.660156 314.867188 C 535.355469 315.386719 538.074219 316.347656 540.75 317.632812 C 554.019531 323.972656 565.945312 338.296875 566.890625 346.546875 C 568.015625 356.4375 564.339844 364.9375 558.125 362.671875 C 551.890625 360.402344 549.621094 364.082031 549.070312 370.578125 C 548.5 377.097656 562.644531 385.296875 570.570312 390.671875 C 578.480469 396.046875 583.570312 412.171875 565.480469 420.652344 Z M 565.476562 420.648438 " fill-opacity="1" fill-rule="nonzero"/><path fill="#d9435e" d="M 544.050781 300.273438 C 543.855469 306.253906 542.945312 312.359375 540.75 317.632812 C 539.179688 321.417969 536.925781 324.773438 533.785156 327.308594 C 516.25 341.453125 469.855469 353.328125 315.964844 339.757812 C 291.304688 337.578125 268.730469 334.492188 248.195312 330.808594 C 140.519531 311.453125 88.820312 275.6875 87.394531 269.027344 C 86.675781 265.703125 87.574219 256.058594 88.839844 245.972656 C 89.554688 240.261719 90.375 234.421875 91.125 229.511719 C 92.199219 222.421875 93.054688 217.261719 93.054688 217.261719 L 169.464844 226.867188 L 541.144531 273.5625 C 541.144531 273.5625 544.484375 286.546875 544.054688 300.277344 Z M 544.050781 300.273438 " fill-opacity="1" fill-rule="nonzero"/><path fill="#ffb27d" d="M 568.300781 284.308594 C 563.230469 291.292969 554.90625 296.523438 544.050781 300.273438 C 529.957031 305.183594 511.601562 307.59375 490.566406 308.199219 C 458.085938 309.148438 419.191406 305.773438 379.636719 300.488281 C 345.921875 295.984375 311.710938 290.09375 280.601562 284.308594 C 239.441406 276.648438 200.835938 268.398438 167.566406 259.003906 C 136.730469 250.308594 110.496094 240.609375 91.121094 229.503906 C 75.78125 220.734375 64.726562 211.058594 59.101562 200.289062 C 32.691406 149.789062 53.207031 103.554688 92.261719 68.273438 C 138.546875 26.453125 210.835938 0.00390625 261.925781 0.00390625 C 356.121094 0.00390625 491.910156 36.484375 541.980469 100.988281 C 550.195312 111.578125 557.246094 122.488281 563.175781 133.542969 L 563.175781 133.578125 C 573.339844 152.527344 580.121094 171.847656 583.675781 190.472656 C 590.675781 227.097656 585.210938 261.042969 568.300781 284.3125 Z M 568.300781 284.308594 " fill-opacity="1" fill-rule="nonzero"/><g mask="url(#17f6c669d9)"><g transform="matrix(1, 0, 0, 1, 129, 133)"><g clip-path="url(#1a263fc66a)"><g clip-path="url(#cb1031b087)"><path fill="#d97a4a" d="M 436.476562 287.648438 C 418.371094 296.148438 406.191406 279.738281 405.640625 272.378906 C 405.070312 265.023438 394.03125 261.628906 384.980469 263.898438 C 375.925781 266.148438 369.425781 259.648438 366.320312 255.683594 C 363.210938 251.71875 360.375 266.148438 361.230469 271.808594 C 362.070312 277.46875 375.085938 288.21875 363.765625 294.167969 L 363.015625 294.542969 C 376.371094 319.703125 394.050781 353.472656 394.316406 356.832031 C 394.746094 362.0625 390.492188 362.617188 390.492188 362.617188 C 390.492188 362.617188 378.871094 355.9375 360.457031 349.132812 C 359.316406 369.722656 354.367188 412.1875 333.207031 429.242188 C 304.78125 452.152344 269.136719 467.007812 227.5625 464.882812 C 185.976562 462.757812 115.957031 447.492188 32.363281 429.242188 C 23.488281 427.3125 15.132812 425.113281 7.277344 422.722656 C 5.007812 415.097656 5.707031 409.757812 9.867188 407.597656 C 41.707031 391.046875 138.4375 434.332031 128.257812 413.972656 C 122.457031 402.367188 100.667969 379.726562 80.882812 360.738281 C 65.921875 346.402344 52.097656 334.148438 47.222656 330.363281 C 38.527344 323.632812 34.832031 309.542969 37.957031 306.328125 C 38.90625 305.367188 40.457031 305.378906 42.691406 306.898438 C 44.976562 308.433594 49.28125 311.613281 54.816406 315.878906 C 66.03125 324.578125 82.226562 337.753906 96.441406 350.863281 C 96.496094 350.898438 96.550781 350.953125 96.601562 351.003906 C 102.960938 356.878906 108.925781 362.71875 113.851562 368.132812 C 115.320312 369.738281 116.675781 371.292969 117.941406 372.808594 C 133.511719 391.488281 142.265625 391.273438 147.90625 389.238281 C 149.445312 388.683594 150.746094 387.988281 151.886719 387.507812 C 153.816406 386.703125 159.886719 382.863281 167.800781 377.898438 C 174.871094 373.453125 183.425781 368.097656 191.730469 363.183594 C 191.800781 363.132812 191.890625 363.09375 191.960938 363.058594 C 200.121094 358.238281 208.035156 353.898438 214.121094 351.308594 C 217.726562 349.773438 221.886719 348.273438 226.105469 346.878906 C 226.15625 346.859375 226.210938 346.84375 226.265625 346.828125 C 235.640625 343.71875 245.246094 341.09375 249.515625 339.398438 C 249.535156 339.398438 249.554688 339.398438 249.570312 339.378906 C 253.515625 337.808594 252.785156 337.074219 242.835938 337.574219 C 217.375 338.863281 213.550781 346.484375 186.820312 359.21875 C 160.085938 371.953125 151.175781 357.953125 137.175781 338.863281 C 127.445312 325.578125 88.816406 308.003906 73.855469 288.683594 C 67.28125 280.21875 65.261719 271.394531 72.265625 262.464844 C 73.050781 261.464844 73.871094 260.503906 74.746094 259.609375 C 98.816406 234.414062 149.476562 251.46875 172.820312 263.753906 C 188.730469 272.125 212.886719 259.023438 218.890625 248.699219 C 221.996094 243.34375 220.195312 238.71875 209.746094 238.289062 C 192.730469 237.574219 155.605469 234.898438 119.210938 229.148438 C 106.121094 227.074219 93.121094 224.613281 81.191406 221.683594 C 66.726562 218.148438 53.832031 213.949219 44.242188 209.003906 C 36.296875 204.914062 28.976562 200.449219 22.691406 196.058594 C -2.273438 178.664062 -10.9375 162.429688 22.601562 174.644531 C 64.617188 189.914062 137.171875 214.113281 121.90625 201.378906 C 120.425781 200.144531 119.527344 198.949219 119.191406 197.808594 C 116.066406 187.269531 159.957031 181.503906 205.925781 186.09375 C 252.03125 190.699219 281.441406 177.578125 250.636719 167.488281 C 247.421875 166.433594 243.566406 165.414062 239.015625 164.449219 C 205.710938 157.453125 151.886719 149.824219 108.710938 136.628906 C 89.175781 130.648438 71.820312 123.523438 59.53125 114.808594 C 50.65625 108.503906 44.285156 101.234375 40.460938 93.859375 C 27.226562 68.449219 43.996094 41.699219 91.351562 48.609375 C 152.457031 57.519531 264.476562 68.988281 348.496094 65.164062 C 412.191406 62.269531 442.226562 38.875 434.175781 0.574219 C 444.339844 19.523438 451.121094 38.84375 454.675781 57.46875 C 461.675781 94.09375 456.210938 128.039062 439.300781 151.308594 C 434.230469 158.292969 425.90625 163.523438 415.050781 167.273438 C 414.855469 173.253906 413.941406 179.359375 411.746094 184.632812 C 425.015625 190.96875 436.941406 205.292969 437.886719 213.542969 C 439.011719 223.433594 435.335938 231.933594 429.121094 229.667969 C 422.886719 227.398438 420.621094 231.078125 420.066406 237.578125 C 419.496094 244.09375 433.640625 252.292969 441.570312 257.667969 C 449.476562 263.042969 454.566406 279.167969 436.476562 287.652344 Z M 436.476562 287.648438 " fill-opacity="1" fill-rule="nonzero"/></g></g></g></g></svg>