<svg xmlns="http://www.w3.org/2000/svg" xmlns:xlink="http://www.w3.org/1999/xlink" width="800" zoomAndPan="magnify" viewBox="0 0 600 599.999999" height="800" preserveAspectRatio="xMidYMid meet" version="1.0"><path fill="#ffebc1" d="M 548.796875 421.3125 L 548.796875 486.96875 C 286.800781 512.152344 32.957031 486.96875 32.957031 486.96875 L 32.957031 421.3125 L 167.386719 353.460938 L 258.25 307.609375 C 258.25 307.609375 281.789062 292.542969 307.5625 307.609375 L 487.339844 392.335938 Z M 548.796875 421.3125 " fill-opacity="1" fill-rule="nonzero"/><path fill="#a0d995" d="M 32.539062 336 L 31.375 336.652344 C 31.203125 336.503906 31.03125 336.378906 30.871094 336.21875 C 31.175781 336.023438 32.011719 336.183594 32.539062 336 Z M 264.613281 339.769531 L 265.117188 340.199219 L 266.34375 339.546875 C 265.730469 339.734375 264.894531 339.574219 264.585938 339.769531 Z M 589.5625 336.417969 C 587.328125 334.207031 587.695312 330.472656 585.363281 328.277344 C 585.179688 328.117188 584.980469 327.96875 584.773438 327.820312 L 584.5625 327.6875 L 584.109375 327.429688 L 583.828125 327.292969 L 583.347656 327.097656 L 583.015625 326.960938 L 582.539062 326.816406 C 582.226562 326.714844 581.910156 326.628906 581.59375 326.558594 L 581.394531 326.558594 L 580.683594 326.410156 L 580.523438 326.410156 C 577.847656 325.917969 574.703125 325.769531 572.0625 325.390625 L 570.933594 325.207031 L 570.589844 325.132812 C 570.160156 325.046875 569.753906 324.960938 569.363281 324.851562 C 564.523438 323.4375 559.074219 321.265625 553.632812 322.394531 C 549.164062 323.304688 545.136719 327.035156 540.617188 328.621094 C 534 330.929688 526.59375 331.863281 519.902344 334.625 C 510.386719 338.554688 500.429688 345.332031 490.347656 347.015625 C 485.164062 347.886719 477.957031 349.324219 472.875 348.09375 C 462.988281 345.699219 456.914062 341.882812 445.933594 342.347656 C 429.382812 343.046875 415.386719 347.417969 399.59375 352.453125 C 382.648438 357.867188 364.230469 355.042969 347.003906 352.945312 C 347.003906 352.859375 347.003906 352.773438 347.066406 352.675781 C 348.292969 348.535156 361.726562 354.40625 365.175781 341.929688 C 366.160156 338.394531 358.003906 335.140625 355.820312 332.992188 C 353.632812 330.84375 353.964844 327.046875 351.621094 324.851562 C 351.4375 324.691406 351.238281 324.542969 351.03125 324.394531 L 350.835938 324.273438 C 350.6875 324.175781 350.527344 324.089844 350.367188 324.003906 L 350.085938 323.867188 C 349.9375 323.792969 349.765625 323.734375 349.605469 323.671875 L 349.289062 323.550781 L 348.773438 323.375 C 348.5 323.289062 348.21875 323.21875 347.9375 323.15625 L 347.640625 323.082031 L 346.980469 322.945312 L 346.757812 322.945312 L 346.019531 322.824219 C 343.566406 322.445312 340.800781 322.285156 338.433594 321.953125 L 337.203125 321.757812 L 336.835938 321.683594 C 336.417969 321.597656 336.015625 321.511719 335.609375 321.398438 C 330.769531 319.988281 325.320312 317.816406 319.878906 318.945312 C 315.398438 319.851562 311.382812 323.585938 306.863281 325.167969 C 300.257812 327.476562 292.839844 328.410156 286.148438 331.175781 C 279.457031 333.9375 272.640625 338.0625 265.617188 340.886719 L 265.066406 340.433594 L 264.871094 340.542969 C 264.796875 340.800781 264.722656 341.046875 264.636719 341.292969 C 262.035156 342.324219 259.359375 343.085938 256.605469 343.574219 C 251.425781 344.449219 244.214844 345.882812 239.132812 344.65625 C 229.308594 342.199219 223.171875 338.441406 212.191406 338.910156 C 195.652344 339.609375 181.644531 343.980469 165.851562 349.027344 C 148.808594 354.46875 130.242188 351.582031 112.96875 349.46875 C 93.46875 347.101562 76.78125 340.875 56.839844 341.917969 C 47.519531 342.382812 38.558594 343.257812 31.363281 336.894531 L 31.164062 337.007812 C 31.085938 337.34375 30.984375 337.675781 30.859375 338 C 30.859375 338.113281 30.773438 338.210938 30.734375 338.320312 C 30.699219 338.429688 30.574219 338.726562 30.476562 338.910156 L 30.292969 339.242188 C 30.207031 339.402344 30.121094 339.5625 30.023438 339.707031 L 29.789062 340.027344 L 29.496094 340.421875 L 29.226562 340.714844 L 28.894531 341.058594 L 28.597656 341.316406 L 28.230469 341.609375 L 27.910156 341.832031 L 27.519531 342.089844 L 27.164062 342.285156 C 27.027344 342.363281 26.886719 342.433594 26.746094 342.496094 L 26.375 342.667969 L 25.933594 342.851562 L 25.542969 343 L 25.074219 343.144531 L 24.644531 342.972656 L 24.167969 343.097656 L 23.738281 343.195312 L 23.234375 343.292969 L 22.792969 343.378906 L 22.277344 343.464844 L 21.832031 343.527344 L 21.304688 343.527344 L 20.445312 343.625 C 16.34375 344.019531 11.910156 343.882812 8.683594 345.011719 L 8.585938 345.011719 L 7.96875 345.246094 L 7.824219 345.429688 C 7.644531 345.507812 7.472656 345.59375 7.308594 345.6875 L 7.085938 345.824219 L 6.65625 346.082031 L 6.398438 346.289062 L 6.066406 346.546875 L 5.761719 346.867188 L 5.539062 347.085938 C 5.375 347.285156 5.222656 347.496094 5.085938 347.714844 C 0.0625 355.558594 10.878906 353.546875 13.902344 355.707031 C 20.507812 360.460938 14.675781 362.867188 12.515625 366.832031 C 12.355469 367.125 12.21875 367.410156 12.082031 367.691406 C 11.300781 369.28125 10.875 370.960938 10.800781 372.730469 C 10.722656 374.5 11.007812 376.207031 11.652344 377.859375 C 11.726562 378.054688 11.8125 378.226562 11.898438 378.410156 L 12.195312 379.023438 C 12.355469 379.320312 12.527344 379.601562 12.710938 379.882812 C 12.894531 380.167969 12.894531 380.179688 12.992188 380.328125 C 13.230469 380.667969 13.488281 380.988281 13.765625 381.296875 C 13.863281 381.417969 13.976562 381.53125 14.074219 381.640625 C 14.171875 381.75 14.625 382.191406 14.921875 382.464844 L 15.191406 382.683594 C 15.523438 382.957031 15.871094 383.210938 16.234375 383.445312 L 16.554688 383.652344 C 16.949219 383.902344 17.359375 384.128906 17.78125 384.328125 L 18.089844 384.464844 C 18.546875 384.671875 19.015625 384.847656 19.5 384.992188 L 19.574219 384.992188 C 20.085938 385.144531 20.605469 385.261719 21.132812 385.347656 L 21.453125 385.410156 C 21.980469 385.484375 22.535156 385.53125 23.085938 385.558594 L 23.417969 385.558594 C 24.019531 385.59375 24.621094 385.59375 25.222656 385.558594 C 30.28125 385.054688 35.105469 380.757812 37.367188 387.523438 C 38.976562 392.347656 30.894531 398.929688 35.808594 404.171875 C 40.523438 409.195312 48.011719 402.34375 53.539062 404.640625 L 54.300781 404.996094 C 54.53125 405.128906 54.765625 405.265625 54.972656 405.414062 C 56.550781 406.515625 57.78125 407.921875 58.65625 409.636719 C 59.246094 410.65625 59.773438 411.722656 60.351562 412.792969 C 60.574219 413.195312 60.792969 413.589844 61.027344 414.019531 L 61.101562 414.128906 C 61.375 414.59375 61.667969 415.046875 61.984375 415.480469 C 64.96875 419.558594 69.105469 423.964844 74.65625 422.996094 C 79.113281 422.222656 83.425781 416.941406 88.484375 416.21875 C 89.085938 416.132812 89.710938 416.082031 90.214844 416.046875 L 90.621094 416.046875 C 91.160156 416.046875 91.675781 416.046875 92.167969 416.046875 L 92.351562 416.046875 C 92.792969 416.046875 93.210938 416.105469 93.578125 416.167969 L 93.933594 416.167969 C 94.363281 416.242188 94.78125 416.328125 95.164062 416.4375 L 95.394531 416.511719 C 95.738281 416.609375 96.070312 416.722656 96.390625 416.84375 L 96.660156 416.953125 C 97.03125 417.113281 97.375 417.273438 97.703125 417.457031 L 97.9375 417.605469 C 98.21875 417.765625 98.476562 417.925781 98.75 418.109375 L 98.96875 418.269531 C 99.265625 418.476562 99.546875 418.710938 99.828125 418.945312 L 100.0625 419.164062 C 100.300781 419.363281 100.523438 419.578125 100.738281 419.804688 L 100.921875 419.976562 C 101.179688 420.246094 101.425781 420.515625 101.671875 420.796875 L 101.917969 421.09375 L 102.480469 421.792969 L 102.714844 422.085938 L 103.316406 422.886719 L 103.636719 423.328125 L 103.980469 423.832031 C 104.863281 425.058594 105.734375 426.382812 106.691406 427.675781 C 108.152344 429.667969 109.863281 431.414062 111.824219 432.917969 C 112.097656 433.125 112.339844 433.296875 112.597656 433.46875 C 112.855469 433.652344 113.113281 433.800781 113.359375 433.949219 L 113.496094 434.035156 L 114.207031 434.390625 L 114.34375 434.453125 L 115.019531 434.710938 L 115.140625 434.710938 C 115.355469 434.773438 115.570312 434.828125 115.792969 434.871094 L 115.890625 434.871094 C 116.097656 434.90625 116.304688 434.929688 116.515625 434.929688 L 116.613281 434.929688 C 116.824219 434.941406 117.03125 434.941406 117.242188 434.929688 L 117.3125 434.929688 L 117.941406 434.84375 C 119.699219 434.355469 121.402344 433.71875 123.046875 432.929688 C 123.304688 432.820312 123.578125 432.71875 123.859375 432.621094 L 124.105469 432.609375 L 125.125 432.265625 C 131.71875 430.242188 134.308594 433.066406 140.140625 435.457031 C 145.382812 437.632812 151.488281 439.339844 156.359375 437.066406 L 157.429688 436.539062 L 157.761719 436.355469 L 158.398438 436.011719 L 158.753906 435.816406 L 159.296875 435.496094 L 159.628906 435.285156 L 160.144531 434.980469 C 160.183594 434.945312 160.230469 434.914062 160.277344 434.894531 C 161.679688 433.855469 163.199219 433.039062 164.835938 432.441406 C 166.476562 431.84375 168.164062 431.492188 169.90625 431.382812 C 171.078125 431.28125 172.25 431.300781 173.417969 431.445312 C 179.152344 432.09375 184.613281 435.285156 190.140625 437.066406 L 191.085938 437.363281 L 191.148438 437.363281 L 192.105469 437.621094 C 193.082031 437.855469 194.066406 438.03125 195.0625 438.148438 L 195.320312 438.148438 L 196.070312 438.210938 L 198.378906 438.210938 L 198.980469 438.136719 L 199.363281 438.074219 L 199.988281 437.953125 L 200.34375 437.867188 L 201.019531 437.679688 L 201.339844 437.59375 L 202.320312 437.226562 C 206.101562 435.703125 208.988281 430.742188 212.339844 428.398438 C 213.0625 427.898438 213.808594 427.4375 214.574219 427.011719 L 215.140625 426.703125 C 215.777344 426.359375 216.441406 426.039062 217.117188 425.734375 L 217.558594 425.539062 C 221.246094 423.96875 225.089844 423.085938 229.089844 422.886719 C 232.097656 422.832031 234.964844 423.453125 237.683594 424.738281 C 239.429688 425.488281 241.109375 426.335938 242.804688 427.085938 L 243.011719 427.171875 L 243.628906 427.441406 L 244.058594 427.613281 L 244.671875 427.859375 L 245.480469 428.140625 L 245.910156 428.277344 L 246.550781 428.472656 L 246.957031 428.582031 L 247.949219 428.804688 L 248.230469 428.804688 C 248.503906 428.851562 248.773438 428.890625 249.042969 428.914062 L 249.410156 428.914062 C 249.71875 428.914062 250.035156 428.914062 250.34375 428.914062 L 250.515625 428.914062 C 250.882812 428.914062 251.265625 428.914062 251.644531 428.851562 L 251.976562 428.851562 L 252.898438 428.707031 L 253.191406 428.707031 C 253.585938 428.605469 253.992188 428.507812 254.421875 428.375 L 254.679688 428.289062 C 255.023438 428.175781 255.367188 428.042969 255.722656 427.894531 L 256.066406 427.746094 C 256.507812 427.550781 256.9375 427.34375 257.390625 427.097656 C 260.953125 425.167969 263.53125 417.972656 272.054688 414.988281 C 277.148438 413.183594 283.335938 416.21875 288.382812 416.4375 C 290.546875 416.535156 292.449219 416.597656 294.242188 416.535156 C 294.414062 416.84375 294.585938 417.152344 294.769531 417.457031 L 294.769531 417.570312 C 295.050781 418.023438 295.335938 418.476562 295.664062 418.917969 C 298.648438 422.996094 302.789062 427.402344 308.324219 426.433594 C 312.792969 425.660156 317.105469 420.378906 322.164062 419.65625 C 322.765625 419.570312 323.328125 419.519531 323.894531 419.484375 L 324.300781 419.484375 C 324.839844 419.484375 325.355469 419.484375 325.847656 419.484375 L 326.03125 419.484375 C 326.441406 419.5 326.851562 419.542969 327.257812 419.605469 L 327.617188 419.605469 C 328.046875 419.679688 328.460938 419.765625 328.84375 419.875 L 329.078125 419.949219 C 329.421875 420.046875 329.738281 420.160156 330.058594 420.28125 L 330.351562 420.394531 C 330.703125 420.542969 331.042969 420.710938 331.371094 420.894531 L 331.628906 421.042969 C 331.902344 421.203125 332.160156 421.363281 332.417969 421.546875 L 332.648438 421.707031 C 332.945312 421.914062 333.226562 422.148438 333.507812 422.382812 L 333.753906 422.601562 C 333.976562 422.800781 334.195312 423.007812 334.40625 423.230469 L 334.601562 423.425781 C 334.855469 423.679688 335.101562 423.949219 335.339844 424.234375 L 335.597656 424.53125 L 336.160156 425.21875 C 336.234375 425.328125 336.320312 425.425781 336.394531 425.523438 L 336.996094 426.335938 L 337.304688 426.765625 C 337.4375 426.9375 337.5625 427.121094 337.695312 427.304688 C 338.542969 428.535156 339.390625 429.761719 340.324219 430.988281 L 340.410156 431.125 C 341.828125 433.117188 343.492188 434.871094 345.40625 436.390625 L 346.167969 436.933594 C 346.4375 437.117188 346.710938 437.277344 346.96875 437.421875 L 347.066406 437.484375 C 347.324219 437.632812 347.582031 437.753906 347.828125 437.867188 L 347.914062 437.867188 C 348.144531 437.96875 348.382812 438.058594 348.625 438.136719 L 348.699219 438.136719 C 348.921875 438.207031 349.152344 438.265625 349.386719 438.308594 L 349.445312 438.308594 C 349.671875 438.351562 349.894531 438.375 350.121094 438.382812 L 350.859375 438.382812 C 352.675781 438.246094 354.371094 437.289062 356.65625 436.367188 L 357.429688 436.085938 L 357.625 436.011719 L 358.644531 435.667969 C 365.238281 433.640625 367.828125 436.464844 373.660156 438.859375 C 378.90625 441.019531 385.007812 442.738281 389.882812 440.457031 C 390.25 440.296875 390.59375 440.125 390.925781 439.953125 L 391.367188 439.71875 L 391.894531 439.425781 L 392.289062 439.203125 L 392.839844 438.871094 L 393.0625 438.75 C 396.144531 436.859375 397.972656 435.261719 403.449219 434.769531 C 404.621094 434.667969 405.792969 434.6875 406.960938 434.832031 C 412.328125 435.445312 417.472656 438.28125 422.640625 440.101562 L 422.765625 440.101562 L 423.585938 440.382812 L 423.769531 440.382812 L 424.546875 440.617188 L 424.765625 440.617188 L 425.539062 440.824219 L 425.734375 440.824219 L 426.667969 441.035156 L 427.664062 441.207031 L 427.785156 441.207031 L 428.609375 441.304688 L 432.058594 441.304688 L 432.636719 441.242188 L 433.042969 441.179688 L 433.632812 441.058594 L 434.011719 440.972656 C 434.234375 440.972656 434.453125 440.847656 434.675781 440.789062 L 435.007812 440.691406 C 435.324219 440.589844 435.65625 440.46875 435.988281 440.332031 C 439.769531 438.8125 442.65625 433.851562 446.007812 431.503906 C 446.71875 431 447.480469 430.546875 448.253906 430.105469 L 448.796875 429.8125 C 449.445312 429.464844 450.109375 429.136719 450.796875 428.828125 L 451.226562 428.644531 C 454.914062 427.074219 458.753906 426.1875 462.757812 425.992188 C 465.765625 425.941406 468.628906 426.554688 471.351562 427.832031 C 473.070312 428.570312 474.730469 429.40625 476.398438 430.140625 L 476.730469 430.289062 L 477.28125 430.523438 L 477.824219 430.757812 L 478.265625 430.929688 L 479.199219 431.257812 L 479.566406 431.382812 L 480.277344 431.578125 L 480.636719 431.675781 C 480.964844 431.761719 481.308594 431.847656 481.652344 431.910156 L 481.886719 431.910156 C 482.167969 431.910156 482.464844 431.996094 482.746094 432.019531 L 483.089844 432.019531 C 483.410156 432.019531 483.742188 432.019531 484.0625 432.019531 L 484.207031 432.019531 C 484.578125 432.019531 484.957031 432.019531 485.339844 431.960938 L 485.65625 431.960938 C 485.964844 431.960938 486.285156 431.875 486.589844 431.8125 L 486.886719 431.75 C 487.300781 431.667969 487.710938 431.558594 488.113281 431.429688 L 488.371094 431.34375 C 488.714844 431.234375 489.058594 431.101562 489.402344 430.953125 L 489.769531 430.804688 C 490.199219 430.609375 490.628906 430.398438 491.085938 430.15625 C 494.644531 428.226562 497.222656 421.03125 505.746094 418.046875 C 510.839844 416.242188 517.03125 419.273438 522.078125 419.496094 C 529.296875 419.839844 533.65625 419.679688 540.296875 416.304688 C 540.644531 416.128906 540.976562 415.933594 541.292969 415.714844 L 541.5 415.578125 C 541.785156 415.378906 542.050781 415.15625 542.300781 414.917969 C 542.539062 414.6875 542.761719 414.441406 542.960938 414.179688 C 542.960938 414.179688 542.960938 414.179688 543.023438 414.117188 C 545.285156 411.257812 545.0625 407.464844 547.835938 404.996094 L 548.035156 404.835938 L 548.328125 404.601562 L 548.539062 404.441406 C 548.695312 404.332031 548.867188 404.234375 549.039062 404.136719 L 549.324219 403.976562 L 549.667969 403.804688 L 549.972656 403.667969 C 550.183594 403.570312 550.394531 403.484375 550.613281 403.410156 L 550.933594 403.300781 L 551.421875 403.152344 L 551.804688 403.054688 L 552.40625 402.917969 L 552.785156 402.847656 L 553.644531 402.710938 L 554.050781 402.710938 L 554.824219 402.625 L 556.789062 402.625 C 557.132812 402.625 557.476562 402.625 557.84375 402.625 L 559.785156 402.625 C 565.863281 402.90625 559.5625 388.613281 565.925781 384.871094 C 571.375 381.664062 576.054688 385.042969 581.101562 379.957031 C 581.335938 379.710938 581.554688 379.480469 581.75 379.234375 C 581.855469 379.121094 581.949219 379.003906 582.035156 378.878906 L 582.316406 378.507812 C 582.402344 378.398438 582.464844 378.289062 582.539062 378.179688 C 582.613281 378.066406 582.710938 377.90625 582.785156 377.773438 C 582.839844 377.683594 582.890625 377.589844 582.929688 377.488281 C 583.015625 377.34375 583.089844 377.183594 583.164062 377.035156 L 583.25 376.800781 C 583.324219 376.628906 583.386719 376.457031 583.445312 376.285156 C 583.449219 376.230469 583.449219 376.171875 583.445312 376.113281 C 583.507812 375.917969 583.558594 375.722656 583.605469 375.527344 C 583.65625 375.328125 583.605469 375.453125 583.605469 375.414062 C 583.652344 375.203125 583.691406 374.992188 583.714844 374.777344 L 583.714844 374.691406 C 583.730469 374.46875 583.730469 374.25 583.714844 374.027344 C 583.816406 370.171875 581.40625 366.230469 580.5 361.96875 C 580.28125 360.976562 580.164062 359.96875 580.15625 358.949219 L 580.15625 358.863281 C 580.15625 358.371094 580.191406 357.878906 580.265625 357.390625 C 580.265625 357.390625 580.265625 357.316406 580.265625 357.277344 C 580.339844 356.761719 580.457031 356.253906 580.609375 355.757812 C 581.839844 351.617188 595.269531 357.488281 598.722656 345.011719 C 599.875 341.808594 591.722656 338.566406 589.535156 336.417969 Z M 589.5625 336.417969 " fill-opacity="1" fill-rule="nonzero"/><path fill="#ffd966" d="M 323.023438 425.15625 L 291.476562 393.230469 L 121.84375 425.15625 L 35.992188 338.269531 L 35.144531 331.53125 L 248.636719 291.402344 L 280.195312 323.328125 L 449.828125 291.402344 L 490.347656 332.4375 L 535.632812 378.277344 L 536.480469 385.03125 Z M 323.023438 425.15625 " fill-opacity="1" fill-rule="nonzero"/><path fill="#ffebc1" d="M 557.402344 357.941406 C 552.664062 365.234375 539.058594 367.65625 531.617188 371.449219 C 520.371094 377.183594 517.03125 376.128906 505.058594 373.671875 C 485.523438 369.707031 475.503906 390.863281 454.148438 382.046875 C 445.199219 378.363281 439.179688 371.65625 429.800781 368.90625 C 419.621094 365.921875 410.804688 365.75 400.183594 366.378906 C 377.773438 367.714844 367.179688 387.25 345.691406 386.808594 C 336.761719 386.625 329.617188 381.960938 321.367188 381.171875 C 311.886719 380.277344 303.460938 384.613281 294.78125 386.773438 C 284.199219 389.378906 273.488281 390.136719 262.648438 389.042969 C 253.21875 388.027344 250.566406 383.582031 242.511719 379.222656 C 231.851562 373.488281 191.738281 370.492188 185.007812 383.222656 C 182.167969 383.777344 179.375 384.496094 176.621094 385.386719 C 155.109375 392.828125 140.78125 387.238281 123.21875 376.484375 C 103.121094 364.203125 92.523438 378.9375 73.417969 382.292969 C 49.988281 386.390625 50.320312 365.996094 34.675781 357.894531 C 26.339844 353.570312 20.101562 351.925781 19.195312 340.824219 C 16.984375 313.8125 49.890625 316.980469 66.726562 315.875 C 76.460938 315.234375 84.960938 318.6875 94.449219 319.558594 C 114.550781 321.351562 136.921875 318.144531 156.421875 322.921875 C 172.285156 326.816406 173.734375 341.660156 188.765625 326.066406 C 198.183594 316.242188 198.28125 317.359375 212.09375 319.289062 C 218.34375 320.160156 223.417969 321.03125 229.507812 319.839844 C 237.070312 318.367188 242.621094 315.335938 250.566406 315.078125 C 260.804688 314.746094 269.144531 319.496094 278.253906 320.515625 C 288.078125 321.621094 298.109375 319.707031 308.179688 320.710938 C 328.695312 322.773438 346.894531 314.070312 365.667969 319.558594 C 391.710938 327.160156 409.933594 313.726562 435.152344 310.570312 C 447.285156 309.058594 456.238281 313.171875 467.496094 315.382812 C 476.964844 317.238281 489.832031 321.71875 496.511719 315.050781 C 513.503906 298.105469 536.34375 304.457031 549.113281 308.582031 C 558.9375 311.738281 562.488281 323.070312 564.5 329.109375 C 566.90625 336.515625 562.460938 350.207031 557.402344 357.941406 Z M 557.402344 357.941406 " fill-opacity="1" fill-rule="nonzero"/><path fill="#d9435e" d="M 550.183594 324.851562 C 549.886719 330.78125 547.125 337.609375 539.550781 342.875 C 533.042969 347.40625 519.902344 353.019531 509.882812 356.382812 C 499.730469 359.832031 484.527344 361.773438 471.105469 361.613281 C 442.140625 361.292969 405.90625 358.222656 386.726562 348.964844 C 382.878906 347.15625 379.289062 344.929688 375.957031 342.285156 C 375.6875 342.484375 375.429688 342.691406 375.148438 342.875 C 368.640625 347.40625 355.4375 353.019531 345.480469 356.382812 C 335.328125 359.832031 320.125 361.773438 306.714844 361.613281 C 277.738281 361.292969 241.503906 358.222656 222.324219 348.964844 C 218.78125 347.285156 215.449219 345.261719 212.328125 342.886719 C 205.808594 347.417969 192.683594 353.019531 182.675781 356.394531 C 172.519531 359.84375 157.320312 361.785156 143.898438 361.625 C 114.933594 361.304688 78.695312 358.238281 59.515625 348.976562 C 49.890625 344.324219 43.296875 338.503906 40.730469 332.292969 C 37.046875 323.402344 39.246094 310.878906 39.246094 310.878906 C 39.402344 309.726562 39.683594 308.609375 40.09375 307.523438 C 41.933594 302.722656 48.085938 297.371094 52.800781 292.886719 C 60.832031 285.261719 77.9375 281.949219 97.003906 279.945312 C 109.46875 278.621094 118.949219 276.816406 132.195312 277.132812 C 144.476562 277.429688 156.617188 278.363281 168.714844 279.308594 C 187.304688 280.671875 203.09375 287.964844 213.898438 294.535156 L 215.632812 292.886719 C 223.660156 285.261719 240.765625 281.949219 259.835938 279.945312 C 272.296875 278.621094 281.777344 276.816406 295.027344 277.132812 C 307.304688 277.429688 319.460938 278.363281 331.542969 279.308594 C 350.6875 280.707031 366.820312 288.40625 377.699219 295.109375 L 380.058594 292.886719 C 388.078125 285.261719 405.195312 281.949219 424.261719 279.945312 C 436.726562 278.621094 446.203125 276.816406 459.453125 277.132812 C 471.734375 277.429688 483.875 278.363281 495.972656 279.308594 C 517.753906 280.902344 535.65625 290.652344 546.316406 297.824219 C 547.207031 298.421875 547.964844 299.160156 548.589844 300.035156 C 549.210938 300.910156 549.664062 301.867188 549.9375 302.90625 C 550.191406 303.835938 550.347656 304.785156 550.417969 305.746094 C 550.992188 312.121094 550.917969 318.488281 550.183594 324.851562 Z M 550.183594 324.851562 " fill-opacity="1" fill-rule="nonzero"/><path fill="#ffebc1" d="M 371.476562 281.050781 C 331.507812 281.050781 297.273438 288.222656 282.90625 298.425781 C 270.25 287.253906 234.332031 279.183594 191.96875 279.183594 C 139.046875 279.183594 96.195312 291.757812 96.195312 307.277344 L 96.195312 316.894531 C 96.195312 332.414062 139.097656 345 191.96875 345 C 231.925781 345 266.171875 337.816406 280.539062 327.625 C 293.199219 338.800781 329.113281 346.867188 371.476562 346.867188 C 424.398438 346.867188 467.25 334.28125 467.25 318.761719 L 467.25 309.144531 C 467.300781 293.636719 424.398438 281.050781 371.476562 281.050781 Z M 191.96875 288.417969 C 234.210938 288.417969 268.457031 294.9375 268.457031 307.328125 C 268.457031 319.71875 234.210938 325.230469 191.96875 325.230469 C 149.730469 325.230469 115.507812 319.644531 115.507812 307.277344 C 115.507812 294.914062 149.71875 288.371094 191.96875 288.371094 Z M 371.476562 290.285156 C 413.726562 290.285156 447.972656 296.804688 447.972656 309.195312 C 447.972656 321.585938 413.726562 327.011719 371.476562 327.011719 C 329.222656 327.011719 294.976562 321.484375 294.976562 309.097656 C 294.976562 296.707031 329.234375 290.234375 371.476562 290.234375 Z M 371.476562 290.285156 " fill-opacity="1" fill-rule="nonzero"/><path fill="#a0d995" d="M 36.113281 220.039062 L 34.949219 220.6875 C 34.777344 220.539062 34.617188 220.417969 34.445312 220.257812 C 34.75 220.0625 35.585938 220.183594 36.113281 220.039062 Z M 581.507812 227.550781 C 579.273438 225.355469 579.652344 221.621094 577.308594 219.421875 C 577.125 219.253906 576.925781 219.101562 576.71875 218.96875 L 576.519531 218.835938 L 576.042969 218.5625 L 575.773438 218.441406 L 575.28125 218.234375 L 574.972656 218.109375 L 574.421875 217.9375 C 574.164062 217.851562 573.894531 217.789062 573.625 217.71875 L 573.339844 217.644531 L 572.605469 217.496094 L 572.492188 217.496094 C 569.839844 217.003906 566.734375 216.855469 564.09375 216.488281 L 562.867188 216.28125 L 562.523438 216.28125 C 562.105469 216.195312 561.6875 216.097656 561.296875 215.984375 C 556.457031 214.574219 551.003906 212.414062 545.566406 213.53125 C 541.097656 214.425781 537.070312 218.160156 532.550781 219.742188 C 525.945312 222.0625 518.527344 222.984375 511.835938 225.757812 C 502.320312 229.6875 492.363281 236.464844 482.28125 238.148438 C 477.097656 239.019531 469.890625 240.445312 464.808594 239.21875 C 454.984375 236.761719 448.84375 233.078125 437.867188 233.484375 C 421.328125 234.183594 407.316406 238.554688 391.527344 243.589844 C 378.546875 247.738281 364.710938 247.050781 351.191406 245.554688 C 350.898438 244.683594 350.660156 243.796875 350.464844 242.902344 C 350.351562 242.402344 350.273438 241.898438 350.21875 241.390625 C 350.15625 240.890625 350.125 240.386719 350.132812 239.878906 L 350.132812 239.808594 C 350.136719 239.308594 350.171875 238.8125 350.246094 238.320312 C 350.246094 238.320312 350.246094 238.320312 350.246094 238.234375 C 350.320312 237.710938 350.4375 237.195312 350.589844 236.6875 C 351.816406 232.550781 365.25 238.429688 368.699219 225.945312 C 369.683594 222.40625 361.53125 219.152344 359.34375 217.003906 C 357.160156 214.855469 357.488281 211.0625 355.144531 208.863281 C 354.957031 208.699219 354.761719 208.546875 354.554688 208.410156 L 354.359375 208.285156 C 354.203125 208.1875 354.046875 208.097656 353.878906 208.015625 L 353.621094 207.894531 C 353.453125 207.808594 353.28125 207.738281 353.105469 207.671875 L 352.824219 207.5625 L 352.199219 207.351562 L 351.683594 207.21875 L 351.140625 207.082031 L 350.613281 206.972656 L 350.21875 206.898438 L 349.632812 206.800781 L 349.507812 206.800781 C 347.050781 206.421875 344.363281 206.261719 342.019531 205.941406 L 340.703125 205.734375 L 340.386719 205.660156 C 339.957031 205.574219 339.550781 205.488281 339.15625 205.375 C 334.320312 203.964844 328.867188 201.792969 323.429688 202.921875 C 318.957031 203.828125 314.929688 207.5625 310.414062 209.144531 C 303.804688 211.453125 296.390625 212.386719 289.699219 215.152344 C 280.195312 219.078125 270.222656 225.859375 260.15625 227.550781 C 254.960938 228.410156 247.753906 229.847656 242.667969 228.621094 C 232.847656 226.226562 226.707031 222.40625 215.730469 222.886719 C 199.191406 223.574219 185.179688 227.945312 169.390625 232.992188 C 152.347656 238.429688 133.78125 235.546875 116.503906 233.433594 C 97.003906 231.0625 80.316406 224.839844 60.375 225.882812 C 51.058594 226.347656 42.09375 227.222656 34.898438 220.859375 L 34.703125 220.972656 C 34.621094 221.308594 34.523438 221.640625 34.40625 221.964844 C 34.40625 222.074219 34.320312 222.175781 34.273438 222.273438 C 34.199219 222.476562 34.113281 222.679688 34.015625 222.875 C 34.015625 222.984375 33.902344 223.082031 33.84375 223.191406 C 33.78125 223.304688 33.65625 223.523438 33.558594 223.671875 L 33.339844 223.980469 C 33.242188 224.125 33.128906 224.261719 33.019531 224.398438 L 32.773438 224.667969 L 32.429688 225.023438 L 32.148438 225.269531 L 31.765625 225.574219 L 31.460938 225.796875 L 31.042969 226.054688 L 30.710938 226.238281 L 30.269531 226.472656 L 29.925781 226.632812 L 29.457031 226.816406 L 29.078125 226.949219 L 28.597656 227.109375 L 28.207031 227.234375 L 27.703125 227.355469 L 27.296875 227.453125 L 26.757812 227.566406 L 26.351562 227.636719 L 25.875 227.550781 L 25.492188 227.550781 L 24.804688 227.636719 L 24.511719 227.636719 C 20.605469 228.054688 16.355469 227.921875 13.089844 228.867188 L 12.367188 229.148438 L 12.195312 229.148438 C 12.011719 229.222656 11.8125 229.285156 11.640625 229.371094 L 11.394531 229.480469 L 10.941406 229.699219 L 10.660156 229.871094 C 10.535156 229.945312 10.417969 230.019531 10.304688 230.105469 L 9.984375 230.351562 C 9.882812 230.417969 9.789062 230.492188 9.703125 230.574219 C 9.582031 230.683594 9.464844 230.804688 9.359375 230.929688 C 9.359375 230.929688 9.234375 231.039062 9.175781 231.113281 C 9.003906 231.3125 8.847656 231.519531 8.707031 231.738281 C 3.683594 239.585938 14.503906 237.570312 17.523438 239.746094 C 24.140625 244.484375 18.296875 246.890625 16.136719 250.796875 C 15.976562 251.089844 15.839844 251.375 15.707031 251.65625 C 14.910156 253.261719 14.472656 254.957031 14.398438 256.75 C 14.324219 258.539062 14.617188 260.265625 15.277344 261.933594 L 15.277344 261.871094 C 15.363281 262.082031 15.449219 262.277344 15.546875 262.484375 L 15.792969 262.988281 C 15.964844 263.308594 16.148438 263.617188 16.34375 263.921875 L 16.601562 264.328125 C 16.847656 264.671875 17.117188 265.003906 17.386719 265.320312 L 17.683594 265.640625 C 17.960938 265.9375 18.257812 266.21875 18.566406 266.488281 L 18.789062 266.683594 C 19.132812 266.96875 19.492188 267.230469 19.867188 267.472656 L 20.175781 267.667969 C 20.570312 267.914062 20.980469 268.140625 21.402344 268.34375 L 21.710938 268.476562 C 22.171875 268.6875 22.648438 268.867188 23.136719 269.019531 C 23.652344 269.175781 24.183594 269.292969 24.71875 269.375 L 25.027344 269.4375 C 25.566406 269.507812 26.105469 269.558594 26.671875 269.582031 L 26.992188 269.582031 C 27.59375 269.621094 28.195312 269.621094 28.796875 269.582031 C 33.855469 269.078125 38.679688 264.78125 40.9375 271.546875 C 42.546875 276.375 34.480469 282.953125 39.378906 288.199219 C 44.09375 293.21875 51.585938 286.367188 57.109375 288.664062 C 57.375 288.773438 57.632812 288.894531 57.882812 289.03125 C 58.117188 289.15625 58.339844 289.292969 58.558594 289.4375 C 60.136719 290.546875 61.367188 291.957031 62.242188 293.675781 C 62.832031 294.707031 63.386719 295.796875 63.960938 296.878906 L 64.601562 298.007812 L 64.699219 298.15625 C 64.96875 298.609375 65.265625 299.050781 65.570312 299.480469 C 68.554688 303.570312 72.691406 307.96875 78.242188 306.996094 C 82.699219 306.222656 87.011719 300.941406 92.070312 300.21875 C 92.671875 300.132812 93.296875 300.082031 93.800781 300.046875 L 94.207031 300.046875 C 94.746094 300.046875 95.261719 300.046875 95.753906 300.046875 L 95.863281 300.046875 C 96.304688 300.046875 96.734375 300.046875 97.089844 300.167969 L 97.421875 300.167969 C 97.835938 300.238281 98.246094 300.328125 98.648438 300.441406 L 98.859375 300.5 C 99.214844 300.613281 99.546875 300.722656 99.867188 300.855469 L 100.136719 300.957031 C 100.503906 301.117188 100.847656 301.273438 101.179688 301.460938 L 101.414062 301.59375 C 101.695312 301.753906 101.964844 301.9375 102.222656 302.109375 L 102.445312 302.257812 C 102.738281 302.476562 103.035156 302.710938 103.316406 302.957031 L 103.539062 303.152344 L 104.226562 303.804688 L 104.398438 303.976562 C 104.65625 304.246094 104.898438 304.515625 105.144531 304.800781 L 105.390625 305.09375 L 105.957031 305.792969 L 106.191406 306.089844 L 106.777344 306.886719 L 107.121094 307.351562 L 107.40625 307.757812 C 108.3125 309.046875 109.222656 310.410156 110.203125 311.738281 C 111.617188 313.726562 113.277344 315.484375 115.191406 317.003906 C 115.460938 317.214844 115.707031 317.386719 115.964844 317.558594 C 116.226562 317.742188 116.503906 317.914062 116.785156 318.074219 L 116.859375 318.074219 C 117.128906 318.21875 117.375 318.34375 117.632812 318.453125 L 117.707031 318.453125 C 117.941406 318.5625 118.183594 318.65625 118.429688 318.734375 C 118.675781 318.796875 118.898438 318.859375 119.132812 318.894531 C 119.355469 318.941406 119.578125 318.96875 119.808594 318.980469 C 120.03125 319 120.257812 319 120.480469 318.980469 C 122.53125 318.820312 124.421875 317.628906 127.199219 316.625 L 127.308594 316.625 L 128.328125 316.28125 C 134.921875 314.253906 137.511719 317.078125 143.34375 319.472656 C 148.589844 321.644531 154.691406 323.351562 159.578125 321.082031 L 160.585938 320.578125 C 160.820312 320.46875 161.015625 320.34375 161.222656 320.234375 L 161.507812 320.085938 L 162.167969 319.707031 L 162.339844 319.605469 L 163.003906 319.203125 L 163.433594 318.933594 C 164.835938 317.890625 166.359375 317.070312 168.003906 316.46875 C 169.644531 315.867188 171.339844 315.515625 173.085938 315.40625 C 174.257812 315.285156 175.433594 315.285156 176.609375 315.40625 C 182.332031 316.070312 187.78125 319.238281 193.296875 321.019531 L 193.359375 321.019531 L 194.265625 321.289062 L 194.363281 321.289062 C 194.671875 321.386719 194.976562 321.460938 195.296875 321.546875 C 196.269531 321.789062 197.25 321.964844 198.246094 322.074219 L 200.527344 322.074219 C 200.730469 322.085938 200.929688 322.085938 201.128906 322.074219 L 201.511719 322.074219 L 202.113281 322 L 202.492188 321.941406 L 203.105469 321.816406 L 203.488281 321.730469 C 203.707031 321.730469 203.929688 321.609375 204.152344 321.546875 L 204.46875 321.460938 L 205.453125 321.09375 C 209.234375 319.570312 212.132812 314.609375 215.484375 312.265625 C 216.351562 311.804688 217.246094 311.398438 218.160156 311.050781 C 218.332031 310.9375 218.515625 310.851562 218.703125 310.753906 C 219.351562 310.398438 220.027344 310.066406 220.703125 309.757812 L 221.132812 309.574219 C 222.882812 308.820312 224.6875 308.226562 226.546875 307.796875 C 228.566406 307.308594 230.613281 307.015625 232.6875 306.921875 C 235.699219 306.886719 238.5625 307.515625 241.28125 308.8125 C 242.964844 309.527344 244.585938 310.335938 246.195312 311.0625 L 246.574219 311.234375 L 247.113281 311.464844 L 247.65625 311.675781 L 248.109375 311.859375 L 249.03125 312.191406 L 249.410156 312.3125 L 250.097656 312.511719 L 250.46875 312.621094 C 250.8125 312.707031 251.140625 312.78125 251.484375 312.839844 L 251.730469 312.839844 L 252.578125 312.964844 L 252.921875 312.964844 C 253.242188 312.964844 253.5625 312.964844 253.894531 312.964844 L 254.039062 312.964844 C 254.421875 312.964844 254.789062 312.964844 255.167969 312.902344 L 255.5 312.902344 L 256.433594 312.753906 L 256.71875 312.753906 C 257.121094 312.65625 257.515625 312.558594 257.945312 312.425781 L 258.203125 312.339844 C 258.535156 312.226562 258.878906 312.09375 259.234375 311.945312 L 259.589844 311.796875 C 260.019531 311.601562 260.460938 311.394531 260.902344 311.160156 C 264.464844 309.21875 267.042969 302.023438 275.566406 299.039062 L 276.363281 298.769531 C 277.355469 298.726562 278.320312 298.882812 279.25 299.238281 C 279.507812 299.34375 279.761719 299.46875 280.011719 299.605469 C 280.246094 299.730469 280.476562 299.871094 280.699219 300.023438 C 282.273438 301.132812 283.5 302.542969 284.382812 304.257812 C 284.957031 305.277344 285.5 306.359375 286.074219 307.414062 C 286.296875 307.820312 286.519531 308.226562 286.75 308.640625 C 286.777344 308.675781 286.796875 308.714844 286.8125 308.753906 C 287.09375 309.207031 287.390625 309.660156 287.707031 310.089844 C 290.691406 314.179688 294.832031 318.574219 300.367188 317.605469 C 304.835938 316.832031 309.148438 311.566406 314.207031 310.839844 C 314.8125 310.757812 315.390625 310.695312 315.9375 310.65625 L 316.34375 310.65625 C 316.882812 310.65625 317.398438 310.65625 317.902344 310.65625 L 318.050781 310.65625 C 318.503906 310.65625 318.933594 310.730469 319.351562 310.777344 L 319.683594 310.777344 C 320.097656 310.847656 320.507812 310.9375 320.910156 311.050781 L 321.121094 311.121094 C 321.464844 311.222656 321.808594 311.34375 322.140625 311.464844 L 322.398438 311.578125 C 322.753906 311.726562 323.101562 311.894531 323.441406 312.082031 L 323.660156 312.203125 C 323.945312 312.375 324.226562 312.546875 324.496094 312.730469 L 324.691406 312.878906 C 325.003906 313.097656 325.296875 313.332031 325.578125 313.578125 L 325.785156 313.761719 L 326.496094 314.4375 L 326.644531 314.585938 C 326.914062 314.855469 327.160156 315.136719 327.417969 315.433594 L 327.628906 315.679688 C 327.847656 315.9375 328.058594 316.207031 328.265625 316.476562 L 328.375 316.609375 C 328.621094 316.917969 328.855469 317.238281 329.078125 317.558594 C 329.164062 317.65625 329.234375 317.765625 329.308594 317.863281 L 329.910156 318.722656 L 330.351562 319.363281 L 330.796875 320 L 331.59375 321.140625 L 331.667969 321.242188 C 331.886719 321.558594 332.109375 321.867188 332.34375 322.171875 L 332.464844 322.359375 C 333.878906 324.355469 335.542969 326.117188 337.460938 327.636719 L 338.238281 328.179688 C 338.519531 328.363281 338.777344 328.535156 339.046875 328.679688 L 339.132812 328.679688 L 339.894531 329.0625 L 339.980469 329.0625 C 340.210938 329.167969 340.449219 329.257812 340.691406 329.332031 L 340.777344 329.332031 C 341 329.402344 341.226562 329.457031 341.453125 329.503906 L 341.527344 329.503906 C 341.746094 329.539062 341.96875 329.566406 342.191406 329.578125 L 342.25 329.578125 C 342.46875 329.589844 342.683594 329.589844 342.902344 329.578125 L 343.566406 329.492188 C 345.621094 328.878906 347.621094 328.125 349.570312 327.234375 L 349.703125 327.234375 C 350.023438 327.109375 350.367188 327 350.722656 326.890625 C 357.316406 324.863281 359.910156 327.675781 365.742188 330.082031 C 370.984375 332.242188 377.085938 333.960938 381.960938 331.675781 L 383.019531 331.160156 L 383.472656 330.929688 L 383.949219 330.660156 L 384.480469 330.363281 L 384.785156 330.179688 L 385.363281 329.824219 L 385.511719 329.738281 L 385.878906 329.503906 C 387.28125 328.460938 388.804688 327.640625 390.449219 327.039062 C 392.089844 326.441406 393.785156 326.085938 395.53125 325.980469 C 396.703125 325.890625 397.871094 325.910156 399.042969 326.042969 C 404.0625 326.605469 408.863281 329.136719 413.777344 330.953125 L 413.921875 331.015625 L 414.710938 331.296875 L 414.953125 331.382812 L 415.65625 331.617188 L 415.9375 331.703125 L 416.613281 331.910156 L 416.917969 331.996094 C 417.144531 332.070312 417.375 332.132812 417.605469 332.179688 L 417.878906 332.253906 L 418.6875 332.4375 L 418.835938 332.4375 L 419.804688 332.609375 L 420 332.609375 L 420.761719 332.707031 L 424.066406 332.707031 C 424.261719 332.695312 424.453125 332.671875 424.644531 332.636719 L 425.046875 332.574219 L 425.636719 332.464844 L 426.03125 332.378906 L 426.679688 332.191406 L 427.011719 332.09375 C 427.332031 331.984375 427.664062 331.875 427.996094 331.738281 C 431.777344 330.214844 434.664062 325.253906 438.015625 322.910156 C 438.730469 322.410156 439.472656 321.949219 440.238281 321.523438 L 440.839844 321.203125 C 441.464844 320.859375 442.066406 320.539062 442.765625 320.246094 L 443.246094 320.035156 C 445 319.292969 446.804688 318.699219 448.660156 318.257812 C 450.679688 317.777344 452.726562 317.492188 454.800781 317.398438 C 457.84375 317.347656 460.734375 317.976562 463.480469 319.289062 L 464.414062 319.691406 L 464.476562 319.691406 C 465.789062 320.28125 467.066406 320.921875 468.355469 321.484375 L 468.761719 321.671875 L 469.277344 321.890625 L 469.84375 322.113281 L 470.273438 322.285156 C 470.578125 322.40625 470.886719 322.515625 471.203125 322.617188 L 471.585938 322.738281 L 472.273438 322.945312 L 472.640625 323.046875 C 472.972656 323.132812 473.316406 323.203125 473.660156 323.265625 L 473.90625 323.265625 L 474.753906 323.375 L 475.097656 323.375 C 475.417969 323.375 475.734375 323.375 476.066406 323.375 L 476.214844 323.375 C 476.582031 323.375 476.964844 323.375 477.34375 323.316406 L 477.664062 323.316406 L 478.609375 323.167969 L 478.890625 323.105469 C 479.285156 323.019531 479.691406 322.910156 480.121094 322.789062 L 480.363281 322.703125 C 480.707031 322.578125 481.050781 322.457031 481.410156 322.308594 L 481.765625 322.160156 C 482.195312 321.964844 482.636719 321.757812 483.078125 321.511719 C 486.640625 319.582031 489.21875 312.386719 497.738281 309.390625 C 502.847656 307.597656 509.023438 310.621094 514.070312 310.851562 C 521.289062 311.195312 525.648438 311.023438 532.292969 307.660156 C 532.636719 307.484375 532.96875 307.289062 533.285156 307.070312 L 533.496094 306.921875 C 533.773438 306.726562 534.039062 306.511719 534.292969 306.285156 L 534.355469 306.210938 C 534.589844 305.992188 534.804688 305.757812 535.007812 305.511719 L 535.066406 305.425781 C 537.316406 302.578125 537.117188 298.820312 539.84375 296.351562 L 540.101562 296.128906 L 540.324219 295.957031 L 540.691406 295.699219 L 541.085938 295.453125 C 541.171875 295.398438 541.261719 295.347656 541.355469 295.308594 L 541.734375 295.109375 L 542.003906 294.988281 C 542.214844 294.890625 542.445312 294.804688 542.679688 294.71875 L 542.890625 294.65625 L 543.515625 294.460938 L 543.785156 294.386719 C 544.054688 294.386719 544.339844 294.25 544.621094 294.203125 L 544.707031 294.203125 L 545.75 294.042969 L 546.007812 294.042969 L 546.992188 293.945312 L 547.199219 293.945312 C 547.617188 293.945312 548.046875 293.945312 548.5 293.871094 L 551.71875 293.871094 C 557.796875 294.164062 551.496094 279.859375 557.855469 276.128906 C 563.308594 272.921875 567.988281 276.300781 573.035156 271.214844 L 573.695312 270.492188 L 573.941406 270.171875 C 574.039062 270.039062 574.164062 269.902344 574.25 269.765625 L 574.457031 269.449219 C 574.542969 269.3125 574.640625 269.164062 574.714844 269.03125 C 574.789062 268.894531 574.8125 268.847656 574.863281 268.761719 C 574.914062 268.675781 575.023438 268.441406 575.097656 268.292969 C 575.171875 268.144531 575.160156 268.132812 575.183594 268.058594 C 575.257812 267.894531 575.324219 267.722656 575.378906 267.542969 C 575.382812 267.488281 575.382812 267.429688 575.378906 267.371094 C 575.441406 267.175781 575.488281 266.980469 575.539062 266.785156 C 575.589844 266.585938 575.539062 266.710938 575.539062 266.671875 C 575.585938 266.457031 575.625 266.242188 575.648438 266.023438 C 576.089844 261.933594 573.4375 257.769531 572.480469 253.253906 C 572.261719 252.265625 572.148438 251.265625 572.136719 250.257812 C 572.136719 250.257812 572.136719 250.183594 572.136719 250.144531 C 572.140625 249.65625 572.171875 249.167969 572.234375 248.683594 C 572.242188 248.644531 572.242188 248.601562 572.234375 248.5625 C 572.308594 248.046875 572.425781 247.546875 572.578125 247.050781 C 573.808594 242.914062 587.242188 248.78125 590.691406 236.308594 C 591.84375 232.96875 583.691406 229.714844 581.507812 227.550781 Z M 581.507812 227.550781 " fill-opacity="1" fill-rule="nonzero"/><path fill="#ffebc1" d="M 548.796875 216.5625 L 548.796875 282.21875 C 286.800781 307.402344 32.957031 282.21875 32.957031 282.21875 L 32.957031 216.5625 L 167.386719 148.710938 L 258.25 102.859375 C 258.25 102.859375 281.789062 87.792969 307.5625 102.859375 L 487.339844 187.585938 Z M 548.796875 216.5625 " fill-opacity="1" fill-rule="nonzero"/><path fill="#d97a4a" d="M 96.441406 227.550781 C 93.714844 227.441406 82.933594 227.222656 79.554688 227.035156 C 69.292969 226.507812 59.074219 225.808594 48.625 225.429688 C 33.414062 224.777344 35.511719 223.179688 36.347656 222.972656 L 40.558594 221.878906 C 44.875 221.015625 49.234375 220.644531 53.636719 220.773438 C 92.855469 223.070312 133.09375 224.457031 172.128906 226.25 C 189.625 227.050781 216.503906 228.238281 239.269531 229.125 L 281.800781 230.648438 C 303.90625 231.148438 323.660156 232.5 345.136719 232.746094 C 367.300781 232.992188 390.140625 232.539062 412.964844 230.84375 C 432.820312 229.371094 452.417969 226.949219 472.152344 223.757812 C 479.8125 222.617188 487.386719 221.144531 494.855469 219.9375 C 502.222656 218.503906 509.589844 217.335938 516.527344 216.023438 C 518.476562 215.628906 520.445312 215.367188 522.433594 215.238281 C 525.847656 215.164062 521.890625 216.871094 518.996094 218.183594 C 514.152344 220.308594 509.160156 221.984375 504.015625 223.207031 L 495.34375 225.328125 C 492.460938 225.929688 489.625 226.484375 486.996094 226.949219 C 466.332031 230.632812 444.867188 233.1875 423.230469 234.820312 C 402.355469 236.550781 380.929688 237.472656 360.414062 237.585938 C 355.023438 237.585938 349.359375 237.65625 344.265625 237.585938 C 337.84375 237.5 311.222656 236.847656 281.949219 235.582031 L 203.523438 232.292969 C 167.867188 230.878906 132.980469 228.855469 96.441406 227.550781 Z M 208.25 453.484375 L 224.65625 454.023438 C 230.917969 454.269531 237.867188 454.28125 245.222656 454.453125 C 252.578125 454.625 260.339844 454.453125 268.210938 454.550781 C 276.082031 454.652344 284.0625 454.292969 291.859375 454.195312 C 323.070312 453.449219 351.339844 451.398438 358.164062 450.894531 C 363.617188 450.5 369.558594 449.996094 375.269531 449.382812 L 391.699219 447.6875 L 395.847656 447.246094 L 400 446.730469 L 408.3125 445.6875 L 424.9375 443.464844 L 441.539062 441.070312 C 452.96875 439.597656 464.316406 437.765625 475.589844 436.085938 L 484.011719 434.855469 L 492.386719 433.46875 L 508.988281 430.757812 C 514.5625 429.910156 521.019531 428.535156 527.125 427.195312 C 532.605469 426.070312 537.992188 424.597656 543.28125 422.773438 C 546.460938 421.609375 550.796875 420.097656 547.175781 419.988281 C 545.054688 420.027344 542.941406 420.1875 540.839844 420.464844 C 533.3125 421.324219 525.488281 422.457031 517.507812 423.757812 C 509.527344 425.058594 501.363281 426.273438 493.207031 427.722656 C 482.699219 429.652344 472.210938 431.257812 461.773438 433.050781 L 453.953125 434.378906 C 451.335938 434.808594 448.722656 435.175781 446.105469 435.605469 L 430.390625 437.964844 C 424.375 438.898438 418.320312 439.632812 412.289062 440.417969 C 406.261719 441.207031 400.246094 441.929688 394.253906 442.617188 L 376.3125 444.421875 L 367.421875 445.292969 L 358.570312 445.980469 C 352.886719 446.410156 347.296875 446.804688 341.761719 447.210938 L 325.195312 447.957031 L 316.894531 448.339844 L 308.507812 448.609375 L 291.320312 449.308594 C 290.175781 449.308594 270.347656 450.007812 246.15625 449.835938 C 221.96875 449.664062 193.429688 448.386719 174.9375 446.828125 C 154.285156 445.171875 133.339844 443.011719 112.527344 439.769531 C 102.125 438.136719 91.75 436.269531 81.460938 434.097656 C 71.171875 431.921875 61.015625 429.355469 51.058594 426.359375 C 46.5625 425.148438 41.996094 424.304688 37.367188 423.820312 C 35.84375 423.734375 34.234375 423.597656 32.726562 423.460938 C 32.257812 423.460938 31.300781 423.5625 32.515625 424.53125 C 33.730469 425.5 36.910156 427.207031 44.796875 429.601562 C 55.589844 432.855469 66.171875 435.742188 76.929688 438.085938 C 80.378906 438.75 91.785156 440.789062 94.636719 441.207031 C 132.238281 447.785156 170.109375 451.839844 208.25 453.375 Z M 218.234375 143.566406 C 215.925781 145.738281 211.433594 149.542969 207.320312 153.054688 C 203.207031 156.566406 199.570312 159.882812 198.722656 160.695312 C 198.035156 161.34375 197.386719 162.15625 196.710938 162.890625 C 194.167969 165.691406 191.796875 168.90625 189.527344 172.003906 C 186.960938 175.046875 184.441406 178.140625 181.804688 180.929688 C 181.105469 181.757812 180.546875 182.675781 180.132812 183.679688 C 179.609375 184.796875 179.527344 185.949219 179.886719 187.128906 C 180.15625 188.0625 180.453125 189.253906 181.703125 189.4375 C 182.207031 189.484375 182.683594 189.402344 183.140625 189.191406 C 185.808594 188.0625 187.972656 186.308594 189.636719 183.9375 C 191.796875 181.050781 193.566406 177.894531 195.640625 174.9375 C 198.007812 171.582031 200.640625 168.453125 203.535156 165.542969 C 204.925781 164.234375 206.382812 163.003906 207.90625 161.859375 C 209.472656 160.734375 210.894531 159.453125 212.179688 158.015625 C 212.316406 157.882812 214.734375 155.5625 217.769531 152.785156 C 220.800781 150.011719 224.421875 146.820312 226.792969 144.742188 C 232.0625 140.089844 237.09375 134.699219 242.753906 130.289062 C 243.328125 129.105469 243.445312 127.878906 243.097656 126.605469 L 242.621094 124.570312 C 242.523438 124.152344 241.394531 121.917969 239.414062 123.96875 C 238.027344 125.367188 236.480469 126.421875 235.042969 127.726562 C 234.566406 128.128906 233.300781 129.789062 232.945312 130.179688 C 228.144531 135.179688 222.960938 138.984375 218.234375 143.566406 Z M 273.90625 153.472656 C 268.785156 160.007812 253.179688 176.335938 251.070312 178.597656 C 250.207031 179.503906 249.398438 180.574219 248.613281 181.578125 C 245.457031 185.375 242.472656 189.574219 239.34375 193.578125 C 235.988281 197.566406 232.613281 201.507812 229.113281 205.144531 C 228.171875 206.195312 227.351562 207.339844 226.65625 208.570312 C 225.875 209.835938 225.539062 211.210938 225.652344 212.695312 C 225.75 213.773438 225.796875 215.152344 227.160156 215.296875 C 227.761719 215.292969 228.320312 215.148438 228.84375 214.855469 C 232.230469 213.152344 235.070312 210.789062 237.363281 207.769531 C 240.433594 204 243.027344 199.925781 245.863281 196.007812 C 249.117188 191.5 252.601562 187.214844 256.140625 183.199219 C 259.675781 179.1875 263.507812 176.386719 266.699219 172.148438 C 267.019531 171.730469 278.425781 158.445312 283.78125 151.902344 C 289.734375 144.535156 295.125 136.417969 300.96875 128.976562 C 301.484375 127.566406 301.457031 126.167969 300.882812 124.777344 C 300.613281 124.113281 300.355469 123.425781 300.074219 122.765625 C 299.890625 122.359375 298.34375 120.394531 296.390625 123.511719 C 295.015625 125.660156 293.417969 127.539062 291.921875 129.53125 C 291.441406 130.167969 290.1875 132.527344 289.820312 133.089844 C 284.882812 140.484375 279.1875 146.695312 273.90625 153.472656 Z M 321.179688 161.34375 C 318.859375 165.496094 310.683594 175.574219 309.578125 176.964844 C 309.148438 177.527344 308.78125 178.191406 308.351562 178.84375 C 306.851562 181.296875 305.574219 183.9375 304.199219 186.492188 C 302.636719 188.996094 300.933594 191.402344 299.089844 193.710938 C 298.613281 194.386719 298.273438 195.121094 298.070312 195.921875 C 297.820312 196.933594 297.949219 197.890625 298.464844 198.796875 C 298.871094 199.582031 299.335938 200.613281 300.515625 200.84375 C 300.9375 200.90625 301.347656 200.863281 301.742188 200.710938 C 302.8125 200.355469 303.78125 199.820312 304.644531 199.097656 C 305.507812 198.378906 306.210938 197.523438 306.753906 196.535156 C 308.074219 194.078125 309.269531 191.5625 310.339844 188.984375 C 311.714844 186.148438 313.324219 183.453125 315.164062 180.890625 C 316.871094 178.4375 319.277344 176.777344 320.691406 174.039062 C 320.824219 173.78125 326.398438 165.445312 328.917969 161.308594 C 331.714844 156.691406 333.828125 151.375 336.46875 146.648438 C 336.382812 145.476562 335.941406 144.460938 335.140625 143.601562 C 334.710938 143.085938 334.28125 142.558594 333.851562 142.054688 C 333.421875 141.550781 331.703125 140.152344 330.957031 142.175781 C 330.394531 143.503906 329.753906 144.789062 329.027344 146.03125 C 328.804688 146.4375 328.460938 148.007812 328.328125 148.367188 C 326.472656 153.179688 323.5625 157.035156 321.144531 161.34375 Z M 357.21875 171.167969 C 355.609375 174.238281 349.410156 181.371094 348.625 182.367188 C 348.308594 182.804688 348.023438 183.261719 347.777344 183.742188 C 346.710938 185.484375 345.886719 187.511719 344.941406 189.402344 C 343.835938 191.246094 342.582031 192.984375 341.183594 194.621094 C 340.824219 195.117188 340.609375 195.667969 340.53125 196.277344 C 340.449219 197.171875 340.691406 197.964844 341.257812 198.660156 C 341.730469 199.566406 342.441406 200.203125 343.394531 200.574219 C 343.777344 200.671875 344.164062 200.671875 344.546875 200.574219 C 345.40625 200.472656 346.191406 200.175781 346.90625 199.691406 C 347.621094 199.207031 348.1875 198.585938 348.601562 197.824219 C 349.503906 195.988281 350.277344 194.097656 350.921875 192.152344 C 351.808594 190.03125 352.921875 188.039062 354.261719 186.171875 C 355.488281 184.417969 357.515625 183.371094 358.449219 181.320312 C 358.546875 181.125 362.585938 175.085938 364.367188 172.039062 C 366.34375 168.648438 367.558594 164.671875 369.425781 161.109375 C 369.148438 160.078125 368.617188 159.203125 367.828125 158.484375 C 367.363281 158.003906 366.90625 157.527344 366.441406 157.058594 C 365.972656 156.59375 364.230469 155.242188 363.8125 156.789062 C 363.492188 157.785156 363.082031 158.742188 362.585938 159.664062 C 362.449219 159.96875 362.339844 161.195312 362.253906 161.480469 C 361.085938 165.261719 358.839844 168.011719 357.183594 171.203125 Z M 357.21875 171.167969 " fill-opacity="1" fill-rule="nonzero"/><path fill="#a0d995" d="M 329.542969 133.828125 C 327.875 132.15625 325.859375 132.710938 324.101562 131.605469 C 322.054688 130.277344 323.957031 128.976562 325.136719 127.46875 C 326.792969 125.332031 329.113281 122.371094 327.898438 119.324219 C 327.785156 119.003906 327.636719 118.699219 327.453125 118.410156 C 327.269531 118.121094 327.054688 117.859375 326.8125 117.617188 C 326.570312 117.378906 326.304688 117.167969 326.011719 116.988281 C 325.722656 116.8125 325.417969 116.667969 325.09375 116.554688 C 324.769531 116.445312 324.4375 116.375 324.097656 116.339844 C 323.757812 116.304688 323.421875 116.308594 323.082031 116.351562 C 322.742188 116.390625 322.414062 116.472656 322.09375 116.589844 C 321.769531 116.707031 321.46875 116.855469 321.179688 117.042969 C 318.847656 118.355469 315.875 122.863281 313.003906 122.101562 C 310.671875 121.476562 310.757812 117.472656 309.417969 115.519531 C 308.078125 113.566406 304.996094 111.835938 303.511719 114.5 C 302.027344 117.164062 301.410156 122.371094 301.410156 125.390625 C 301.410156 128.84375 302.015625 133.753906 300.980469 136.996094 C 300.011719 140.039062 297.089844 140.828125 295.160156 142.472656 C 293.699219 141.035156 294.976562 136.910156 295.160156 135.105469 C 295.480469 132.585938 295.160156 130.191406 295.273438 127.652344 C 295.550781 124.929688 295.585938 122.203125 295.371094 119.472656 C 295.160156 117.496094 295.371094 115.199219 294.5 113.554688 C 293.371094 111.441406 290.667969 110.054688 288.863281 111.933594 C 287.058594 113.8125 288.789062 117.238281 286.40625 118.980469 C 284.332031 120.503906 283.117188 118.34375 281.003906 118.269531 C 280.136719 118.296875 279.382812 118.605469 278.746094 119.191406 C 277.1875 117.777344 274.375 117.164062 272.789062 118.515625 C 271.207031 119.867188 271.121094 122.578125 268.6875 122.703125 C 265.890625 122.835938 265.863281 118.894531 263.273438 118.515625 C 260.890625 118.171875 259.332031 121.117188 259.417969 123.609375 C 259.417969 125.550781 260.757812 127.296875 261.542969 129.074219 C 262.652344 131.433594 263.980469 133.660156 265.53125 135.753906 C 266.882812 137.730469 267.730469 139.964844 269.214844 141.894531 C 270.25 143.21875 273.292969 145.761719 272.777344 147.921875 C 270.394531 147.921875 267.609375 149.152344 265.347656 147.296875 C 263.089844 145.441406 261.074219 140.863281 259.429688 138.027344 C 257.980469 135.570312 254.910156 131.582031 252.46875 130.425781 C 250.023438 129.273438 248.269531 132.636719 248.085938 135.214844 C 247.902344 137.792969 249.914062 140.960938 248.292969 143.023438 C 246.28125 145.578125 241.675781 143.835938 239.121094 144.253906 C 238.769531 144.320312 238.425781 144.421875 238.089844 144.554688 C 237.757812 144.691406 237.441406 144.855469 237.136719 145.050781 C 236.835938 145.25 236.558594 145.472656 236.300781 145.722656 C 236.042969 145.972656 235.808594 146.246094 235.605469 146.542969 C 235.398438 146.835938 235.222656 147.148438 235.078125 147.480469 C 234.933594 147.808594 234.824219 148.148438 234.746094 148.5 C 234.667969 148.851562 234.621094 149.207031 234.613281 149.566406 C 234.605469 149.925781 234.628906 150.28125 234.6875 150.636719 C 235.15625 153.964844 238.484375 154.847656 240.828125 155.546875 C 242.535156 156.015625 244.71875 155.832031 243.664062 158.273438 C 242.753906 160.363281 240.828125 161.246094 240.25 163.75 C 239.601562 166.5625 240.816406 167.742188 243.160156 168.234375 C 245.714844 168.773438 248.074219 166.390625 250.085938 164.894531 C 254.480469 161.773438 259.066406 158.960938 263.839844 156.457031 C 265.558594 155.535156 267.300781 154.515625 268.984375 153.644531 C 270.148438 153.042969 272.335938 151.484375 273.589844 151.878906 C 274.164062 154.984375 271.808594 156.164062 269.90625 157.527344 C 267.085938 159.769531 264.769531 162.445312 262.953125 165.554688 C 261.726562 167.679688 258.914062 171.867188 260.230469 174.617188 C 261.8125 177.945312 266.046875 176.644531 267.964844 174.914062 C 274.363281 169.09375 271.574219 182.734375 274.335938 185.558594 C 276.65625 187.929688 280.292969 186.640625 281.300781 183.347656 C 281.644531 182.207031 281.300781 180.390625 282.121094 179.542969 C 283.351562 178.3125 284.355469 179.40625 284.957031 180.375 C 286.039062 182.097656 286.394531 183.53125 288.507812 183.730469 C 290.839844 183.9375 291.355469 182.15625 291.34375 179.714844 C 291.289062 178.128906 290.996094 176.589844 290.464844 175.097656 C 289.933594 173.601562 289.191406 172.222656 288.238281 170.957031 C 286.886719 168.902344 285.660156 166.773438 284.554688 164.574219 C 284.222656 163.949219 283.9375 163.347656 283.621094 162.660156 C 284.316406 161.074219 285.101562 159.53125 285.964844 158.027344 C 286.554688 157.035156 287.121094 155.867188 287.707031 154.640625 C 289.539062 155.464844 291.289062 156.4375 292.953125 157.5625 C 293.160156 159.75 293.371094 161.945312 293.429688 164.15625 C 293.570312 166.726562 293.570312 169.296875 293.429688 171.867188 C 293.238281 173.460938 293.28125 175.046875 293.558594 176.628906 C 293.835938 178.210938 294.339844 179.71875 295.0625 181.148438 C 296.230469 183.175781 297.519531 184.292969 299.335938 182.5625 C 301.152344 180.832031 300.566406 179.589844 300.652344 177.441406 C 300.652344 176.214844 301.03125 174.691406 302.601562 174.863281 C 303.71875 174.984375 304.273438 176.730469 305.058594 177.441406 C 307.515625 179.492188 311.085938 178.140625 311.863281 174.628906 C 312.78125 170.457031 303.941406 161.125 312.007812 161.601562 C 314.464844 161.761719 318.542969 160.007812 318.257812 156.199219 C 318.011719 153.054688 313.726562 151.433594 311.664062 150.539062 C 308.640625 149.175781 305.46875 148.503906 302.148438 148.523438 C 299.988281 148.625 297.46875 149.226562 296.453125 146.277344 C 297.296875 145.050781 299.851562 144.953125 301.105469 144.667969 C 302.910156 144.265625 304.789062 143.945312 306.691406 143.550781 C 311.734375 142.457031 316.832031 141.71875 321.980469 141.34375 C 324.433594 141.195312 327.445312 141.625 329.347656 139.476562 C 331.25 137.328125 331.421875 135.71875 329.542969 133.828125 Z M 287.304688 152.503906 C 285.695312 151.753906 284.097656 150.699219 282.390625 150.046875 C 280.730469 149.523438 279.035156 149.144531 277.308594 148.917969 C 277.324219 148.226562 277.519531 147.59375 277.898438 147.015625 C 278.980469 145.507812 280.207031 144.132812 281.582031 142.890625 L 281.972656 143.132812 C 284.738281 144.769531 287.757812 144.007812 290.570312 145.136719 C 291.175781 145.386719 291.644531 145.796875 291.96875 146.363281 C 290.636719 147.714844 289.40625 149.15625 288.285156 150.6875 C 287.953125 151.238281 287.636719 151.878906 287.304688 152.503906 Z M 285.167969 156.457031 C 284.292969 157.84375 283.5 159.273438 282.796875 160.753906 C 281.800781 158.605469 280.832031 156.433594 279.753906 154.332031 C 278.976562 152.835938 277.726562 151.375 277.394531 149.777344 C 280.464844 150.257812 283.695312 152.492188 286.480469 153.988281 C 286.0625 154.835938 285.632812 155.683594 285.167969 156.457031 Z M 288.554688 153.082031 C 289.519531 150.898438 290.773438 148.902344 292.324219 147.089844 C 292.816406 148.625 292.484375 150.675781 292.570312 152.40625 C 292.570312 153.375 292.683594 154.34375 292.769531 155.316406 C 291.429688 154.445312 290.027344 153.703125 288.554688 153.082031 Z M 288.554688 153.082031 " fill-opacity="1" fill-rule="nonzero"/></svg>