<svg xmlns="http://www.w3.org/2000/svg" xmlns:xlink="http://www.w3.org/1999/xlink" width="800" zoomAndPan="magnify" viewBox="0 0 600 599.999999" height="800" preserveAspectRatio="xMidYMid meet" version="1.0"><defs><clipPath id="87cb6e90f0"><path d="M 110.519531 69 L 489.449219 69 L 489.449219 587 L 110.519531 587 Z M 110.519531 69 " clip-rule="nonzero"/></clipPath></defs><g clip-path="url(#87cb6e90f0)"><path fill="#d9435e" d="M 487.347656 281.878906 C 486.425781 317.585938 478.742188 432.527344 477.234375 454.492188 C 474.839844 490.050781 462.019531 525.765625 441.097656 552.484375 C 433.21875 562.75 423.992188 569.046875 412.292969 573.5625 C 410.09375 574.410156 407.773438 575.222656 405.382812 575.953125 C 405.382812 575.953125 402.605469 578.738281 391.910156 581.476562 C 376 585.53125 342.566406 589.429688 274.734375 583.753906 C 161.457031 574.257812 152.730469 545.722656 150.53125 544.253906 C 148.332031 542.753906 131.539062 531.671875 125.703125 522.5625 C 116.980469 508.855469 113.160156 490.941406 111.34375 469.359375 C 109.875 451.75 110.6875 434.613281 111.34375 417.234375 C 113.273438 361.253906 111.34375 194.585938 111.34375 194.585938 C 114.546875 161.109375 111.996094 129.605469 138.367188 105.128906 C 157.015625 87.136719 183.425781 81.960938 205.933594 69.109375 L 412.175781 101.496094 C 439.4375 118.40625 479.816406 133.429688 484.53125 168.214844 L 486.425781 180.417969 C 492.054688 212.34375 488.273438 249.945312 487.347656 281.878906 " fill-opacity="1" fill-rule="nonzero"/></g><path fill="#faf6f3" d="M 164.546875 530.148438 C 138.632812 513.792969 127.445312 484.675781 121.988281 455.742188 C 121.527344 453.296875 117.808594 454.335938 118.261719 456.765625 C 123.917969 486.746094 135.839844 516.59375 162.597656 533.480469 C 164.710938 534.8125 166.644531 531.472656 164.546875 530.148438 " fill-opacity="1" fill-rule="nonzero"/><path fill="#faf6f3" d="M 171.875 540.601562 C 173.636719 541.273438 175.140625 542.445312 176.914062 543.117188 C 179.242188 544.007812 180.238281 540.273438 177.9375 539.398438 C 176.179688 538.726562 174.671875 537.554688 172.902344 536.878906 C 170.570312 535.988281 169.574219 539.722656 171.875 540.601562 " fill-opacity="1" fill-rule="nonzero"/><path fill="#faf6f3" d="M 126.351562 282.886719 C 125.601562 253.605469 125.050781 224.316406 125.214844 195.027344 C 125.3125 176.777344 125.035156 158.015625 127.84375 139.921875 C 128.226562 137.464844 124.363281 137.378906 123.984375 139.808594 C 121.175781 157.910156 121.488281 176.648438 121.355469 194.917969 C 121.136719 224.207031 121.742188 253.5 122.496094 282.773438 C 122.558594 285.25 126.417969 285.378906 126.351562 282.886719 " fill-opacity="1" fill-rule="nonzero"/><path fill="#faf6f3" d="M 140.367188 118.976562 C 146.875 111.300781 154.125 104.777344 163.339844 100.546875 C 165.601562 99.507812 163.996094 95.996094 161.730469 97.035156 C 151.921875 101.539062 144.171875 108.539062 137.242188 116.707031 C 135.628906 118.613281 138.769531 120.859375 140.367188 118.976562 " fill-opacity="1" fill-rule="nonzero"/><path fill="#faf6f3" d="M 472.121094 155.113281 C 452.664062 177.003906 424.363281 189.277344 396.734375 197.292969 C 392.703125 198.464844 388.628906 199.59375 384.519531 200.664062 C 382.621094 192.523438 374.121094 179.410156 370.230469 173.6875 C 387.4375 169.152344 403.878906 162.113281 418.742188 151.847656 C 435.703125 140.125 451.523438 121.222656 452.085938 100.164062 C 452.203125 95.882812 451.691406 91.519531 450.429688 87.105469 C 447.253906 75.984375 437.878906 67.402344 429.898438 59.523438 C 425.0625 54.757812 419.878906 50.367188 414.394531 46.355469 C 407.398438 41.238281 399.914062 36.792969 392.179688 32.882812 C 372.601562 22.988281 351.996094 15.535156 330.820312 9.886719 C 320.976562 7.261719 310.925781 5.226562 300.804688 4.042969 C 266.21875 -0.0195312 231.300781 5.730469 198.707031 17.582031 C 186.304688 22.09375 177.296875 30.644531 170.011719 41.898438 C 147.648438 76.433594 179.378906 126.480469 183.152344 131.40625 C 197.46875 150.101562 220.953125 161.265625 242.476562 169.246094 C 265.171875 177.660156 289.832031 180.285156 313.914062 180.417969 C 322.058594 180.464844 330.21875 180.136719 338.324219 179.335938 C 342.636719 178.90625 346.933594 178.34375 351.203125 177.660156 C 355.21875 184.742188 362.9375 198.699219 365.207031 205.214844 C 343.757812 209.695312 321.765625 212.242188 300.15625 211.164062 C 265.414062 209.441406 229.515625 198.972656 198.90625 182.425781 C 171.734375 167.734375 147.46875 150.148438 134.246094 121.316406 C 133.210938 119.0625 129.882812 121.023438 130.914062 123.265625 C 144.257812 152.367188 169.15625 171.289062 196.957031 185.761719 C 227.296875 201.546875 262.101562 213.136719 296.4375 214.84375 C 319.582031 215.992188 343.210938 213.710938 366.214844 209.019531 C 375.917969 250.777344 391.597656 290.890625 398.007812 333.691406 C 407.007812 393.339844 410.324219 450.09375 387.121094 507.003906 C 378.164062 528.96875 367.46875 549.007812 353.917969 568.429688 C 351.390625 572.070312 348.582031 575.796875 345.707031 579.585938 C 322.589844 579.90625 295.535156 579.242188 269.285156 576.351562 C 257.308594 575.035156 245.492188 573.253906 234.304688 570.894531 C 163.96875 556.074219 150.539062 544.316406 150.539062 544.316406 C 151.613281 554.382812 157.375 562.523438 165.054688 568.535156 C 171.054688 573.238281 178.226562 576.636719 185.246094 578.644531 C 206.371094 584.855469 248.414062 595.574219 287.496094 598.195312 C 305.519531 599.40625 323.246094 599.976562 341.261719 599.09375 C 354.824219 598.429688 369.085938 598.175781 382.359375 594.96875 C 394.566406 592.019531 404.6875 586.667969 405.398438 576.027344 C 405.359375 576.039062 405.316406 576.042969 405.28125 576.050781 C 405.347656 575.992188 405.382812 575.960938 405.382812 575.960938 C 407.773438 575.222656 410.09375 574.410156 412.292969 573.5625 C 428.546875 546.769531 434.839844 512.289062 437.464844 482.910156 C 442.253906 428.316406 426.039062 379.246094 409.628906 327.820312 C 397.742188 290.625 389.078125 254.230469 385.882812 216.726562 C 385.492188 212.210938 385.191406 208.910156 384.96875 204.640625 C 390.234375 203.257812 395.457031 201.765625 400.613281 200.160156 C 427.902344 191.648438 455.503906 179.609375 474.851562 157.847656 C 476.503906 155.992188 473.78125 153.253906 472.121094 155.113281 " fill-opacity="1" fill-rule="nonzero"/><path fill="#faf6f3" d="M 238.355469 446.710938 C 244.023438 474.679688 287.40625 483.761719 296.648438 453.464844 C 298.285156 448.09375 289.902344 445.816406 288.269531 451.15625 C 281.429688 473.589844 250.585938 463.410156 246.734375 444.398438 C 245.621094 438.910156 237.25 441.242188 238.355469 446.710938 " fill-opacity="1" fill-rule="nonzero"/><path fill="#faf6f3" d="M 295.160156 399.21875 C 305 408.664062 291.53125 416.148438 282.652344 416.488281 C 272.625 416.875 254.316406 414.261719 253.785156 401.449219 C 255.914062 379.652344 284.835938 389.296875 295.160156 399.21875 Z M 245.097656 401.449219 C 245.042969 402.011719 245.101562 402.503906 245.21875 402.953125 C 248.550781 431.746094 312.109375 434.816406 306.640625 402.191406 C 304.363281 388.621094 284.984375 382.1875 273.644531 380.300781 C 258.449219 377.769531 247.464844 384.546875 245.3125 399.90625 C 245.164062 400.363281 245.070312 400.867188 245.097656 401.449219 " fill-opacity="1" fill-rule="nonzero"/><path fill="#faf6f3" d="M 302.257812 343.671875 C 302.277344 354.292969 296.050781 351.972656 287.734375 351.511719 C 276.734375 350.898438 266.011719 348.34375 254.957031 349.132812 C 249.402344 349.523438 249.363281 358.214844 254.957031 357.820312 C 270.027344 356.746094 284.914062 361.738281 299.992188 360.59375 C 309.226562 359.886719 310.957031 351.445312 310.945312 343.671875 C 310.933594 338.074219 302.25 338.074219 302.257812 343.671875 " fill-opacity="1" fill-rule="nonzero"/><path fill="#faf6f3" d="M 263.191406 288.285156 C 266.304688 287.082031 269.835938 286.648438 273.300781 286.367188 C 273.160156 286.929688 273.113281 287.539062 273.207031 288.199219 C 273.964844 293.46875 275.160156 298.691406 274.394531 303.941406 C 271.378906 303.277344 268.386719 302.582031 265.433594 301.820312 C 258.515625 300.035156 255.640625 291.203125 263.191406 288.285156 Z M 247.410156 293.511719 C 247.828125 303.757812 257.023438 308.621094 265.941406 310.925781 C 279.648438 314.464844 294.410156 316.59375 308.371094 319.027344 C 313.847656 319.980469 316.191406 311.609375 310.683594 310.648438 C 301.546875 309.058594 292.167969 307.527344 282.898438 305.71875 C 283.929688 299.085938 282.546875 292.570312 281.585938 285.894531 C 281.574219 285.835938 281.558594 285.789062 281.546875 285.738281 C 289.785156 285.234375 298.089844 285.589844 306.28125 286.488281 C 311.84375 287.101562 311.789062 278.410156 306.28125 277.804688 C 295.039062 276.566406 246.527344 272.058594 247.410156 293.511719 " fill-opacity="1" fill-rule="nonzero"/><path fill="#faf6f3" d="M 180.847656 289.789062 C 181.074219 286.628906 182.535156 284.742188 185.800781 284.59375 C 185.808594 284.59375 185.808594 284.585938 185.8125 284.585938 C 187.964844 284.695312 192.105469 285.894531 191.644531 288.839844 C 191.304688 291.003906 188.640625 292.785156 186.789062 293.558594 C 183.761719 294.820312 180.597656 293.171875 180.847656 289.789062 Z M 186.472656 299.585938 C 191.285156 298.738281 197.476562 294.242188 197.453125 288.824219 C 197.433594 282.773438 192.03125 279.390625 186.5625 278.863281 C 186.328125 278.816406 186.078125 278.789062 185.800781 278.796875 C 185.523438 278.78125 185.269531 278.816406 185.03125 278.863281 C 178.6875 279.453125 175.820312 283.597656 175.054688 289.789062 C 174.265625 296.136719 180.570312 300.625 186.472656 299.585938 " fill-opacity="1" fill-rule="nonzero"/><path fill="#faf6f3" d="M 272.953125 240.730469 C 272.871094 237.121094 275.53125 235.449219 278.847656 235.445312 C 286.210938 236.160156 287.003906 246.839844 279.089844 247.339844 C 275.261719 247.582031 273.035156 244.101562 272.953125 240.730469 Z M 290.726562 241.683594 C 290.839844 235.421875 285.421875 230.695312 279.664062 229.769531 C 279.410156 229.703125 279.144531 229.652344 278.847656 229.65625 C 278.558594 229.628906 278.300781 229.644531 278.058594 229.6875 C 271.660156 230.019531 267.546875 234.234375 267.164062 240.730469 C 266.761719 247.582031 272.511719 252.894531 279.089844 253.128906 C 285.550781 253.363281 290.617188 247.867188 290.726562 241.683594 " fill-opacity="1" fill-rule="nonzero"/><path fill="#faf6f3" d="M 323.144531 510.984375 C 323.0625 507.375 325.722656 505.707031 329.039062 505.703125 C 336.398438 506.414062 337.191406 517.097656 329.28125 517.597656 C 325.453125 517.839844 323.230469 514.355469 323.144531 510.984375 Z M 340.917969 511.941406 C 341.03125 505.679688 335.617188 500.953125 329.855469 500.023438 C 329.601562 499.957031 329.335938 499.90625 329.039062 499.910156 C 328.75 499.882812 328.492188 499.902344 328.25 499.945312 C 321.847656 500.277344 317.738281 504.492188 317.355469 510.984375 C 316.953125 517.839844 322.703125 523.148438 329.28125 523.386719 C 335.742188 523.621094 340.804688 518.128906 340.917969 511.941406 " fill-opacity="1" fill-rule="nonzero"/><path fill="#f2b0ac" d="M 340.710938 100.195312 C 338.941406 109.847656 334.226562 117.222656 325.425781 121.316406 C 318.632812 124.558594 311.21875 127.492188 303.535156 126.640625 C 294.421875 125.988281 286.160156 122.589844 277.820312 119.382812 C 272.761719 117.414062 267.742188 115.214844 262.761719 113.089844 C 254.003906 109.386719 245.355469 105.410156 236.550781 101.742188 C 227.976562 98.226562 218.945312 94.984375 212.113281 88.535156 C 211.335938 87.84375 210.644531 87.066406 209.949219 86.21875 C 206.664062 82.089844 204.617188 76.800781 204.617188 71.546875 C 204.582031 68.035156 206.972656 63.09375 209.40625 60.660156 C 213.617188 56.492188 220.5625 55.527344 226.199219 55.175781 C 232.1875 54.871094 238.167969 55.601562 244.15625 55.601562 C 252.417969 55.601562 260.757812 55.953125 269.019531 56.761719 C 288.285156 58.691406 306.816406 63.597656 323.84375 73.054688 C 334.804688 79.15625 343.1875 86.761719 340.710938 100.195312 Z M 423.917969 96.527344 C 420.515625 85.640625 413.6875 76.378906 405.769531 68.308594 C 394.460938 56.800781 378.976562 50.160156 364.1875 44.328125 C 341.410156 35.371094 317.433594 30.042969 293.152344 27.496094 C 290.523438 27.226562 287.824219 26.992188 285.15625 26.804688 C 263.535156 25.144531 241.375 26.027344 220.5625 32.359375 C 213.230469 34.5625 206.125 37.726562 199.757812 42.054688 C 193.15625 46.566406 189.140625 51.894531 185.007812 58.613281 C 182.882812 62.050781 181.03125 65.640625 179.757812 69.425781 C 175.164062 82.9375 178.867188 97.6875 185.199219 110 C 187.285156 114.09375 189.871094 118.109375 192.6875 121.742188 C 202.960938 135.171875 217.246094 144.75 232.1875 152.199219 C 243.460938 157.835938 257.007812 159.539062 269.289062 161.855469 C 285.929688 164.980469 302.6875 166.179688 319.554688 164.789062 C 326.316406 164.210938 333.070312 163.472656 339.789062 162.589844 C 362.140625 159.578125 385.152344 155.753906 405.148438 144.671875 C 415.613281 138.878906 423.917969 130.003906 425.765625 117.839844 C 426.8125 111.082031 425.964844 103.011719 423.917969 96.527344 " fill-opacity="1" fill-rule="nonzero"/><path fill="#f2b0ac" d="M 309.117188 75.304688 C 305.496094 73.691406 301.730469 72.527344 298.234375 71.902344 C 293.164062 70.941406 287.667969 71.117188 282.546875 71.539062 C 274.152344 72.167969 268.59375 75.402344 264.917969 82.898438 C 259.953125 93.113281 265.292969 102.585938 273.890625 108.546875 C 284.074219 115.761719 296.777344 118.402344 308.988281 116.125 C 317.078125 114.445312 325.480469 108.546875 326.742188 99.847656 C 328.433594 88.148438 319.320312 79.816406 309.117188 75.304688 " fill-opacity="1" fill-rule="nonzero"/><path fill="#f2b0ac" d="M 244.886719 85.453125 C 240.742188 88.519531 236.859375 89.003906 232.207031 86.769531 C 226.578125 84.066406 222.863281 76.699219 228.800781 72.199219 C 232.867188 69.128906 237.96875 68.640625 242.714844 70.078125 C 249.699219 73.253906 251.78125 80.355469 244.886719 85.453125 Z M 244.3125 66.566406 C 244.261719 66.542969 244.210938 66.535156 244.15625 66.519531 C 244.054688 66.46875 243.949219 66.417969 243.828125 66.382812 C 237.179688 64.28125 226.640625 65.757812 222.964844 72.671875 C 219.136719 79.875 224.859375 87.515625 231.378906 90.648438 C 238.621094 94.125 246.183594 90.984375 250.984375 84.863281 C 256.5 77.847656 251.273438 69.566406 244.3125 66.566406 " fill-opacity="1" fill-rule="nonzero"/><path fill="#f2b0ac" d="M 240.34375 73.253906 C 239.664062 73.019531 238.957031 72.878906 238.257812 72.84375 C 236.335938 72.746094 232.886719 73.519531 231.507812 74.992188 C 227.609375 79.160156 234.050781 84.390625 238.179688 83.960938 C 240.921875 83.671875 243.585938 81.394531 244.085938 78.679688 C 244.574219 75.996094 242.667969 74.058594 240.34375 73.253906 " fill-opacity="1" fill-rule="nonzero"/></svg>