<svg xmlns="http://www.w3.org/2000/svg" xmlns:xlink="http://www.w3.org/1999/xlink" width="800" zoomAndPan="magnify" viewBox="0 0 600 599.999999" height="800" preserveAspectRatio="xMidYMid meet" version="1.0"><defs><clipPath id="bdd22b590f"><path d="M 77.5 222 L 522.25 222 L 522.25 600 L 77.5 600 Z M 77.5 222 " clip-rule="nonzero"/></clipPath><clipPath id="40f67b3e9c"><path d="M 142 222 L 522.25 222 L 522.25 600 L 142 600 Z M 142 222 " clip-rule="nonzero"/></clipPath></defs><path fill="#ecc85f" d="M 195.9375 12.640625 L 252.363281 12.640625 L 252.363281 392.1875 L 195.9375 392.1875 Z M 195.9375 12.640625 " fill-opacity="1" fill-rule="evenodd"/><path fill="#ecc85f" d="M 88.332031 24.664062 L 144.449219 18.808594 L 184.222656 396.199219 L 128.105469 402.054688 Z M 88.332031 24.664062 " fill-opacity="1" fill-rule="evenodd"/><path fill="#ecc85f" d="M 270.863281 18.808594 L 327.285156 18.808594 L 327.285156 398.046875 L 270.863281 398.046875 Z M 270.863281 18.808594 " fill-opacity="1" fill-rule="evenodd"/><path fill="#ffd966" d="M 145.679688 31.140625 L 202.105469 31.140625 L 202.105469 410.6875 L 145.679688 410.6875 Z M 145.679688 31.140625 " fill-opacity="1" fill-rule="evenodd"/><path fill="#ffd966" d="M 444.449219 40.390625 L 500.871094 43.78125 L 477.746094 422.714844 L 421.324219 419.320312 Z M 444.449219 40.390625 " fill-opacity="1" fill-rule="evenodd"/><path fill="#ecc85f" d="M 386.175781 0 L 442.597656 0 L 442.597656 379.546875 L 386.175781 379.546875 Z M 386.175781 0 " fill-opacity="1" fill-rule="evenodd"/><path fill="#ecc85f" d="M 331.292969 28.058594 L 387.714844 28.058594 L 387.714844 407.605469 L 331.292969 407.605469 Z M 331.292969 28.058594 " fill-opacity="1" fill-rule="evenodd"/><path fill="#ffd966" d="M 302.003906 65.054688 L 358.117188 69.988281 L 323.585938 447.996094 L 267.46875 442.753906 Z M 302.003906 65.054688 " fill-opacity="1" fill-rule="evenodd"/><path fill="#ffd966" d="M 370.757812 52.105469 L 427.183594 52.105469 L 427.183594 431.65625 L 370.757812 431.65625 Z M 370.757812 52.105469 " fill-opacity="1" fill-rule="evenodd"/><path fill="#ffd966" d="M 218.753906 50.566406 L 275.179688 50.257812 L 277.644531 429.496094 L 221.222656 429.804688 Z M 218.753906 50.566406 " fill-opacity="1" fill-rule="evenodd"/><g clip-path="url(#bdd22b590f)"><path fill="#ff6b6b" d="M 77.542969 222.300781 L 202.722656 222.300781 C 201.796875 227.542969 201.488281 233.402344 201.488281 239.261719 C 201.488281 293.523438 245.578125 337.925781 299.84375 337.925781 C 354.417969 337.925781 398.507812 293.523438 398.507812 239.261719 C 398.507812 233.402344 398.199219 227.542969 397.273438 222.300781 L 522.453125 222.300781 L 465.105469 600 L 134.890625 600 Z M 77.542969 222.300781 " fill-opacity="1" fill-rule="evenodd"/></g><g clip-path="url(#40f67b3e9c)"><path fill="#d9435e" d="M 499.023438 222.300781 L 522.453125 222.300781 L 465.105469 600 L 142.289062 600 C 142.289062 599.382812 142.90625 598.765625 143.214844 598.148438 C 147.839844 591.058594 161.097656 582.117188 174.972656 575.949219 C 188.847656 569.476562 203.648438 565.777344 230.164062 559.609375 C 256.988281 553.441406 295.527344 544.808594 330.058594 534.636719 C 364.285156 524.460938 394.5 512.4375 414.539062 497.019531 C 434.582031 481.601562 444.449219 462.796875 455.546875 415.003906 C 466.339844 367.214844 478.363281 290.441406 489.773438 248.816406 C 492.855469 237.71875 495.9375 228.777344 499.023438 222.300781 Z M 499.023438 222.300781 " fill-opacity="1" fill-rule="evenodd"/></g></svg>