<svg xmlns="http://www.w3.org/2000/svg" xmlns:xlink="http://www.w3.org/1999/xlink" width="800" zoomAndPan="magnify" viewBox="0 0 600 599.999999" height="800" preserveAspectRatio="xMidYMid meet" version="1.0"><defs><clipPath id="7e1cc1915f"><path d="M 248 95.125 L 303 95.125 L 303 326 L 248 326 Z M 248 95.125 " clip-rule="nonzero"/></clipPath></defs><path fill="#feb83f" d="M 314.625 155.316406 L 290.621094 150.328125 C 288.433594 149.871094 286.398438 151.601562 286.515625 153.835938 L 294.148438 296.835938 C 294.25 298.597656 295.679688 299.992188 297.445312 300.058594 L 316.019531 300.664062 C 317.972656 300.730469 319.570312 299.152344 319.535156 297.203125 L 317.347656 158.59375 C 317.316406 157.011719 316.1875 155.652344 314.625 155.316406 Z M 314.625 155.316406 " fill-opacity="1" fill-rule="nonzero"/><path fill="#feb83f" d="M 138.003906 111.734375 L 163.039062 100.359375 C 165.121094 99.417969 167.507812 100.746094 167.828125 102.996094 L 193.195312 288.972656 L 167.207031 288.972656 L 136.070312 115.429688 C 135.785156 113.902344 136.59375 112.390625 138.003906 111.734375 Z M 138.003906 111.734375 " fill-opacity="1" fill-rule="nonzero"/><path fill="#feb83f" d="M 170.214844 129.039062 L 193.667969 129.039062 C 195.585938 129.039062 197.128906 130.617188 197.082031 132.535156 L 193.296875 274.253906 C 193.246094 276.21875 191.53125 277.746094 189.566406 277.546875 L 173.257812 275.949219 C 171.542969 275.78125 170.234375 274.371094 170.183594 272.640625 L 166.820312 132.515625 C 166.769531 130.617188 168.300781 129.039062 170.214844 129.039062 Z M 170.214844 129.039062 " fill-opacity="1" fill-rule="nonzero"/><path fill="#feb83f" d="M 205.992188 104.558594 L 230.6875 101.132812 C 232.738281 100.847656 234.570312 102.441406 234.554688 104.507812 L 234.132812 282.199219 L 208.140625 275.226562 L 203.03125 108.019531 C 202.996094 106.308594 204.277344 104.792969 205.992188 104.558594 Z M 205.992188 104.558594 " fill-opacity="1" fill-rule="nonzero"/><path fill="#feb83f" d="M 240.402344 152.492188 L 269.519531 150.644531 L 253.128906 296.648438 L 234.636719 296.078125 Z M 240.402344 152.492188 " fill-opacity="1" fill-rule="nonzero"/><path fill="#feb83f" d="M 232.332031 127.730469 L 254.929688 127.089844 C 256.863281 127.039062 258.457031 128.601562 258.425781 130.550781 L 255.988281 282.585938 C 255.953125 284.164062 254.84375 285.527344 253.296875 285.863281 L 238.804688 288.953125 C 236.738281 289.390625 234.773438 287.863281 234.6875 285.746094 L 229.003906 131.257812 C 228.953125 129.359375 230.433594 127.777344 232.332031 127.730469 Z M 232.332031 127.730469 " fill-opacity="1" fill-rule="nonzero"/><path fill="#feb83f" d="M 365.53125 142.648438 L 387.554688 133.742188 C 389.824219 132.820312 392.3125 134.53125 392.246094 137.003906 L 387.789062 294.464844 C 387.753906 295.84375 386.882812 297.050781 385.605469 297.539062 L 369.816406 303.570312 C 367.597656 304.410156 365.226562 302.796875 365.195312 300.429688 L 363.429688 145.855469 C 363.394531 144.445312 364.238281 143.167969 365.53125 142.648438 Z M 365.53125 142.648438 " fill-opacity="1" fill-rule="nonzero"/><path fill="#feb83f" d="M 193.75 171.277344 L 222.988281 171.328125 L 193.550781 334.285156 L 171.257812 331.863281 Z M 193.75 171.277344 " fill-opacity="1" fill-rule="nonzero"/><path fill="#feb83f" d="M 304.890625 212.878906 L 273.890625 206.441406 L 281.910156 356.964844 L 307.179688 357.789062 Z M 304.890625 212.878906 " fill-opacity="1" fill-rule="nonzero"/><g clip-path="url(#7e1cc1915f)"><path fill="#feb83f" d="M 300.589844 105.332031 L 277.640625 96.140625 C 275.539062 95.300781 273.234375 96.695312 272.984375 98.929688 L 248.707031 322.773438 L 273.773438 325.730469 L 302.691406 108.945312 C 302.910156 107.398438 302.035156 105.902344 300.589844 105.332031 Z M 300.589844 105.332031 " fill-opacity="1" fill-rule="nonzero"/></g><path fill="#feb83f" d="M 328.160156 120.722656 L 354.554688 119.460938 C 356.65625 119.363281 358.351562 121.175781 358.101562 123.277344 L 337.035156 297.859375 C 336.832031 299.574219 335.355469 300.867188 333.621094 300.847656 L 315.71875 300.699219 C 313.75 300.679688 312.203125 299 312.355469 297.050781 L 324.914062 123.882812 C 325.050781 122.167969 326.425781 120.804688 328.160156 120.722656 Z M 328.160156 120.722656 " fill-opacity="1" fill-rule="nonzero"/><path fill="#feb83f" d="M 339.976562 172.824219 L 366 165.734375 L 365.582031 298.917969 L 340.5 300.78125 Z M 339.976562 172.824219 " fill-opacity="1" fill-rule="nonzero"/><path fill="#feb83f" d="M 438.558594 130.835938 L 460.597656 131.828125 C 462.785156 131.929688 464.316406 134.046875 463.726562 136.144531 L 420.554688 289.507812 C 420.035156 291.355469 418.101562 292.398438 416.269531 291.84375 L 392.175781 284.417969 C 390.378906 283.863281 389.371094 281.964844 389.925781 280.167969 L 435.128906 133.238281 C 435.601562 131.761719 436.996094 130.769531 438.558594 130.835938 Z M 438.558594 130.835938 " fill-opacity="1" fill-rule="nonzero"/><path fill="#feb83f" d="M 403.777344 105.902344 L 428.050781 99.753906 C 430.441406 99.148438 432.660156 101.199219 432.238281 103.617188 L 399.625 296.96875 L 378.796875 291.222656 L 401.222656 108.777344 C 401.40625 107.398438 402.414062 106.257812 403.777344 105.902344 Z M 403.777344 105.902344 " fill-opacity="1" fill-rule="nonzero"/><path fill="#d27e1c" d="M 166.734375 246.464844 C 166.214844 246.464844 165.777344 246.042969 165.777344 245.507812 L 165.777344 129.039062 C 165.777344 128.519531 166.199219 128.082031 166.734375 128.082031 L 171.375 128.082031 C 171.898438 128.082031 172.316406 128.5 172.316406 129.039062 C 172.316406 129.558594 171.898438 129.996094 171.375 129.996094 L 167.695312 129.996094 L 167.695312 245.523438 C 167.675781 246.027344 167.257812 246.464844 166.734375 246.464844 Z M 166.734375 246.464844 " fill-opacity="1" fill-rule="nonzero"/><path fill="#d27e1c" d="M 294.066406 297.925781 C 293.5625 297.925781 293.140625 297.539062 293.125 297.019531 L 285.390625 149.367188 C 285.375 149.066406 285.492188 148.78125 285.726562 148.597656 C 285.945312 148.410156 286.25 148.328125 286.550781 148.394531 L 297.210938 150.710938 C 297.714844 150.832031 298.050781 151.335938 297.933594 151.839844 C 297.816406 152.34375 297.308594 152.679688 296.804688 152.5625 L 287.359375 150.496094 L 295.023438 296.902344 C 295.058594 297.421875 294.652344 297.875 294.132812 297.890625 C 294.097656 297.925781 294.082031 297.925781 294.066406 297.925781 Z M 294.066406 297.925781 " fill-opacity="1" fill-rule="nonzero"/><path fill="#d27e1c" d="M 314.910156 297.523438 C 314.894531 297.523438 314.878906 297.523438 314.878906 297.523438 C 314.355469 297.507812 313.953125 297.050781 313.96875 296.53125 L 317.28125 214.304688 C 317.300781 213.785156 317.753906 213.363281 318.273438 213.398438 C 318.796875 213.414062 319.199219 213.867188 319.183594 214.390625 L 315.871094 296.617188 C 315.835938 297.121094 315.417969 297.523438 314.910156 297.523438 Z M 314.910156 297.523438 " fill-opacity="1" fill-rule="nonzero"/><path fill="#d27e1c" d="M 340.800781 284.117188 C 340.28125 284.117188 339.859375 283.695312 339.859375 283.175781 L 339.019531 172.722656 C 339.019531 172.285156 339.304688 171.917969 339.726562 171.796875 L 352.300781 168.488281 C 352.804688 168.355469 353.324219 168.65625 353.460938 169.160156 C 353.59375 169.664062 353.292969 170.1875 352.789062 170.320312 L 340.9375 173.445312 L 341.777344 283.15625 C 341.757812 283.679688 341.339844 284.117188 340.800781 284.117188 Z M 340.800781 284.117188 " fill-opacity="1" fill-rule="nonzero"/><path fill="#d27e1c" d="M 363.363281 284.199219 C 363.34375 284.199219 363.34375 284.199219 363.328125 284.199219 C 362.808594 284.183594 362.386719 283.746094 362.402344 283.226562 L 365.683594 165.734375 C 365.699219 165.210938 366.136719 164.792969 366.65625 164.808594 C 367.179688 164.824219 367.597656 165.261719 367.582031 165.785156 L 364.304688 283.273438 C 364.304688 283.78125 363.882812 284.199219 363.363281 284.199219 Z M 363.363281 284.199219 " fill-opacity="1" fill-rule="nonzero"/><path fill="#d27e1c" d="M 388.949219 253.722656 C 388.933594 253.722656 388.933594 253.722656 388.914062 253.722656 C 388.394531 253.703125 387.972656 253.269531 388.007812 252.730469 L 390.699219 178.652344 C 390.714844 178.132812 391.167969 177.710938 391.691406 177.746094 C 392.210938 177.761719 392.632812 178.199219 392.597656 178.738281 L 389.90625 252.816406 C 389.890625 253.320312 389.46875 253.722656 388.949219 253.722656 Z M 388.949219 253.722656 " fill-opacity="1" fill-rule="nonzero"/><path fill="#d27e1c" d="M 405.980469 260.460938 C 405.929688 260.460938 405.863281 260.460938 405.8125 260.441406 C 405.289062 260.359375 404.953125 259.855469 405.039062 259.351562 L 419.949219 174.671875 C 420.035156 174.152344 420.539062 173.816406 421.042969 173.898438 C 421.5625 173.984375 421.898438 174.488281 421.816406 174.992188 L 406.902344 259.667969 C 406.820312 260.125 406.417969 260.460938 405.980469 260.460938 Z M 405.980469 260.460938 " fill-opacity="1" fill-rule="nonzero"/><path fill="#d27e1c" d="M 181.949219 265.113281 C 181.898438 265.113281 181.847656 265.113281 181.816406 265.097656 C 181.292969 265.011719 180.941406 264.542969 181.007812 264.019531 L 194.828125 171.125 C 194.910156 170.605469 195.382812 170.253906 195.902344 170.320312 C 196.425781 170.402344 196.777344 170.875 196.710938 171.394531 L 182.890625 264.289062 C 182.808594 264.777344 182.402344 265.113281 181.949219 265.113281 Z M 181.949219 265.113281 " fill-opacity="1" fill-rule="nonzero"/><path fill="#d27e1c" d="M 203.015625 278.855469 C 202.964844 278.855469 202.898438 278.855469 202.847656 278.839844 C 202.324219 278.738281 201.988281 278.25 202.089844 277.730469 L 221.777344 172.21875 L 205 172.21875 C 204.476562 172.21875 204.039062 171.796875 204.039062 171.277344 C 204.039062 170.757812 204.460938 170.320312 205 170.320312 L 222.917969 170.320312 C 223.207031 170.320312 223.472656 170.4375 223.640625 170.65625 C 223.828125 170.875 223.894531 171.160156 223.84375 171.429688 L 203.941406 278.066406 C 203.855469 278.539062 203.46875 278.855469 203.015625 278.855469 Z M 203.015625 278.855469 " fill-opacity="1" fill-rule="nonzero"/><path fill="#d27e1c" d="M 261.453125 279.863281 C 261.433594 279.863281 261.417969 279.863281 261.402344 279.863281 C 260.878906 279.832031 260.476562 279.378906 260.511719 278.855469 L 269.183594 132.082031 C 269.21875 131.558594 269.671875 131.15625 270.191406 131.191406 C 270.714844 131.222656 271.117188 131.675781 271.085938 132.199219 L 262.410156 278.972656 C 262.359375 279.476562 261.957031 279.863281 261.453125 279.863281 Z M 261.453125 279.863281 " fill-opacity="1" fill-rule="nonzero"/><path fill="#f26053" d="M 396.984375 471.113281 L 188.945312 471.113281 C 180.621094 471.113281 173.644531 465.199219 172.703125 457.371094 L 146.679688 239.609375 C 146.242188 235.996094 149.082031 232.804688 152.714844 232.804688 L 200.023438 232.804688 C 201.6875 232.804688 203.265625 233.476562 204.410156 234.6875 C 257.148438 289.59375 329.132812 291.222656 381.753906 234.753906 C 382.914062 233.511719 384.527344 232.804688 386.226562 232.804688 L 433.195312 232.804688 C 436.84375 232.804688 439.667969 235.996094 439.230469 239.609375 L 413.226562 457.371094 C 412.285156 465.199219 405.308594 471.113281 396.984375 471.113281 Z M 396.984375 471.113281 " fill-opacity="1" fill-rule="nonzero"/><path fill="#faddd5" d="M 341.84375 361.769531 C 341.84375 362.953125 341.761719 364.132812 341.601562 365.308594 C 341.441406 366.484375 341.199219 367.648438 340.878906 368.808594 C 340.558594 369.96875 340.15625 371.113281 339.679688 372.242188 C 339.203125 373.371094 338.648438 374.484375 338.019531 375.574219 C 337.390625 376.667969 336.6875 377.734375 335.910156 378.777344 C 335.132812 379.816406 334.289062 380.828125 333.375 381.8125 C 332.460938 382.792969 331.480469 383.742188 330.4375 384.65625 C 329.394531 385.570312 328.289062 386.441406 327.125 387.277344 C 325.960938 388.113281 324.746094 388.90625 323.472656 389.65625 C 322.199219 390.40625 320.878906 391.109375 319.511719 391.765625 C 318.144531 392.421875 316.734375 393.027344 315.28125 393.585938 C 313.832031 394.140625 312.34375 394.644531 310.824219 395.097656 C 309.304688 395.550781 307.753906 395.949219 306.179688 396.289062 C 304.605469 396.632812 303.011719 396.921875 301.398438 397.152344 C 299.785156 397.382812 298.15625 397.554688 296.519531 397.671875 C 294.882812 397.785156 293.238281 397.84375 291.59375 397.84375 C 289.949219 397.84375 288.308594 397.785156 286.667969 397.671875 C 285.03125 397.554688 283.40625 397.382812 281.792969 397.152344 C 280.175781 396.921875 278.582031 396.632812 277.007812 396.289062 C 275.433594 395.949219 273.886719 395.550781 272.363281 395.097656 C 270.84375 394.644531 269.359375 394.140625 267.90625 393.585938 C 266.457031 393.027344 265.046875 392.421875 263.675781 391.765625 C 262.308594 391.109375 260.988281 390.40625 259.714844 389.65625 C 258.445312 388.90625 257.226562 388.113281 256.0625 387.277344 C 254.898438 386.441406 253.796875 385.570312 252.75 384.65625 C 251.707031 383.742188 250.726562 382.792969 249.8125 381.8125 C 248.898438 380.828125 248.054688 379.816406 247.277344 378.777344 C 246.503906 377.734375 245.800781 376.667969 245.167969 375.574219 C 244.539062 374.484375 243.988281 373.371094 243.507812 372.242188 C 243.03125 371.113281 242.632812 369.96875 242.308594 368.808594 C 241.988281 367.648438 241.75 366.484375 241.585938 365.308594 C 241.425781 364.132812 241.34375 362.953125 241.34375 361.769531 C 241.34375 360.589844 241.425781 359.410156 241.585938 358.234375 C 241.75 357.058594 241.988281 355.890625 242.308594 354.734375 C 242.632812 353.574219 243.03125 352.429688 243.507812 351.300781 C 243.988281 350.167969 244.539062 349.058594 245.167969 347.96875 C 245.800781 346.875 246.503906 345.808594 247.277344 344.765625 C 248.054688 343.726562 248.898438 342.710938 249.8125 341.730469 C 250.726562 340.75 251.707031 339.800781 252.75 338.886719 C 253.796875 337.972656 254.898438 337.097656 256.0625 336.265625 C 257.226562 335.429688 258.445312 334.636719 259.714844 333.886719 C 260.988281 333.136719 262.308594 332.433594 263.675781 331.777344 C 265.046875 331.121094 266.457031 330.515625 267.90625 329.957031 C 269.359375 329.402344 270.84375 328.898438 272.363281 328.445312 C 273.886719 327.992188 275.433594 327.59375 277.007812 327.253906 C 278.582031 326.910156 280.175781 326.621094 281.792969 326.390625 C 283.40625 326.160156 285.03125 325.988281 286.667969 325.871094 C 288.308594 325.757812 289.949219 325.699219 291.59375 325.699219 C 293.238281 325.699219 294.882812 325.757812 296.519531 325.871094 C 298.15625 325.988281 299.785156 326.160156 301.398438 326.390625 C 303.011719 326.621094 304.605469 326.910156 306.179688 327.253906 C 307.753906 327.59375 309.304688 327.992188 310.824219 328.445312 C 312.34375 328.898438 313.832031 329.402344 315.28125 329.957031 C 316.734375 330.515625 318.144531 331.121094 319.511719 331.777344 C 320.878906 332.433594 322.199219 333.136719 323.472656 333.886719 C 324.746094 334.636719 325.960938 335.429688 327.125 336.265625 C 328.289062 337.097656 329.394531 337.972656 330.4375 338.886719 C 331.480469 339.800781 332.460938 340.75 333.375 341.730469 C 334.289062 342.710938 335.132812 343.726562 335.910156 344.765625 C 336.6875 345.808594 337.390625 346.875 338.019531 347.96875 C 338.648438 349.058594 339.203125 350.167969 339.679688 351.300781 C 340.15625 352.429688 340.558594 353.574219 340.878906 354.734375 C 341.199219 355.890625 341.441406 357.058594 341.601562 358.234375 C 341.761719 359.410156 341.84375 360.589844 341.84375 361.769531 Z M 341.84375 361.769531 " fill-opacity="1" fill-rule="nonzero"/><path fill="#d27e1c" d="M 235.929688 266.238281 C 235.410156 266.238281 234.988281 265.820312 234.988281 265.296875 L 233.710938 127.660156 C 233.710938 127.140625 234.132812 126.703125 234.652344 126.703125 C 234.652344 126.703125 234.652344 126.703125 234.671875 126.703125 C 235.191406 126.703125 235.613281 127.125 235.613281 127.644531 L 236.890625 265.28125 C 236.875 265.800781 236.453125 266.238281 235.929688 266.238281 Z M 235.929688 266.238281 " fill-opacity="1" fill-rule="nonzero"/><path fill="#e95f42" d="M 598.46875 197.117188 L 600.015625 378.910156 C 600.085938 387.542969 591.660156 394.617188 581.1875 394.71875 L 494.59375 395.457031 C 488.035156 395.507812 482.234375 392.820312 478.789062 388.6875 C 476.722656 386.21875 475.511719 383.210938 475.496094 379.984375 L 473.949219 198.195312 C 473.949219 198.058594 473.949219 197.941406 473.949219 197.808594 C 473.980469 196.613281 474.316406 195.453125 474.839844 194.378906 L 484.625 174.519531 L 587.375 173.648438 L 596.824219 192.027344 L 597.496094 193.355469 C 598.03125 194.414062 598.386719 195.574219 598.4375 196.75 C 598.453125 196.867188 598.453125 197 598.46875 197.117188 Z M 598.46875 197.117188 " fill-opacity="1" fill-rule="nonzero"/><path fill="#ffe5de" d="M 562.089844 349.269531 C 560.878906 365.703125 557.367188 380.976562 551.582031 394.96875 L 514.800781 395.289062 C 533.949219 363.066406 534.753906 319.785156 517.136719 266.273438 C 506.378906 233.59375 506.34375 199.015625 508.546875 174.300781 L 541.597656 174.015625 C 541.292969 177.039062 541.007812 180.265625 540.789062 183.644531 C 539.5625 202.496094 539.882812 230.351562 548.339844 256.007812 C 559.535156 289.960938 564.15625 321.347656 562.089844 349.269531 Z M 562.089844 349.269531 " fill-opacity="1" fill-rule="nonzero"/><path fill="#ffe5de" d="M 589.308594 348.210938 C 588.0625 365.113281 584.214844 380.65625 577.824219 394.753906 L 563.738281 394.871094 C 581.589844 360.761719 581.710938 316.492188 564.023438 262.792969 C 559.738281 249.789062 556.914062 235.339844 555.617188 219.832031 C 554.59375 207.519531 554.523438 194.496094 555.433594 181.140625 C 555.601562 178.636719 555.804688 176.21875 556.003906 173.898438 L 568.730469 173.796875 C 568.460938 176.484375 568.226562 179.308594 568.042969 182.25 C 566.714844 202.109375 567.03125 231.527344 576.042969 258.847656 C 586.804688 291.542969 591.273438 321.617188 589.308594 348.210938 Z M 589.308594 348.210938 " fill-opacity="1" fill-rule="nonzero"/><path fill="#e0d6cd" d="M 589.8125 175.476562 C 588.988281 175.914062 588.0625 176.167969 587.070312 176.167969 L 485.78125 177.023438 C 482.503906 177.058594 479.816406 174.417969 479.796875 171.144531 C 479.765625 167.867188 482.402344 165.179688 485.683594 165.160156 L 586.972656 164.304688 C 590.25 164.273438 592.9375 166.910156 592.957031 170.1875 C 592.988281 172.488281 591.695312 174.488281 589.8125 175.476562 Z M 589.8125 175.476562 " fill-opacity="1" fill-rule="nonzero"/><path fill="#e0d6cd" d="M 507 135.625 C 487.3125 127.542969 480.234375 155.585938 498.441406 159.617188 C 515.304688 163.347656 519.945312 175.964844 526.515625 170.503906 C 526.515625 170.503906 529.390625 169.296875 530.214844 166.238281 C 531.054688 163.179688 526.683594 143.707031 507 135.625 Z M 510.578125 148.679688 C 509.570312 152.410156 505.417969 154.695312 501.316406 153.789062 C 497.214844 152.878906 494.710938 149.101562 495.71875 145.371094 C 496.726562 141.640625 500.878906 139.355469 504.980469 140.261719 C 509.082031 141.167969 511.589844 144.949219 510.578125 148.679688 Z M 523.441406 159.398438 C 522.820312 161.683594 520.28125 163.09375 517.757812 162.523438 C 515.238281 161.96875 513.707031 159.652344 514.328125 157.367188 C 514.949219 155.082031 517.488281 153.667969 520.011719 154.242188 C 522.515625 154.8125 524.0625 157.113281 523.441406 159.398438 Z M 523.441406 159.398438 " fill-opacity="1" fill-rule="nonzero"/><path fill="#e0d6cd" d="M 592.164062 402.53125 C 591.34375 402.96875 590.417969 403.21875 589.425781 403.21875 L 486.472656 404.09375 C 483.195312 404.128906 480.503906 401.488281 480.488281 398.214844 C 480.453125 394.9375 483.09375 392.25 486.371094 392.230469 L 589.324219 391.359375 C 592.601562 391.324219 595.292969 393.960938 595.308594 397.238281 C 595.328125 399.523438 594.046875 401.523438 592.164062 402.53125 Z M 592.164062 402.53125 " fill-opacity="1" fill-rule="nonzero"/><path fill="#f09159" d="M 551.582031 478.054688 C 494.742188 493.511719 439.0625 493.996094 384.5625 479.398438 C 367.546875 474.84375 355.761719 460.058594 355.664062 443.15625 L 355.664062 442.71875 L 580.480469 441.324219 C 580.597656 458.394531 568.746094 473.382812 551.582031 478.054688 Z M 551.582031 478.054688 " fill-opacity="1" fill-rule="nonzero"/><path fill="#baa532" d="M 351.847656 425.261719 C 351.847656 425.261719 343.355469 433.546875 346.652344 442.789062 C 350.28125 453.003906 363.632812 462.746094 370.640625 463.570312 C 383.988281 465.148438 391.65625 456.210938 400.835938 457.824219 C 410.015625 459.4375 410.636719 473.230469 423.144531 473.988281 C 435.652344 474.742188 434.777344 467.25 443.117188 468.023438 C 451.453125 468.8125 454.195312 477.363281 460.867188 477.3125 C 467.542969 477.261719 478.03125 465.554688 485.714844 465.503906 C 495.535156 465.433594 505.605469 476.910156 515.742188 476.976562 C 526.179688 477.027344 537.277344 456.597656 546.457031 457.386719 C 555.632812 458.175781 566.308594 463.621094 575.824219 459.65625 C 586.128906 455.355469 594.300781 440.285156 593.425781 432.789062 C 592.550781 425.296875 584.582031 418.8125 584.582031 418.8125 Z M 351.847656 425.261719 " fill-opacity="1" fill-rule="nonzero"/><path fill="#bd5937" d="M 551.851562 447.273438 C 494.472656 458.34375 437.617188 459 381.316406 448.582031 C 360.519531 444.734375 346.820312 425.550781 346.667969 402.496094 L 345.121094 401.976562 C 424.992188 428.050781 505.671875 420.929688 587.625 394.652344 L 587.695312 399.894531 C 587.945312 423.148438 572.800781 443.222656 551.851562 447.273438 Z M 551.851562 447.273438 " fill-opacity="1" fill-rule="nonzero"/><path fill="#ffb441" d="M 453.4375 432.859375 L 533.660156 452.800781 C 535.929688 454.28125 538.941406 453.84375 540.6875 451.757812 L 586.046875 393.878906 L 580.128906 390.6875 Z M 453.4375 432.859375 " fill-opacity="1" fill-rule="nonzero"/><path fill="#ffb441" d="M 346.667969 402.515625 L 390.210938 455.503906 L 457.035156 414.023438 Z M 346.667969 402.515625 " fill-opacity="1" fill-rule="nonzero"/><path fill="#b63e30" d="M 444.65625 395.660156 C 444.664062 396.507812 444.589844 397.355469 444.433594 398.199219 C 444.28125 399.046875 444.046875 399.882812 443.734375 400.71875 C 443.421875 401.550781 443.03125 402.375 442.5625 403.191406 C 442.09375 404.003906 441.550781 404.804688 440.933594 405.59375 C 440.316406 406.378906 439.625 407.148438 438.863281 407.902344 C 438.097656 408.65625 437.265625 409.386719 436.367188 410.097656 C 435.464844 410.808594 434.5 411.492188 433.472656 412.15625 C 432.441406 412.816406 431.355469 413.453125 430.207031 414.058594 C 429.058594 414.664062 427.855469 415.242188 426.601562 415.789062 C 425.34375 416.332031 424.042969 416.847656 422.691406 417.324219 C 421.339844 417.804688 419.945312 418.25 418.511719 418.65625 C 417.078125 419.066406 415.609375 419.4375 414.109375 419.769531 C 412.605469 420.105469 411.074219 420.398438 409.519531 420.65625 C 407.960938 420.910156 406.382812 421.128906 404.789062 421.300781 C 403.191406 421.476562 401.582031 421.613281 399.964844 421.707031 C 398.34375 421.796875 396.71875 421.851562 395.089844 421.859375 C 393.460938 421.871094 391.835938 421.839844 390.214844 421.765625 C 388.59375 421.691406 386.984375 421.578125 385.386719 421.421875 C 383.785156 421.265625 382.207031 421.070312 380.648438 420.835938 C 379.085938 420.597656 377.554688 420.324219 376.046875 420.007812 C 374.539062 419.691406 373.066406 419.339844 371.628906 418.949219 C 370.191406 418.558594 368.792969 418.128906 367.433594 417.667969 C 366.078125 417.207031 364.769531 416.707031 363.507812 416.179688 C 362.242188 415.648438 361.035156 415.085938 359.878906 414.496094 C 358.722656 413.902344 357.628906 413.28125 356.589844 412.632812 C 355.554688 411.984375 354.582031 411.308594 353.671875 410.609375 C 352.761719 409.910156 351.921875 409.1875 351.148438 408.445312 C 350.375 407.703125 349.675781 406.941406 349.046875 406.160156 C 348.417969 405.382812 347.867188 404.589844 347.390625 403.78125 C 346.910156 402.972656 346.511719 402.152344 346.1875 401.324219 C 345.863281 400.492188 345.621094 399.65625 345.457031 398.8125 C 345.292969 397.972656 345.207031 397.125 345.199219 396.277344 C 345.195312 395.429688 345.269531 394.582031 345.425781 393.738281 C 345.578125 392.894531 345.8125 392.054688 346.125 391.21875 C 346.4375 390.386719 346.828125 389.5625 347.296875 388.75 C 347.761719 387.933594 348.304688 387.132812 348.925781 386.347656 C 349.542969 385.558594 350.234375 384.789062 350.996094 384.035156 C 351.761719 383.285156 352.59375 382.550781 353.492188 381.839844 C 354.394531 381.128906 355.359375 380.445312 356.386719 379.78125 C 357.417969 379.121094 358.503906 378.484375 359.652344 377.878906 C 360.800781 377.273438 362.003906 376.695312 363.257812 376.152344 C 364.511719 375.605469 365.816406 375.09375 367.167969 374.613281 C 368.519531 374.132812 369.910156 373.6875 371.347656 373.28125 C 372.78125 372.871094 374.25 372.5 375.75 372.167969 C 377.253906 371.832031 378.785156 371.539062 380.339844 371.28125 C 381.898438 371.027344 383.472656 370.8125 385.070312 370.636719 C 386.667969 370.460938 388.273438 370.328125 389.894531 370.234375 C 391.515625 370.140625 393.140625 370.089844 394.769531 370.078125 C 396.398438 370.066406 398.023438 370.101562 399.644531 370.171875 C 401.265625 370.246094 402.875 370.359375 404.472656 370.515625 C 406.070312 370.671875 407.652344 370.867188 409.210938 371.105469 C 410.769531 371.339844 412.304688 371.617188 413.8125 371.929688 C 415.316406 372.246094 416.789062 372.597656 418.230469 372.992188 C 419.667969 373.382812 421.066406 373.808594 422.421875 374.269531 C 423.78125 374.734375 425.089844 375.230469 426.351562 375.761719 C 427.613281 376.289062 428.824219 376.851562 429.980469 377.445312 C 431.132812 378.035156 432.230469 378.65625 433.269531 379.304688 C 434.304688 379.957031 435.277344 380.628906 436.1875 381.328125 C 437.097656 382.027344 437.9375 382.75 438.710938 383.492188 C 439.480469 384.234375 440.183594 384.996094 440.8125 385.777344 C 441.4375 386.554688 441.992188 387.351562 442.46875 388.160156 C 442.949219 388.96875 443.347656 389.785156 443.671875 390.617188 C 443.992188 391.445312 444.238281 392.28125 444.402344 393.125 C 444.566406 393.96875 444.652344 394.8125 444.65625 395.660156 Z M 444.65625 395.660156 " fill-opacity="1" fill-rule="nonzero"/><path fill="#b63e30" d="M 508.628906 411.238281 C 508.632812 412.085938 508.554688 412.933594 508.394531 413.777344 C 508.230469 414.625 507.984375 415.464844 507.660156 416.296875 C 507.332031 417.128906 506.921875 417.953125 506.433594 418.769531 C 505.941406 419.582031 505.375 420.382812 504.726562 421.171875 C 504.078125 421.960938 503.355469 422.730469 502.554688 423.480469 C 501.757812 424.234375 500.886719 424.96875 499.941406 425.679688 C 499 426.390625 497.988281 427.074219 496.910156 427.738281 C 495.832031 428.398438 494.695312 429.035156 493.492188 429.640625 C 492.289062 430.25 491.03125 430.824219 489.714844 431.371094 C 488.402344 431.917969 487.035156 432.429688 485.621094 432.910156 C 484.207031 433.390625 482.75 433.835938 481.246094 434.242188 C 479.746094 434.652344 478.207031 435.023438 476.636719 435.359375 C 475.0625 435.691406 473.460938 435.988281 471.828125 436.246094 C 470.199219 436.5 468.550781 436.714844 466.878906 436.890625 C 465.207031 437.066406 463.523438 437.203125 461.824219 437.296875 C 460.128906 437.390625 458.429688 437.441406 456.722656 437.453125 C 455.019531 437.464844 453.316406 437.433594 451.621094 437.359375 C 449.921875 437.289062 448.234375 437.171875 446.5625 437.019531 C 444.890625 436.863281 443.234375 436.667969 441.601562 436.433594 C 439.96875 436.195312 438.363281 435.921875 436.785156 435.605469 C 435.210938 435.289062 433.667969 434.9375 432.160156 434.546875 C 430.65625 434.15625 429.191406 433.730469 427.769531 433.269531 C 426.347656 432.804688 424.980469 432.308594 423.65625 431.78125 C 422.335938 431.25 421.070312 430.691406 419.859375 430.097656 C 418.652344 429.503906 417.503906 428.886719 416.417969 428.238281 C 415.332031 427.585938 414.3125 426.914062 413.363281 426.214844 C 412.410156 425.515625 411.53125 424.792969 410.722656 424.050781 C 409.914062 423.308594 409.179688 422.546875 408.523438 421.769531 C 407.863281 420.988281 407.285156 420.195312 406.785156 419.386719 C 406.285156 418.578125 405.867188 417.757812 405.527344 416.929688 C 405.191406 416.101562 404.9375 415.265625 404.765625 414.421875 C 404.589844 413.578125 404.503906 412.734375 404.496094 411.882812 C 404.492188 411.035156 404.570312 410.191406 404.734375 409.34375 C 404.894531 408.5 405.140625 407.660156 405.464844 406.828125 C 405.792969 405.992188 406.203125 405.167969 406.691406 404.355469 C 407.183594 403.539062 407.75 402.738281 408.398438 401.953125 C 409.046875 401.164062 409.769531 400.394531 410.570312 399.640625 C 411.367188 398.890625 412.238281 398.15625 413.183594 397.445312 C 414.125 396.734375 415.136719 396.046875 416.214844 395.386719 C 417.292969 394.722656 418.429688 394.089844 419.632812 393.484375 C 420.835938 392.875 422.09375 392.300781 423.410156 391.753906 C 424.722656 391.207031 426.089844 390.695312 427.503906 390.214844 C 428.917969 389.734375 430.375 389.289062 431.878906 388.878906 C 433.378906 388.472656 434.917969 388.101562 436.488281 387.765625 C 438.0625 387.429688 439.664062 387.136719 441.296875 386.878906 C 442.925781 386.625 444.578125 386.40625 446.246094 386.230469 C 447.917969 386.054688 449.601562 385.921875 451.300781 385.828125 C 452.996094 385.734375 454.695312 385.683594 456.402344 385.671875 C 458.105469 385.660156 459.808594 385.691406 461.507812 385.765625 C 463.203125 385.835938 464.890625 385.949219 466.5625 386.105469 C 468.234375 386.261719 469.890625 386.457031 471.523438 386.691406 C 473.15625 386.929688 474.761719 387.203125 476.339844 387.519531 C 477.914062 387.832031 479.457031 388.1875 480.964844 388.578125 C 482.46875 388.964844 483.933594 389.394531 485.355469 389.855469 C 486.777344 390.316406 488.148438 390.8125 489.46875 391.34375 C 490.789062 391.875 492.054688 392.433594 493.265625 393.027344 C 494.472656 393.617188 495.621094 394.238281 496.707031 394.886719 C 497.792969 395.535156 498.8125 396.210938 499.765625 396.910156 C 500.714844 397.609375 501.59375 398.328125 502.402344 399.074219 C 503.210938 399.816406 503.945312 400.578125 504.601562 401.355469 C 505.261719 402.136719 505.839844 402.929688 506.339844 403.738281 C 506.839844 404.546875 507.257812 405.363281 507.597656 406.195312 C 507.933594 407.023438 508.1875 407.859375 508.359375 408.703125 C 508.535156 409.546875 508.621094 410.390625 508.628906 411.238281 Z M 508.628906 411.238281 " fill-opacity="1" fill-rule="nonzero"/><path fill="#b63e30" d="M 586.9375 381.996094 C 587.25 382.773438 587.480469 383.582031 587.632812 384.421875 C 587.785156 385.261719 587.855469 386.125 587.847656 387.011719 C 587.839844 387.902344 587.75 388.8125 587.582031 389.742188 C 587.414062 390.671875 587.167969 391.621094 586.84375 392.585938 C 586.515625 393.550781 586.113281 394.523438 585.632812 395.511719 C 585.152344 396.5 584.59375 397.496094 583.960938 398.496094 C 583.332031 399.5 582.628906 400.503906 581.851562 401.511719 C 581.074219 402.515625 580.230469 403.519531 579.316406 404.523438 C 578.40625 405.523438 577.429688 406.519531 576.386719 407.503906 C 575.347656 408.492188 574.246094 409.464844 573.085938 410.429688 C 571.925781 411.390625 570.714844 412.335938 569.449219 413.265625 C 568.183594 414.195312 566.871094 415.101562 565.507812 415.988281 C 564.148438 416.875 562.746094 417.734375 561.304688 418.570312 C 559.863281 419.40625 558.386719 420.210938 556.875 420.988281 C 555.367188 421.765625 553.828125 422.507812 552.265625 423.21875 C 550.703125 423.929688 549.121094 424.601562 547.519531 425.238281 C 545.917969 425.875 544.304688 426.472656 542.679688 427.027344 C 541.058594 427.585938 539.429688 428.101562 537.796875 428.574219 C 536.167969 429.046875 534.539062 429.472656 532.917969 429.855469 C 531.296875 430.238281 529.683594 430.574219 528.085938 430.863281 C 526.488281 431.152344 524.910156 431.394531 523.351562 431.589844 C 521.792969 431.78125 520.261719 431.929688 518.757812 432.023438 C 517.253906 432.121094 515.785156 432.167969 514.351562 432.164062 C 512.914062 432.160156 511.523438 432.109375 510.171875 432.007812 C 508.820312 431.90625 507.515625 431.757812 506.257812 431.558594 C 505.003906 431.359375 503.800781 431.113281 502.65625 430.816406 C 501.507812 430.523438 500.417969 430.183594 499.390625 429.792969 C 498.363281 429.40625 497.398438 428.976562 496.496094 428.496094 C 495.597656 428.019531 494.769531 427.503906 494.007812 426.941406 C 493.246094 426.378906 492.554688 425.777344 491.9375 425.136719 C 491.320312 424.496094 490.78125 423.820312 490.3125 423.105469 C 489.847656 422.394531 489.460938 421.644531 489.148438 420.867188 C 488.839844 420.085938 488.609375 419.277344 488.457031 418.4375 C 488.304688 417.601562 488.234375 416.738281 488.242188 415.847656 C 488.25 414.960938 488.335938 414.050781 488.503906 413.117188 C 488.671875 412.1875 488.917969 411.238281 489.246094 410.277344 C 489.570312 409.3125 489.976562 408.335938 490.457031 407.347656 C 490.9375 406.359375 491.496094 405.367188 492.125 404.363281 C 492.757812 403.363281 493.460938 402.359375 494.238281 401.351562 C 495.011719 400.34375 495.859375 399.339844 496.769531 398.339844 C 497.683594 397.335938 498.660156 396.34375 499.703125 395.355469 C 500.742188 394.371094 501.84375 393.394531 503 392.433594 C 504.160156 391.46875 505.375 390.523438 506.640625 389.597656 C 507.90625 388.667969 509.21875 387.757812 510.578125 386.871094 C 511.941406 385.984375 513.339844 385.125 514.785156 384.289062 C 516.226562 383.453125 517.703125 382.648438 519.210938 381.871094 C 520.722656 381.09375 522.257812 380.351562 523.824219 379.640625 C 525.386719 378.933594 526.96875 378.257812 528.570312 377.621094 C 530.171875 376.984375 531.78125 376.390625 533.40625 375.832031 C 535.03125 375.273438 536.660156 374.761719 538.289062 374.289062 C 539.921875 373.816406 541.546875 373.390625 543.171875 373.007812 C 544.792969 372.625 546.402344 372.285156 548 371.996094 C 549.597656 371.707031 551.179688 371.464844 552.738281 371.273438 C 554.296875 371.078125 555.828125 370.933594 557.328125 370.835938 C 558.832031 370.742188 560.304688 370.695312 561.738281 370.695312 C 563.171875 370.699219 564.566406 370.75 565.917969 370.851562 C 567.269531 370.953125 568.574219 371.105469 569.828125 371.304688 C 571.085938 371.5 572.285156 371.75 573.433594 372.042969 C 574.582031 372.339844 575.671875 372.679688 576.699219 373.066406 C 577.726562 373.453125 578.691406 373.886719 579.589844 374.363281 C 580.488281 374.839844 581.320312 375.359375 582.082031 375.921875 C 582.84375 376.480469 583.535156 377.082031 584.152344 377.722656 C 584.765625 378.363281 585.308594 379.042969 585.773438 379.753906 C 586.238281 380.46875 586.628906 381.214844 586.9375 381.996094 Z M 586.9375 381.996094 " fill-opacity="1" fill-rule="nonzero"/><path fill="#f26053" d="M 444.390625 393.8125 C 444.394531 394.660156 444.320312 395.507812 444.164062 396.351562 C 444.011719 397.195312 443.777344 398.035156 443.464844 398.871094 C 443.152344 399.703125 442.761719 400.527344 442.292969 401.34375 C 441.828125 402.15625 441.285156 402.957031 440.664062 403.746094 C 440.046875 404.53125 439.355469 405.300781 438.59375 406.054688 C 437.828125 406.808594 436.996094 407.539062 436.097656 408.25 C 435.195312 408.960938 434.230469 409.644531 433.203125 410.308594 C 432.171875 410.96875 431.085938 411.605469 429.9375 412.210938 C 428.789062 412.816406 427.585938 413.394531 426.332031 413.941406 C 425.078125 414.484375 423.773438 414.996094 422.421875 415.476562 C 421.070312 415.957031 419.679688 416.402344 418.242188 416.808594 C 416.808594 417.21875 415.34375 417.589844 413.839844 417.921875 C 412.335938 418.257812 410.808594 418.550781 409.25 418.808594 C 407.691406 419.0625 406.117188 419.277344 404.519531 419.453125 C 402.921875 419.628906 401.316406 419.765625 399.695312 419.855469 C 398.074219 419.949219 396.449219 420 394.820312 420.011719 C 393.191406 420.023438 391.566406 419.992188 389.945312 419.917969 C 388.324219 419.84375 386.714844 419.730469 385.117188 419.574219 C 383.519531 419.417969 381.9375 419.222656 380.378906 418.988281 C 378.820312 418.75 377.285156 418.472656 375.777344 418.160156 C 374.273438 417.84375 372.800781 417.492188 371.359375 417.101562 C 369.921875 416.710938 368.523438 416.28125 367.167969 415.820312 C 365.808594 415.355469 364.5 414.859375 363.238281 414.332031 C 361.976562 413.800781 360.765625 413.238281 359.609375 412.648438 C 358.457031 412.054688 357.359375 411.433594 356.320312 410.785156 C 355.285156 410.136719 354.3125 409.460938 353.402344 408.761719 C 352.492188 408.0625 351.652344 407.339844 350.878906 406.597656 C 350.109375 405.855469 349.40625 405.09375 348.777344 404.3125 C 348.152344 403.535156 347.597656 402.738281 347.121094 401.929688 C 346.640625 401.125 346.242188 400.304688 345.917969 399.472656 C 345.597656 398.644531 345.351562 397.808594 345.1875 396.964844 C 345.023438 396.121094 344.9375 395.277344 344.933594 394.429688 C 344.925781 393.582031 345 392.734375 345.15625 391.890625 C 345.308594 391.046875 345.542969 390.207031 345.855469 389.371094 C 346.167969 388.539062 346.558594 387.714844 347.027344 386.898438 C 347.496094 386.085938 348.039062 385.285156 348.65625 384.496094 C 349.273438 383.710938 349.964844 382.941406 350.730469 382.1875 C 351.492188 381.433594 352.324219 380.703125 353.222656 379.992188 C 354.125 379.28125 355.089844 378.597656 356.117188 377.933594 C 357.148438 377.273438 358.234375 376.636719 359.382812 376.03125 C 360.53125 375.425781 361.734375 374.847656 362.988281 374.300781 C 364.246094 373.757812 365.546875 373.246094 366.898438 372.765625 C 368.25 372.285156 369.644531 371.839844 371.078125 371.433594 C 372.511719 371.023438 373.980469 370.652344 375.480469 370.320312 C 376.984375 369.984375 378.515625 369.691406 380.070312 369.433594 C 381.628906 369.179688 383.207031 368.964844 384.800781 368.789062 C 386.398438 368.613281 388.007812 368.476562 389.625 368.386719 C 391.246094 368.292969 392.871094 368.242188 394.5 368.230469 C 396.128906 368.21875 397.753906 368.25 399.375 368.324219 C 400.996094 368.398438 402.605469 368.511719 404.203125 368.667969 C 405.804688 368.824219 407.382812 369.019531 408.941406 369.253906 C 410.503906 369.492188 412.035156 369.769531 413.542969 370.082031 C 415.050781 370.398438 416.523438 370.75 417.960938 371.140625 C 419.398438 371.53125 420.796875 371.960938 422.15625 372.421875 C 423.511719 372.886719 424.820312 373.382812 426.082031 373.910156 C 427.347656 374.441406 428.554688 375.003906 429.710938 375.59375 C 430.867188 376.1875 431.960938 376.808594 433 377.457031 C 434.035156 378.105469 435.007812 378.78125 435.917969 379.480469 C 436.828125 380.179688 437.667969 380.902344 438.441406 381.644531 C 439.214844 382.386719 439.914062 383.148438 440.542969 383.929688 C 441.171875 384.707031 441.722656 385.503906 442.199219 386.308594 C 442.679688 387.117188 443.078125 387.9375 443.402344 388.769531 C 443.726562 389.597656 443.96875 390.433594 444.132812 391.277344 C 444.296875 392.121094 444.382812 392.964844 444.390625 393.8125 Z M 444.390625 393.8125 " fill-opacity="1" fill-rule="nonzero"/><path fill="#f26053" d="M 508.355469 409.390625 C 508.363281 410.238281 508.285156 411.085938 508.121094 411.929688 C 507.960938 412.773438 507.714844 413.613281 507.386719 414.445312 C 507.0625 415.28125 506.652344 416.105469 506.160156 416.917969 C 505.671875 417.734375 505.101562 418.535156 504.457031 419.320312 C 503.808594 420.109375 503.085938 420.878906 502.285156 421.632812 C 501.484375 422.386719 500.613281 423.117188 499.671875 423.828125 C 498.730469 424.539062 497.71875 425.226562 496.640625 425.886719 C 495.5625 426.550781 494.421875 427.183594 493.222656 427.792969 C 492.019531 428.398438 490.761719 428.976562 489.445312 429.519531 C 488.132812 430.066406 486.765625 430.582031 485.351562 431.058594 C 483.9375 431.539062 482.476562 431.984375 480.976562 432.394531 C 479.476562 432.804688 477.9375 433.175781 476.363281 433.507812 C 474.792969 433.84375 473.191406 434.136719 471.558594 434.394531 C 469.929688 434.652344 468.277344 434.867188 466.605469 435.042969 C 464.9375 435.21875 463.25 435.351562 461.554688 435.445312 C 459.859375 435.539062 458.15625 435.59375 456.453125 435.601562 C 454.746094 435.613281 453.046875 435.582031 451.347656 435.511719 C 449.652344 435.4375 447.964844 435.324219 446.292969 435.167969 C 444.617188 435.011719 442.964844 434.816406 441.332031 434.582031 C 439.699219 434.347656 438.09375 434.070312 436.515625 433.753906 C 434.9375 433.441406 433.398438 433.089844 431.890625 432.699219 C 430.382812 432.308594 428.921875 431.882812 427.5 431.417969 C 426.078125 430.957031 424.707031 430.460938 423.386719 429.929688 C 422.066406 429.402344 420.800781 428.839844 419.589844 428.246094 C 418.378906 427.65625 417.234375 427.035156 416.148438 426.386719 C 415.0625 425.738281 414.042969 425.0625 413.089844 424.363281 C 412.140625 423.664062 411.257812 422.945312 410.449219 422.203125 C 409.640625 421.457031 408.910156 420.699219 408.25 419.917969 C 407.59375 419.140625 407.015625 418.34375 406.515625 417.535156 C 406.015625 416.726562 405.597656 415.910156 405.257812 415.078125 C 404.921875 414.25 404.667969 413.414062 404.492188 412.570312 C 404.320312 411.726562 404.234375 410.882812 404.226562 410.035156 C 404.222656 409.1875 404.300781 408.339844 404.460938 407.496094 C 404.625 406.652344 404.867188 405.8125 405.195312 404.976562 C 405.523438 404.144531 405.933594 403.320312 406.421875 402.503906 C 406.914062 401.691406 407.480469 400.890625 408.128906 400.101562 C 408.777344 399.316406 409.5 398.542969 410.300781 397.792969 C 411.097656 397.039062 411.96875 396.308594 412.914062 395.597656 C 413.855469 394.886719 414.867188 394.199219 415.945312 393.535156 C 417.019531 392.875 418.160156 392.238281 419.363281 391.632812 C 420.566406 391.027344 421.824219 390.449219 423.136719 389.902344 C 424.453125 389.355469 425.816406 388.84375 427.234375 388.363281 C 428.648438 387.882812 430.105469 387.441406 431.605469 387.03125 C 433.109375 386.621094 434.644531 386.25 436.21875 385.914062 C 437.792969 385.582031 439.394531 385.285156 441.023438 385.03125 C 442.65625 384.773438 444.304688 384.558594 445.976562 384.382812 C 447.648438 384.207031 449.332031 384.070312 451.027344 383.976562 C 452.726562 383.882812 454.425781 383.832031 456.132812 383.820312 C 457.835938 383.8125 459.539062 383.84375 461.234375 383.914062 C 462.933594 383.988281 464.617188 384.101562 466.292969 384.257812 C 467.964844 384.410156 469.617188 384.605469 471.253906 384.84375 C 472.886719 385.078125 474.492188 385.355469 476.066406 385.667969 C 477.644531 385.984375 479.1875 386.335938 480.695312 386.726562 C 482.199219 387.117188 483.664062 387.542969 485.085938 388.003906 C 486.503906 388.46875 487.875 388.964844 489.199219 389.492188 C 490.519531 390.023438 491.785156 390.585938 492.992188 391.175781 C 494.203125 391.769531 495.351562 392.390625 496.4375 393.039062 C 497.523438 393.6875 498.542969 394.359375 499.492188 395.058594 C 500.445312 395.757812 501.324219 396.480469 502.132812 397.222656 C 502.941406 397.964844 503.675781 398.726562 504.332031 399.507812 C 504.988281 400.285156 505.570312 401.078125 506.070312 401.886719 C 506.570312 402.695312 506.988281 403.515625 507.324219 404.34375 C 507.664062 405.175781 507.917969 406.011719 508.089844 406.851562 C 508.261719 407.695312 508.351562 408.542969 508.355469 409.390625 Z M 508.355469 409.390625 " fill-opacity="1" fill-rule="nonzero"/><path fill="#f26053" d="M 586.671875 380.144531 C 586.980469 380.921875 587.210938 381.734375 587.363281 382.570312 C 587.515625 383.410156 587.589844 384.273438 587.578125 385.160156 C 587.570312 386.050781 587.484375 386.960938 587.316406 387.890625 C 587.148438 388.824219 586.902344 389.769531 586.574219 390.734375 C 586.25 391.699219 585.84375 392.675781 585.363281 393.660156 C 584.882812 394.648438 584.328125 395.644531 583.695312 396.644531 C 583.0625 397.648438 582.359375 398.652344 581.582031 399.660156 C 580.808594 400.664062 579.964844 401.667969 579.050781 402.671875 C 578.136719 403.671875 577.160156 404.667969 576.121094 405.652344 C 575.078125 406.640625 573.976562 407.613281 572.820312 408.578125 C 571.660156 409.539062 570.449219 410.484375 569.183594 411.414062 C 567.914062 412.34375 566.601562 413.25 565.242188 414.136719 C 563.882812 415.023438 562.480469 415.886719 561.039062 416.71875 C 559.59375 417.554688 558.117188 418.363281 556.609375 419.136719 C 555.097656 419.914062 553.5625 420.65625 552 421.367188 C 550.4375 422.078125 548.851562 422.75 547.253906 423.386719 C 545.652344 424.023438 544.039062 424.621094 542.414062 425.179688 C 540.789062 425.734375 539.164062 426.25 537.53125 426.722656 C 535.898438 427.195312 534.273438 427.621094 532.652344 428.003906 C 531.027344 428.386719 529.417969 428.722656 527.820312 429.011719 C 526.222656 429.300781 524.644531 429.542969 523.085938 429.738281 C 521.527344 429.933594 519.996094 430.078125 518.492188 430.171875 C 516.988281 430.269531 515.519531 430.316406 514.082031 430.3125 C 512.648438 430.3125 511.253906 430.257812 509.902344 430.15625 C 508.550781 430.054688 507.246094 429.90625 505.992188 429.707031 C 504.734375 429.507812 503.535156 429.261719 502.386719 428.964844 C 501.238281 428.671875 500.152344 428.332031 499.121094 427.945312 C 498.09375 427.554688 497.128906 427.125 496.230469 426.648438 C 495.332031 426.171875 494.5 425.652344 493.738281 425.089844 C 492.976562 424.527344 492.289062 423.925781 491.671875 423.285156 C 491.054688 422.644531 490.511719 421.96875 490.046875 421.253906 C 489.582031 420.542969 489.191406 419.796875 488.882812 419.015625 C 488.570312 418.234375 488.339844 417.425781 488.1875 416.589844 C 488.039062 415.75 487.964844 414.886719 487.972656 413.996094 C 487.980469 413.109375 488.070312 412.199219 488.238281 411.265625 C 488.40625 410.335938 488.652344 409.390625 488.976562 408.425781 C 489.304688 407.460938 489.707031 406.484375 490.1875 405.496094 C 490.671875 404.507812 491.226562 403.515625 491.859375 402.511719 C 492.488281 401.511719 493.195312 400.507812 493.96875 399.5 C 494.746094 398.492188 495.589844 397.488281 496.503906 396.488281 C 497.417969 395.488281 498.394531 394.492188 499.433594 393.503906 C 500.476562 392.519531 501.574219 391.542969 502.734375 390.582031 C 503.894531 389.621094 505.105469 388.671875 506.371094 387.746094 C 507.636719 386.816406 508.949219 385.910156 510.3125 385.023438 C 511.671875 384.136719 513.074219 383.273438 514.515625 382.4375 C 515.957031 381.601562 517.433594 380.796875 518.945312 380.019531 C 520.453125 379.246094 521.992188 378.5 523.554688 377.792969 C 525.117188 377.082031 526.699219 376.410156 528.300781 375.773438 C 529.902344 375.136719 531.515625 374.539062 533.140625 373.980469 C 534.765625 373.425781 536.390625 372.910156 538.023438 372.4375 C 539.652344 371.964844 541.28125 371.539062 542.902344 371.15625 C 544.523438 370.773438 546.136719 370.4375 547.734375 370.144531 C 549.332031 369.855469 550.910156 369.613281 552.46875 369.421875 C 554.027344 369.226562 555.558594 369.082031 557.0625 368.984375 C 558.566406 368.890625 560.035156 368.84375 561.46875 368.847656 C 562.90625 368.847656 564.296875 368.902344 565.648438 369 C 567 369.101562 568.304688 369.253906 569.5625 369.453125 C 570.816406 369.652344 572.019531 369.898438 573.167969 370.191406 C 574.3125 370.488281 575.402344 370.828125 576.429688 371.214844 C 577.460938 371.601562 578.421875 372.035156 579.324219 372.511719 C 580.222656 372.988281 581.054688 373.507812 581.816406 374.070312 C 582.578125 374.632812 583.265625 375.230469 583.882812 375.871094 C 584.5 376.511719 585.039062 377.191406 585.507812 377.902344 C 585.972656 378.617188 586.359375 379.363281 586.671875 380.144531 Z M 586.671875 380.144531 " fill-opacity="1" fill-rule="nonzero"/><path fill="#baa532" d="M 347.777344 367.535156 C 347.777344 367.535156 333.925781 373.0625 336.480469 381.378906 C 339.035156 389.695312 357.496094 407.925781 370.84375 409.503906 C 384.191406 411.082031 389.4375 400.582031 398.632812 402.195312 C 407.8125 403.808594 408.433594 417.601562 420.941406 418.359375 C 433.449219 419.113281 432.574219 411.621094 440.914062 412.394531 C 449.25 413.183594 451.992188 421.734375 458.667969 421.683594 C 465.339844 421.652344 475.832031 409.921875 483.511719 409.875 C 493.332031 409.804688 503.402344 421.28125 513.539062 421.347656 C 523.980469 421.398438 535.074219 400.96875 544.253906 401.757812 C 553.433594 402.53125 561.839844 413.316406 571.824219 410.765625 C 581.808594 408.191406 593.34375 394.734375 595.226562 382.972656 C 597.007812 371.835938 575.457031 359.773438 575.457031 359.773438 Z M 347.777344 367.535156 " fill-opacity="1" fill-rule="nonzero"/><path fill="#f09159" d="M 354.386719 387.796875 C 348.921875 385.546875 345.726562 380.253906 346.464844 374.757812 C 349.441406 352.699219 366.605469 297.472656 464.113281 296.867188 C 559.90625 296.28125 579.1875 347.589844 583.054688 369.566406 C 584.0625 375.328125 580.648438 380.976562 574.832031 383.191406 C 512.679688 406.882812 402.398438 407.539062 354.386719 387.796875 Z M 354.386719 387.796875 " fill-opacity="1" fill-rule="nonzero"/><path fill="#ffd5c2" d="M 426.371094 329.261719 C 427.296875 330.351562 426.707031 332.367188 425.058594 333.761719 C 423.414062 335.15625 421.328125 335.394531 420.402344 334.300781 C 419.480469 333.207031 420.066406 331.191406 421.714844 329.796875 C 423.363281 328.402344 425.445312 328.167969 426.371094 329.261719 Z M 426.371094 329.261719 " fill-opacity="1" fill-rule="nonzero"/><path fill="#ffd5c2" d="M 405.59375 349.65625 C 406.550781 350.714844 406.046875 352.765625 404.449219 354.210938 C 402.851562 355.65625 400.769531 355.976562 399.808594 354.898438 C 398.851562 353.839844 399.355469 351.792969 400.953125 350.347656 C 402.550781 348.917969 404.632812 348.597656 405.59375 349.65625 Z M 405.59375 349.65625 " fill-opacity="1" fill-rule="nonzero"/><path fill="#ffd5c2" d="M 536.875 357.335938 C 537.832031 358.394531 537.328125 360.445312 535.730469 361.890625 C 534.132812 363.332031 532.046875 363.652344 531.089844 362.578125 C 530.132812 361.519531 530.636719 359.46875 532.234375 358.023438 C 533.832031 356.578125 535.914062 356.261719 536.875 357.335938 Z M 536.875 357.335938 " fill-opacity="1" fill-rule="nonzero"/><path fill="#ffd5c2" d="M 551.464844 341.761719 C 551.566406 343.1875 549.902344 344.484375 547.75 344.632812 C 545.597656 344.785156 543.765625 343.742188 543.664062 342.316406 C 543.5625 340.886719 545.226562 339.59375 547.378906 339.441406 C 549.550781 339.292969 551.363281 340.332031 551.464844 341.761719 Z M 551.464844 341.761719 " fill-opacity="1" fill-rule="nonzero"/><path fill="#ffd5c2" d="M 522.652344 345.996094 C 522.800781 347.421875 521.1875 348.765625 519.054688 349.003906 C 516.902344 349.238281 515.050781 348.261719 514.902344 346.835938 C 514.75 345.40625 516.363281 344.0625 518.5 343.828125 C 520.632812 343.59375 522.5 344.550781 522.652344 345.996094 Z M 522.652344 345.996094 " fill-opacity="1" fill-rule="nonzero"/><path fill="#ffd5c2" d="M 402.820312 370.492188 C 402.835938 371.917969 401.085938 373.09375 398.933594 373.113281 C 396.785156 373.128906 395.019531 371.96875 395.019531 370.542969 C 395 369.113281 396.75 367.9375 398.902344 367.921875 C 401.054688 367.902344 402.800781 369.0625 402.820312 370.492188 Z M 402.820312 370.492188 " fill-opacity="1" fill-rule="nonzero"/><path fill="#ffd5c2" d="M 397.792969 337.324219 C 397.574219 338.738281 395.671875 339.628906 393.539062 339.292969 C 391.402344 338.953125 389.855469 337.542969 390.074219 336.117188 C 390.292969 334.6875 392.195312 333.8125 394.328125 334.148438 C 396.464844 334.503906 398.011719 335.914062 397.792969 337.324219 Z M 397.792969 337.324219 " fill-opacity="1" fill-rule="nonzero"/><path fill="#ffd5c2" d="M 382.679688 355.65625 C 383.402344 356.898438 382.492188 358.78125 380.628906 359.871094 C 378.761719 360.964844 376.675781 360.847656 375.9375 359.605469 C 375.214844 358.359375 376.121094 356.480469 377.988281 355.386719 C 379.855469 354.292969 381.957031 354.429688 382.679688 355.65625 Z M 382.679688 355.65625 " fill-opacity="1" fill-rule="nonzero"/><path fill="#f09159" d="M 56.101562 300.664062 C 76.558594 290.214844 135.871094 301.992188 150.3125 328.570312 C 164.734375 355.152344 161.558594 402.109375 103.492188 427.867188 C 45.425781 453.625 34.3125 466.023438 17.179688 448.550781 C 0.0507812 431.078125 54.402344 399.691406 84.058594 394.433594 C 113.710938 389.175781 121.917969 342.046875 101.84375 334.453125 C 81.789062 326.859375 56.789062 344.230469 50.855469 361.46875 C 44.921875 378.707031 52.957031 401.742188 56.46875 409.386719 L 25.570312 429.96875 C 25.570312 429.96875 5.179688 390.066406 13.617188 350.429688 C 22.089844 310.828125 56.101562 300.664062 56.101562 300.664062 Z M 56.101562 300.664062 " fill-opacity="1" fill-rule="nonzero"/><path fill="#f09159" d="M 146.496094 334.46875 C 146.496094 334.46875 190.136719 312.710938 226.804688 336.789062 C 263.46875 360.863281 249.699219 421.214844 233.140625 443.578125 C 216.597656 465.941406 171.257812 504.53125 132.523438 501.324219 C 93.808594 498.113281 41.726562 470.292969 37.558594 450.886719 C 33.386719 431.480469 73.382812 427.632812 73.382812 427.632812 C 73.382812 427.632812 88.378906 463.46875 143.082031 457.371094 C 197.785156 451.273438 218.648438 400.464844 206.445312 380.320312 C 194.238281 360.175781 164.800781 364.679688 150.78125 372.910156 C 136.777344 381.144531 146.496094 334.46875 146.496094 334.46875 Z M 146.496094 334.46875 " fill-opacity="1" fill-rule="nonzero"/><path fill="#f09159" d="M 121.546875 346.078125 C 121.546875 346.078125 91.4375 352.851562 89.890625 366.441406 C 88.34375 380.015625 83.382812 396.734375 118.722656 433.628906 C 154.058594 470.527344 177.023438 504.597656 202.996094 486.6875 C 228.972656 468.777344 152.042969 410.460938 143.890625 398.96875 C 135.734375 387.445312 106.550781 354.847656 121.546875 346.078125 Z M 121.546875 346.078125 " fill-opacity="1" fill-rule="nonzero"/><path fill="#dd7845" d="M 181.765625 350.160156 C 181.460938 350.078125 181.242188 349.824219 181.210938 349.488281 C 181.160156 349.050781 181.460938 348.667969 181.898438 348.617188 L 189.765625 347.691406 C 190.203125 347.640625 190.589844 347.945312 190.640625 348.378906 C 190.691406 348.816406 190.390625 349.203125 189.953125 349.253906 L 182.085938 350.179688 C 181.96875 350.210938 181.867188 350.195312 181.765625 350.160156 Z M 181.765625 350.160156 " fill-opacity="1" fill-rule="nonzero"/><path fill="#dd7845" d="M 222.128906 375.261719 C 221.878906 375.195312 221.660156 374.992188 221.589844 374.707031 L 219.777344 368.1875 C 219.65625 367.769531 219.910156 367.332031 220.332031 367.214844 C 220.75 367.097656 221.1875 367.347656 221.304688 367.769531 L 223.121094 374.289062 C 223.238281 374.707031 222.988281 375.144531 222.566406 375.261719 C 222.414062 375.3125 222.265625 375.296875 222.128906 375.261719 Z M 222.128906 375.261719 " fill-opacity="1" fill-rule="nonzero"/><path fill="#dd7845" d="M 229.273438 408.34375 C 228.855469 408.226562 228.617188 407.773438 228.734375 407.351562 L 232.789062 393.695312 C 232.90625 393.273438 233.359375 393.039062 233.78125 393.15625 C 234.199219 393.273438 234.433594 393.726562 234.316406 394.148438 L 230.265625 407.808594 C 230.132812 408.242188 229.695312 408.480469 229.273438 408.34375 Z M 229.273438 408.34375 " fill-opacity="1" fill-rule="nonzero"/><path fill="#dd7845" d="M 217.65625 430.304688 L 209.300781 427.835938 C 208.882812 427.714844 208.648438 427.261719 208.765625 426.84375 C 208.882812 426.421875 209.335938 426.1875 209.757812 426.304688 L 218.113281 428.773438 C 218.53125 428.890625 218.765625 429.347656 218.648438 429.765625 C 218.515625 430.1875 218.078125 430.4375 217.65625 430.304688 Z M 217.65625 430.304688 " fill-opacity="1" fill-rule="nonzero"/><path fill="#dd7845" d="M 186.457031 466.089844 C 186.035156 465.972656 185.800781 465.519531 185.917969 465.097656 L 187.714844 459.015625 C 187.835938 458.597656 188.289062 458.363281 188.707031 458.480469 C 189.128906 458.597656 189.363281 459.050781 189.246094 459.472656 L 187.449219 465.554688 C 187.3125 465.972656 186.875 466.207031 186.457031 466.089844 Z M 186.457031 466.089844 " fill-opacity="1" fill-rule="nonzero"/><path fill="#dd7845" d="M 150.898438 488.167969 C 150.480469 488.050781 150.242188 487.597656 150.363281 487.175781 L 152.613281 479.582031 C 152.730469 479.164062 153.1875 478.925781 153.605469 479.042969 C 154.027344 479.164062 154.261719 479.617188 154.144531 480.035156 L 151.890625 487.628906 C 151.757812 488.050781 151.320312 488.300781 150.898438 488.167969 Z M 150.898438 488.167969 " fill-opacity="1" fill-rule="nonzero"/><path fill="#dd7845" d="M 110.015625 484.371094 C 109.8125 484.320312 109.644531 484.1875 109.542969 483.984375 L 105.273438 476.105469 C 105.070312 475.71875 105.207031 475.246094 105.59375 475.027344 C 105.980469 474.828125 106.449219 474.960938 106.667969 475.347656 L 110.9375 483.226562 C 111.140625 483.613281 111.003906 484.085938 110.621094 484.304688 C 110.417969 484.421875 110.199219 484.4375 110.015625 484.371094 Z M 110.015625 484.371094 " fill-opacity="1" fill-rule="nonzero"/><path fill="#dd7845" d="M 70.390625 469.113281 C 70.1875 469.066406 70.019531 468.929688 69.917969 468.726562 L 65.648438 460.847656 C 65.445312 460.460938 65.582031 459.992188 65.96875 459.773438 C 66.355469 459.570312 66.824219 459.707031 67.042969 460.09375 L 71.3125 467.972656 C 71.515625 468.359375 71.382812 468.828125 70.996094 469.046875 C 70.792969 469.164062 70.574219 469.183594 70.390625 469.113281 Z M 70.390625 469.113281 " fill-opacity="1" fill-rule="nonzero"/><path fill="#dd7845" d="M 108.113281 392.382812 C 107.8125 392.300781 107.578125 392.03125 107.542969 391.675781 C 107.507812 391.242188 107.828125 390.855469 108.265625 390.820312 L 119.261719 389.945312 C 119.699219 389.914062 120.085938 390.234375 120.117188 390.667969 C 120.152344 391.105469 119.832031 391.492188 119.394531 391.527344 L 108.398438 392.398438 C 108.300781 392.417969 108.214844 392.417969 108.113281 392.382812 Z M 108.113281 392.382812 " fill-opacity="1" fill-rule="nonzero"/><path fill="#dd7845" d="M 146.714844 430.539062 C 146.460938 430.472656 146.242188 430.269531 146.175781 429.984375 L 144.175781 422.777344 C 144.058594 422.355469 144.308594 421.921875 144.730469 421.800781 C 145.148438 421.683594 145.585938 421.9375 145.703125 422.355469 L 147.707031 429.566406 C 147.824219 429.984375 147.570312 430.421875 147.152344 430.539062 C 147 430.589844 146.863281 430.574219 146.714844 430.539062 Z M 146.714844 430.539062 " fill-opacity="1" fill-rule="nonzero"/><path fill="#dd7845" d="M 136.121094 354.109375 C 135.953125 354.058594 135.785156 353.941406 135.683594 353.773438 L 131.71875 347.640625 C 131.480469 347.273438 131.582031 346.785156 131.953125 346.550781 C 132.324219 346.3125 132.808594 346.414062 133.046875 346.785156 L 137.011719 352.917969 C 137.25 353.285156 137.148438 353.773438 136.777344 354.007812 C 136.574219 354.144531 136.324219 354.175781 136.121094 354.109375 Z M 136.121094 354.109375 " fill-opacity="1" fill-rule="nonzero"/><path fill="#dd7845" d="M 113.039062 331.578125 C 112.988281 331.5625 112.9375 331.546875 112.890625 331.511719 C 112.503906 331.308594 112.367188 330.824219 112.570312 330.4375 L 118 320.492188 C 118.199219 320.105469 118.6875 319.96875 119.074219 320.171875 C 119.460938 320.371094 119.597656 320.859375 119.394531 321.246094 L 113.964844 331.191406 C 113.78125 331.527344 113.394531 331.679688 113.039062 331.578125 Z M 113.039062 331.578125 " fill-opacity="1" fill-rule="nonzero"/><path fill="#dd7845" d="M 67.984375 325.851562 C 67.867188 325.816406 67.75 325.75 67.648438 325.648438 L 59.242188 317.097656 C 58.941406 316.777344 58.941406 316.289062 59.261719 315.972656 C 59.578125 315.667969 60.066406 315.667969 60.386719 315.988281 L 68.792969 324.539062 C 69.09375 324.859375 69.09375 325.347656 68.777344 325.664062 C 68.558594 325.867188 68.253906 325.933594 67.984375 325.851562 Z M 67.984375 325.851562 " fill-opacity="1" fill-rule="nonzero"/><path fill="#dd7845" d="M 35.019531 356.933594 C 34.917969 356.898438 34.832031 356.863281 34.75 356.796875 C 34.414062 356.527344 34.347656 356.023438 34.613281 355.6875 L 40.382812 348.429688 C 40.648438 348.09375 41.15625 348.027344 41.492188 348.296875 C 41.828125 348.566406 41.894531 349.070312 41.625 349.40625 L 35.859375 356.664062 C 35.65625 356.933594 35.320312 357.015625 35.019531 356.933594 Z M 35.019531 356.933594 " fill-opacity="1" fill-rule="nonzero"/><path fill="#dd7845" d="M 28.429688 388.90625 C 28.191406 388.839844 27.992188 388.652344 27.90625 388.402344 C 27.773438 387.980469 27.992188 387.542969 28.394531 387.394531 L 33.691406 385.578125 C 34.109375 385.445312 34.546875 385.664062 34.699219 386.066406 C 34.851562 386.46875 34.613281 386.921875 34.210938 387.074219 L 28.914062 388.886719 C 28.746094 388.957031 28.578125 388.957031 28.429688 388.90625 Z M 28.429688 388.90625 " fill-opacity="1" fill-rule="nonzero"/><path fill="#dd7845" d="M 74.339844 416.644531 C 74.222656 416.609375 74.105469 416.542969 74.019531 416.460938 C 73.703125 416.15625 73.703125 415.652344 74.003906 415.332031 L 81.871094 407.167969 C 82.175781 406.847656 82.679688 406.847656 82.996094 407.152344 C 83.316406 407.453125 83.316406 407.957031 83.015625 408.277344 L 75.148438 416.441406 C 74.929688 416.644531 74.625 416.726562 74.339844 416.644531 Z M 74.339844 416.644531 " fill-opacity="1" fill-rule="nonzero"/><path fill="#dd7845" d="M 52.890625 436.839844 C 52.820312 436.824219 52.769531 436.789062 52.703125 436.753906 L 44.265625 431.78125 C 43.894531 431.5625 43.761719 431.078125 43.980469 430.691406 C 44.195312 430.320312 44.683594 430.1875 45.070312 430.40625 L 53.511719 435.378906 C 53.878906 435.597656 54.015625 436.082031 53.796875 436.46875 C 53.613281 436.789062 53.226562 436.941406 52.890625 436.839844 Z M 52.890625 436.839844 " fill-opacity="1" fill-rule="nonzero"/></svg>