<svg xmlns="http://www.w3.org/2000/svg" xmlns:xlink="http://www.w3.org/1999/xlink" width="800" zoomAndPan="magnify" viewBox="0 0 600 599.999999" height="800" preserveAspectRatio="xMidYMid meet" version="1.0"><defs><clipPath id="ecb2b61b2f"><path d="M 4 391 L 128 391 L 128 557.4375 L 4 557.4375 Z M 4 391 " clip-rule="nonzero"/></clipPath></defs><path fill="#F76D6A" d="M 579.972656 249.179688 C 579.523438 249.179688 579.078125 249.152344 578.632812 249.089844 C 572.882812 248.347656 568.832031 243.105469 569.574219 237.355469 C 577.738281 174.261719 534.992188 116.265625 474.28125 108.042969 C 468.535156 107.269531 464.511719 101.96875 465.285156 96.246094 C 466.0625 90.5 471.363281 86.535156 477.082031 87.25 C 549.140625 97.023438 599.960938 165.566406 590.339844 240.066406 C 589.683594 245.339844 585.15625 249.179688 579.972656 249.179688 Z M 579.972656 249.179688 " fill-opacity="1" fill-rule="nonzero"/><path fill="#F76D6A" d="M 535.019531 243.074219 C 534.367188 243.074219 533.679688 243.015625 533.027344 242.867188 C 527.335938 241.765625 523.613281 236.28125 524.714844 230.59375 C 528.410156 211.5 524.386719 193.089844 513.394531 178.792969 C 502.613281 164.703125 486.257812 156.210938 467.371094 154.839844 C 461.59375 154.425781 457.242188 149.421875 457.660156 143.640625 C 458.078125 137.863281 463.171875 133.453125 468.863281 133.929688 C 493.824219 135.71875 515.539062 147.125 530.046875 166.011719 C 544.730469 185.136719 550.152344 209.503906 545.296875 234.554688 C 544.34375 239.589844 539.9375 243.074219 535.019531 243.074219 Z M 535.019531 243.074219 " fill-opacity="1" fill-rule="nonzero"/><g clip-path="url(#ecb2b61b2f)"><path fill="#F76D6A" d="M 116.496094 557.042969 C 115.929688 557.042969 115.332031 557.011719 114.769531 556.894531 C 43.007812 545.007812 -5.785156 475.007812 5.980469 400.832031 C 6.902344 395.113281 12.265625 391.152344 17.984375 392.105469 C 23.703125 393 27.605469 398.390625 26.714844 404.109375 C 16.734375 466.933594 57.8125 526.183594 118.222656 536.222656 C 123.941406 537.175781 127.816406 542.566406 126.863281 548.285156 C 125.96875 553.410156 121.53125 557.042969 116.496094 557.042969 Z M 116.496094 557.042969 " fill-opacity="1" fill-rule="nonzero"/></g><path fill="#F76D6A" d="M 125.402344 510.515625 C 125.042969 510.515625 124.6875 510.484375 124.328125 510.453125 C 99.425781 507.921875 78.039062 495.886719 64.097656 476.585938 C 49.976562 457.042969 45.273438 432.558594 50.84375 407.625 C 52.09375 401.964844 57.753906 398.421875 63.351562 399.671875 C 69.011719 400.921875 72.558594 406.523438 71.304688 412.183594 C 67.078125 431.15625 70.5625 449.65625 81.105469 464.28125 C 91.503906 478.671875 107.589844 487.667969 126.445312 489.574219 C 132.222656 490.167969 136.425781 495.292969 135.828125 501.070312 C 135.261719 506.492188 130.703125 510.515625 125.402344 510.515625 Z M 125.402344 510.515625 " fill-opacity="1" fill-rule="nonzero"/><path fill="#F76D6A" d="M 287.628906 539.050781 C 266.359375 539.050781 245.804688 533.570312 224.867188 522.667969 C 194.957031 507.089844 178.722656 489.691406 147.148438 423.085938 C 132.582031 392.402344 129.960938 386.535156 124.566406 374.382812 C 121.46875 367.410156 117.417969 358.355469 109.644531 341.195312 C 98.144531 315.90625 89.894531 302.085938 81.195312 287.429688 C 74.078125 275.453125 66.6875 263.09375 57.425781 244.148438 C 51.882812 232.855469 37.230469 202.890625 62.339844 188.800781 C 70.414062 184.273438 91.292969 177.09375 110.566406 208.3125 C 120.339844 224.039062 125.789062 234.136719 130.613281 243.042969 C 136.214844 253.441406 140.800781 261.902344 150.214844 275.722656 C 148.816406 272.058594 147.386719 268.394531 146.015625 264.789062 C 139.285156 247.335938 131.6875 227.554688 124.539062 207.03125 L 121.351562 197.824219 C 117.597656 186.894531 114.617188 178.253906 107.828125 160.859375 C 103.804688 150.492188 98.027344 130.980469 104.609375 116.355469 C 107.679688 109.535156 113.097656 104.527344 120.277344 101.90625 C 133.535156 97.023438 152.597656 97.976562 168.207031 130.175781 C 186.886719 168.691406 192.457031 182.007812 202.496094 207.625 C 205.742188 215.90625 210.417969 226.363281 215.214844 236.28125 C 212.683594 225.320312 209.167969 211.558594 204.371094 194.519531 C 195.015625 166.070312 188.015625 139.769531 182.386719 98.066406 C 178.1875 67.234375 187.125 46.886719 206.21875 43.640625 C 238.089844 38.042969 248.933594 73.3125 254.117188 90.199219 L 254.773438 92.316406 C 263.679688 120.882812 267.789062 137.207031 272.140625 154.515625 C 274.3125 163.09375 276.578125 172.117188 279.585938 183.230469 C 280.6875 187.371094 282.058594 192.761719 283.578125 198.777344 C 284.144531 201.011719 284.800781 203.605469 285.515625 206.375 C 285.304688 203.902344 285.097656 201.28125 284.828125 198.539062 C 281.195312 158.625 280.6875 132.945312 282.921875 96.785156 C 285.425781 57.464844 304.875 51.476562 313.128906 50.730469 C 335.230469 48.855469 346.757812 70.988281 350.035156 92.554688 L 350.453125 95.234375 C 356.113281 132.589844 357.484375 141.4375 359.957031 184.09375 C 362.367188 225.289062 364.066406 246.351562 368.355469 270.183594 C 373.570312 299.195312 377.859375 314.445312 380.808594 322.460938 C 383.339844 314.65625 385.871094 303.8125 387.507812 296.84375 C 389.503906 288.382812 391.203125 281.054688 392.992188 275.929688 C 407.648438 233.988281 425.488281 217.875 432.460938 212.867188 C 440.324219 207.238281 464.183594 195.679688 479.824219 209.53125 C 486.050781 215.074219 491.171875 224.902344 486.855469 235.984375 C 484.441406 242.152344 482.148438 247.601562 479.914062 252.875 C 474.519531 265.625 469.84375 276.644531 465.257812 294.042969 C 455.902344 329.550781 452.566406 350.820312 449.617188 369.585938 C 446.667969 388.292969 444.136719 404.4375 436.332031 427.851562 C 422.300781 469.972656 405.085938 498.71875 358.585938 520.910156 C 333.234375 533.003906 310.03125 539.050781 287.628906 539.050781 Z M 76.964844 205.839844 C 74.910156 205.839844 73.453125 206.671875 72.617188 207.121094 C 67.046875 210.246094 68.121094 218.289062 76.25 234.972656 C 85.15625 253.144531 92.308594 265.148438 99.21875 276.734375 C 107.828125 291.210938 116.761719 306.195312 128.738281 332.527344 C 136.574219 349.746094 140.625 358.863281 143.75 365.863281 C 149.082031 377.894531 151.675781 383.707031 166.121094 414.089844 C 197.074219 479.386719 210.746094 491.628906 234.578125 504.050781 C 271.632812 523.351562 306.007812 522.726562 349.589844 501.933594 C 389.535156 482.871094 403.921875 458.832031 416.492188 421.179688 C 423.730469 399.433594 426.027344 384.808594 428.945312 366.308594 C 431.835938 347.988281 435.410156 325.199219 445.03125 288.679688 C 450.003906 269.824219 455.160156 257.609375 460.640625 244.683594 C 462.8125 239.558594 465.019531 234.285156 467.371094 228.328125 C 467.878906 227.046875 466.417969 225.617188 465.972656 225.203125 C 462.21875 221.925781 450.511719 225.765625 444.734375 229.90625 C 440.53125 232.917969 425.875 245.546875 412.859375 282.84375 C 411.429688 286.921875 409.761719 294.070312 407.972656 301.636719 C 401.003906 331.398438 396.417969 348.375 383.578125 350.519531 C 367.699219 353.140625 358.585938 333.871094 347.742188 273.90625 C 343.242188 248.972656 341.515625 227.375 339.042969 185.316406 C 336.632812 143.640625 335.289062 134.941406 329.71875 98.390625 L 329.332031 95.742188 C 328.351562 89.246094 323.554688 70.925781 315.035156 71.644531 C 309.34375 72.148438 304.875 82.8125 303.921875 98.125 C 301.71875 133.511719 302.195312 157.460938 305.769531 196.664062 C 310.804688 251.683594 308.480469 267.382812 295.046875 269.765625 C 281.789062 272.175781 277.472656 260.261719 263.292969 203.933594 C 261.804688 198.0625 260.460938 192.761719 259.390625 188.710938 C 256.351562 177.449219 254.058594 168.367188 251.882812 159.667969 C 247.414062 141.941406 243.542969 126.632812 234.816406 98.601562 L 234.128906 96.398438 C 227.546875 75.15625 221.171875 62.378906 209.761719 64.34375 C 202.554688 65.566406 201.304688 81.234375 203.210938 95.265625 C 208.628906 135.417969 215.363281 160.710938 224.449219 188.441406 C 247.625 270.867188 242.441406 278.253906 239.042969 283.140625 C 236.898438 286.207031 233.5625 288.144531 229.898438 288.441406 C 229.691406 288.441406 229.511719 288.472656 229.304688 288.472656 C 214.796875 288.472656 196.148438 248.824219 183.011719 215.3125 C 173.183594 190.230469 167.730469 177.210938 149.382812 139.351562 C 138.777344 117.515625 130.914062 120.347656 127.546875 121.597656 C 125.640625 122.3125 124.539062 123.265625 123.765625 124.992188 C 121.351562 130.324219 122.78125 141.4375 127.398438 153.261719 C 134.339844 171.046875 137.378906 179.832031 141.21875 191.003906 L 144.378906 200.121094 C 151.4375 220.316406 158.972656 239.945312 165.644531 257.253906 C 185.246094 308.160156 189.894531 320.257812 177.382812 326.214844 C 171.871094 328.863281 164.335938 332.320312 137.078125 293.566406 C 124.152344 275.15625 118.609375 264.910156 112.207031 253.023438 C 107.527344 244.386719 102.226562 234.585938 92.992188 219.660156 C 85.933594 208.339844 80.539062 205.839844 76.964844 205.839844 Z M 76.964844 205.839844 " fill-opacity="1" fill-rule="nonzero"/></svg>