<svg xmlns="http://www.w3.org/2000/svg" xmlns:xlink="http://www.w3.org/1999/xlink" width="800" zoomAndPan="magnify" viewBox="0 0 600 599.999999" height="800" preserveAspectRatio="xMidYMid meet" version="1.0"><path fill="#ffb27d" d="M 538.40625 537.539062 C 476.195312 599.753906 375.34375 599.753906 313.132812 537.539062 L 62.832031 287.222656 C 0.621094 225.007812 0.621094 124.160156 62.832031 61.945312 C 125.042969 -0.265625 225.894531 -0.265625 288.105469 61.945312 L 538.40625 312.265625 C 600.621094 374.460938 600.621094 475.328125 538.40625 537.539062 Z M 538.40625 537.539062 " fill-opacity="1" fill-rule="nonzero"/><path fill="#ffebc1" d="M 501.503906 350.441406 C 563.714844 412.65625 583.078125 494.140625 545.308594 531.910156 C 507.523438 569.679688 426.035156 550.300781 363.839844 488.105469 L 113.523438 237.804688 C 51.308594 175.59375 31.945312 94.089844 69.71875 56.335938 C 107.488281 18.566406 188.972656 37.929688 251.1875 100.140625 Z M 501.503906 350.441406 " fill-opacity="1" fill-rule="nonzero"/><path fill="#ff6b6b" d="M 569.328125 493.34375 C 594.371094 518.390625 597.839844 555.46875 577.113281 576.210938 C 556.371094 596.9375 519.292969 593.46875 494.246094 568.425781 L 30.65625 104.867188 C 5.628906 79.839844 2.160156 42.742188 22.886719 22 C 43.609375 1.273438 80.726562 4.742188 105.753906 29.769531 Z M 569.328125 493.34375 " fill-opacity="1" fill-rule="nonzero"/><path fill="#ffd966" d="M 550.921875 542.726562 C 546.390625 542.726562 541.859375 540.992188 538.40625 537.539062 C 522.195312 521.328125 510.125 518.601562 494.832031 515.132812 C 477.34375 511.167969 457.503906 506.671875 434.035156 483.222656 C 410.566406 459.769531 406.105469 439.929688 402.140625 422.425781 C 398.691406 407.152344 395.945312 395.0625 379.734375 378.847656 C 363.539062 362.65625 351.46875 359.929688 336.195312 356.476562 C 318.691406 352.511719 298.847656 348.035156 275.414062 324.601562 C 252 301.167969 247.523438 281.34375 243.574219 263.859375 C 240.140625 248.601562 237.414062 236.546875 221.238281 220.355469 C 205.0625 204.175781 193.007812 201.46875 177.753906 198.019531 C 160.265625 194.070312 140.441406 189.59375 117.007812 166.175781 C 93.609375 142.777344 89.132812 122.957031 85.1875 105.46875 C 81.734375 90.195312 79.027344 78.140625 62.832031 61.964844 C 55.910156 55.0625 55.910156 43.859375 62.832031 36.9375 C 69.753906 30.019531 80.9375 30.019531 87.859375 36.9375 C 111.292969 60.355469 115.769531 80.175781 119.714844 97.679688 C 123.167969 112.9375 125.875 124.992188 142.070312 141.1875 C 158.246094 157.363281 170.300781 160.070312 185.558594 163.523438 C 203.042969 167.46875 222.867188 171.945312 246.300781 195.363281 C 269.734375 218.796875 274.195312 238.621094 278.140625 256.105469 C 281.574219 271.363281 284.300781 283.414062 300.476562 299.609375 C 316.691406 315.824219 328.742188 318.546875 344.019531 321.980469 C 361.503906 325.945312 381.34375 330.425781 404.796875 353.859375 C 428.246094 377.308594 432.726562 397.152344 436.691406 414.65625 C 440.140625 429.929688 442.886719 442.019531 459.097656 458.230469 C 475.308594 474.441406 487.398438 477.167969 502.671875 480.636719 C 520.175781 484.601562 540.019531 489.097656 563.46875 512.546875 C 570.390625 519.46875 570.390625 530.65625 563.46875 537.574219 C 559.980469 540.992188 555.453125 542.726562 550.921875 542.726562 Z M 550.921875 542.726562 " fill-opacity="1" fill-rule="nonzero"/></svg>