<svg xmlns="http://www.w3.org/2000/svg" xmlns:xlink="http://www.w3.org/1999/xlink" width="800" zoomAndPan="magnify" viewBox="0 0 600 599.999999" height="800" preserveAspectRatio="xMidYMid meet" version="1.0"><path fill="#d9435e" d="M 439.375 206.089844 C 446.773438 204.742188 454.773438 205.042969 462.300781 204.332031 C 478.058594 202.859375 493.667969 200.398438 509.414062 198.742188 C 530.804688 196.5 552.246094 194.992188 573.699219 193.710938 C 578.933594 193.398438 584.171875 193 589.382812 192.710938 C 590.6875 192.640625 593.957031 191.878906 595.210938 192.710938 C 600.035156 195.871094 597.742188 207.71875 596.851562 212.160156 C 593.136719 230.609375 585.535156 249.804688 570.621094 262.085938 C 563.746094 267.757812 554.9375 270.988281 546.429688 273.292969 C 517.570312 281.113281 480.675781 270.195312 460.105469 248.65625 C 449.8125 237.882812 444.191406 224.164062 440.171875 210.050781 " fill-opacity="1" fill-rule="evenodd"/><path fill="#fff7f0" d="M 487.070312 219.941406 C 486.738281 222.214844 486.125 224.40625 485.222656 226.519531 C 484.820312 227.503906 484.339844 228.453125 483.789062 229.367188 C 482.582031 231.332031 477.972656 235.398438 478.722656 229.871094 C 479.148438 227.710938 480.140625 225.851562 481.6875 224.285156 C 483.230469 222.554688 484.890625 220.945312 486.671875 219.460938 Z M 564.007812 214.152344 C 565.027344 215.589844 566.171875 216.917969 567.449219 218.132812 C 568.933594 219.507812 571.707031 221.605469 573.953125 221.621094 C 574.554688 221.621094 574.542969 220.257812 574.496094 219.953125 C 574.132812 218.410156 573.328125 217.148438 572.082031 216.167969 C 570.03125 214.308594 567.410156 213.621094 564.84375 212.738281 Z M 506.710938 227.785156 C 506.925781 229.921875 506.925781 232.054688 506.710938 234.191406 C 506.578125 235.503906 506.292969 236.78125 505.855469 238.027344 C 505.375 239.523438 502.5625 244.84375 501.355469 240.632812 C 501.179688 240.019531 501.109375 239.390625 501.136719 238.753906 C 501.234375 236.945312 501.609375 235.199219 502.265625 233.515625 C 502.921875 231.828125 503.824219 230.289062 504.976562 228.894531 Z M 545.394531 226.578125 C 545.988281 229.425781 547.082031 232.070312 548.675781 234.503906 C 549.164062 235.363281 549.730469 236.167969 550.375 236.917969 C 551.582031 238.234375 554.574219 240.234375 553.996094 236.796875 C 553.488281 234.683594 552.527344 232.800781 551.113281 231.152344 C 549.84375 229.472656 548.300781 228.097656 546.914062 226.53125 Z M 526.089844 229.148438 C 527.667969 231.65625 528.789062 234.355469 529.457031 237.242188 C 529.742188 238.355469 529.894531 239.484375 529.914062 240.632812 C 529.914062 242.273438 528.371094 248.125 525.992188 244.617188 C 525.359375 243.46875 524.921875 242.25 524.683594 240.957031 C 524.441406 239.667969 524.414062 238.375 524.59375 237.074219 C 524.773438 234.902344 525.351562 232.804688 525.738281 230.65625 Z M 526.089844 229.148438 " fill-opacity="1" fill-rule="evenodd"/><path fill="#fff7f0" d="M 572.296875 162.609375 L 559.582031 149 C 559.582031 149 550.484375 196.160156 488.398438 216.9375 C 450.246094 236.050781 403.097656 202.835938 403.097656 202.835938 L 401.816406 220.679688 C 401.816406 220.679688 445.976562 247.402344 493.644531 229.484375 C 541.316406 211.570312 572.296875 162.609375 572.296875 162.609375 Z M 572.296875 162.609375 " fill-opacity="1" fill-rule="evenodd"/><path fill="#a0d995" d="M 222.214844 316.800781 C 208.871094 307.5 194.105469 316.609375 180.058594 319.695312 C 157.75 324.609375 132.523438 326.9375 112.183594 314.003906 C 100.320312 306.496094 94.722656 292.863281 83.007812 285.335938 C 71.125 277.699219 54.894531 278.253906 42.179688 271.738281 C 23.40625 262.085938 7.117188 242.699219 2.4375 221.992188 C 0.0234375 211.253906 0.179688 199.9375 7.578125 191.082031 C 13.367188 184.144531 22.429688 181.757812 31.152344 181.320312 C 36.535156 181.054688 42.167969 181.972656 47.320312 179.984375 C 61.183594 174.625 71.449219 162.175781 86.820312 159.90625 C 107.679688 156.792969 131.074219 165.601562 141.742188 184.398438 C 149.835938 198.683594 151.394531 215.007812 162.253906 228.027344 C 167.078125 233.746094 173.375 239.234375 180.84375 240.804688 C 188.613281 242.445312 196.855469 241.359375 203.925781 245.628906 C 222.277344 256.691406 219.921875 277.226562 222.203125 295.3125 C 222.914062 300.960938 225.535156 308.753906 224.4375 314.460938 " fill-opacity="1" fill-rule="evenodd"/><path fill="#80ad77" d="M 220.9375 317.910156 C 218.894531 315.125 216.546875 312.628906 213.894531 310.417969 C 211.242188 308.207031 208.359375 306.351562 205.253906 304.84375 C 191.703125 298.015625 169.816406 299.777344 155.328125 302.433594 C 144.671875 304.386719 136.542969 302.601562 125.851562 301.117188 C 122.351562 300.632812 118.9375 300.816406 122.691406 300.71875 C 133.207031 300.496094 143.601562 299.265625 153.878906 297.027344 C 156.957031 296.339844 160.042969 295.566406 163.15625 295.035156 C 164.242188 294.84375 165.328125 294.636719 166.414062 294.503906 C 166.886719 294.503906 167.886719 294.84375 167.828125 294.371094 C 167.488281 291.574219 159.066406 286.652344 157.027344 284.902344 C 152.296875 280.847656 148.027344 274.753906 141.996094 272.511719 C 136.660156 270.53125 130.449219 271.679688 124.898438 271.785156 C 118.46875 271.878906 112.148438 271.097656 105.933594 269.445312 C 99.03125 267.648438 92.457031 264.390625 85.808594 261.796875 C 83.757812 260.988281 81.71875 260.15625 79.628906 259.382812 C 78.761719 259.070312 77.878906 258.78125 77.011719 258.515625 C 76.710938 258.429688 75.804688 258.152344 76.132812 258.285156 C 80.210938 260.421875 85.445312 260.503906 89.898438 260.699219 C 97.65625 261.109375 105.378906 261.734375 113.109375 262.351562 C 117.539062 262.703125 121.882812 263.75 126.382812 263.8125 C 127.660156 263.8125 128.917969 263.8125 130.195312 263.882812 C 130.90625 263.882812 132.945312 264.414062 132.355469 263.992188 C 126.320312 259.578125 118.40625 257.066406 111.652344 253.953125 C 95.808594 246.726562 79.390625 240.695312 63.703125 233.285156 C 55.214844 229.515625 47.769531 224.265625 41.371094 217.53125 C 39.539062 215.625 37.667969 213.730469 35.675781 211.980469 C 34.929688 211.339844 34.179688 210.773438 33.394531 210.15625 C 33.058594 209.917969 31.996094 209.507812 32.394531 209.421875 C 33.867188 209.121094 36.703125 210.300781 38.210938 210.75 C 43.035156 212.148438 47.789062 213.4375 52.53125 214.933594 C 71.546875 220.96875 88.945312 230.800781 107.464844 238.148438 C 114.417969 240.710938 121.191406 243.675781 127.792969 247.039062 C 129.851562 248.167969 131.914062 249.300781 133.972656 250.441406 L 136.09375 251.648438 C 136.542969 251.890625 137.507812 252.855469 137.445312 252.347656 C 136.769531 245.882812 131.136719 240.378906 127.554688 235.457031 C 122.734375 228.769531 118.824219 221.585938 115.824219 213.910156 C 114.015625 209.179688 113.414062 204.570312 112.578125 199.613281 C 112.300781 197.867188 111.929688 196.140625 111.457031 194.4375 C 111.214844 193.59375 109.816406 191.382812 110.480469 192.023438 C 112.460938 193.832031 113.980469 197.367188 115.453125 199.660156 C 120.6875 207.851562 124.390625 217.011719 129.6875 225.082031 C 136.480469 235.457031 147.59375 242.445312 155.761719 251.625 C 159.511719 256.160156 163.636719 260.324219 168.128906 264.125 C 169.152344 264.933594 170.179688 265.753906 171.230469 266.539062 C 171.6875 266.863281 172.433594 268.023438 172.628906 267.503906 C 174.667969 262.449219 170.082031 251.699219 168.355469 246.882812 C 167.769531 245.234375 167.085938 243.625 166.304688 242.058594 C 165.859375 241.152344 163.894531 239.644531 164.894531 239.367188 C 165.894531 239.089844 166.765625 240.886719 167.621094 241.78125 C 170.144531 244.410156 172.441406 247.226562 174.511719 250.226562 C 182.894531 261.796875 189.722656 275.5625 200.34375 285.335938 C 204.878906 289.511719 210.945312 291.574219 215.300781 295.929688 C 223 303.613281 222.421875 305.21875 231.300781 311.925781 C 234.800781 314.570312 226.835938 326.054688 220.9375 317.910156 Z M 220.9375 317.910156 " fill-opacity="1" fill-rule="evenodd"/><path fill="#fff7f0" d="M 188.722656 273.269531 L 200.039062 258.382812 C 200.039062 258.382812 152.007812 257.476562 120.953125 199.855469 C 95.617188 165.515625 120.277344 113.394531 120.277344 113.394531 L 102.433594 115.21875 C 102.433594 115.21875 83.636719 163.261719 109.429688 207.175781 C 135.226562 251.09375 188.722656 273.269531 188.722656 273.269531 Z M 188.722656 273.269531 " fill-opacity="1" fill-rule="evenodd"/><path fill="#d9435e" d="M 144.625 110.5 C 150.199219 115.53125 154.84375 122.070312 159.949219 127.570312 C 170.710938 139.167969 182.183594 150.0625 193.078125 161.535156 C 207.894531 177.136719 222.144531 193.21875 236.234375 209.457031 C 239.675781 213.414062 243.183594 217.324219 246.585938 221.304688 C 247.445312 222.296875 250.050781 224.429688 250.207031 225.925781 C 250.628906 231.667969 239.84375 237.0625 235.730469 239.066406 C 218.835938 247.355469 198.992188 253.011719 180.167969 248.71875 C 171.480469 246.714844 163.542969 241.695312 156.546875 236.351562 C 132.765625 218.253906 118.949219 182.324219 123.511719 152.882812 C 125.792969 138.164062 133.234375 125.339844 141.957031 113.589844 " fill-opacity="1" fill-rule="evenodd"/><path fill="#fff7f0" d="M 162.636719 156.757812 C 160.636719 157.878906 158.527344 158.730469 156.304688 159.304688 C 155.273438 159.574219 154.226562 159.769531 153.167969 159.894531 C 150.886719 160.160156 144.855469 158.953125 149.679688 156.191406 C 151.652344 155.207031 153.730469 154.855469 155.917969 155.140625 C 158.214844 155.324219 160.488281 155.667969 162.734375 156.179688 Z M 214.109375 214.246094 C 213.585938 215.929688 213.230469 217.648438 213.046875 219.398438 C 212.851562 221.414062 212.878906 224.890625 214.253906 226.636719 C 214.628906 227.121094 215.699219 226.277344 215.90625 226.058594 C 216.914062 224.84375 217.4375 223.449219 217.472656 221.871094 C 217.691406 219.109375 216.652344 216.613281 215.785156 214.066406 Z M 168.453125 177.097656 C 166.890625 178.570312 165.199219 179.867188 163.375 180.996094 C 162.238281 181.703125 161.03125 182.257812 159.753906 182.660156 C 158.28125 183.191406 152.347656 184.191406 154.929688 180.683594 C 155.308594 180.164062 155.761719 179.71875 156.292969 179.355469 C 157.78125 178.332031 159.394531 177.570312 161.128906 177.0625 C 162.863281 176.558594 164.632812 176.335938 166.4375 176.398438 Z M 192.933594 207.070312 C 191.039062 209.277344 189.613281 211.753906 188.652344 214.5 C 188.269531 215.410156 187.980469 216.347656 187.78125 217.3125 C 187.480469 219.085938 187.699219 222.65625 190.097656 220.136719 C 191.472656 218.449219 192.382812 216.542969 192.824219 214.417969 C 193.378906 212.378906 193.535156 210.328125 193.933594 208.261719 Z M 179.144531 193.316406 C 178.089844 196.085938 176.609375 198.609375 174.703125 200.878906 C 173.996094 201.78125 173.191406 202.585938 172.289062 203.292969 C 170.988281 204.292969 165.414062 206.632812 166.742188 202.605469 C 167.257812 201.386719 167.957031 200.285156 168.835938 199.296875 C 169.714844 198.3125 170.730469 197.492188 171.878906 196.835938 C 173.714844 195.632812 175.742188 194.835938 177.671875 193.832031 Z M 179.144531 193.316406 " fill-opacity="1" fill-rule="evenodd"/><path fill="#a0d995" d="M 404.929688 253.144531 C 390.863281 244.988281 376.890625 255.292969 363.160156 259.539062 C 341.347656 266.285156 316.382812 270.652344 295.042969 259.539062 C 282.601562 253.039062 275.894531 239.921875 263.671875 233.40625 C 251.195312 226.769531 235.066406 228.675781 221.867188 223.234375 C 202.34375 215.199219 184.464844 197.210938 178.117188 176.976562 C 174.8125 166.480469 174.039062 155.175781 180.675781 145.742188 C 185.875 138.347656 194.695312 135.207031 203.359375 134.050781 C 208.691406 133.351562 214.386719 133.796875 219.355469 131.382812 C 232.675781 124.867188 241.929688 111.597656 257 108.050781 C 277.511719 103.222656 301.582031 110.054688 313.707031 127.898438 C 322.972656 141.457031 325.902344 157.601562 337.835938 169.667969 C 343.074219 174.964844 349.839844 179.910156 357.417969 180.863281 C 365.296875 181.851562 373.429688 180.066406 380.824219 183.734375 C 400.03125 193.230469 399.394531 213.898438 403.167969 231.71875 C 404.375 237.292969 407.597656 244.84375 406.980469 250.625 " fill-opacity="1" fill-rule="evenodd"/><path fill="#80ad77" d="M 403.75 254.339844 C 401.484375 251.734375 398.941406 249.441406 396.117188 247.460938 C 393.292969 245.476562 390.269531 243.867188 387.050781 242.625 C 372.980469 236.941406 351.324219 240.511719 337.101562 244.351562 C 326.640625 247.183594 318.398438 246.074219 307.613281 245.558594 C 304.089844 245.363281 300.699219 245.820312 304.429688 245.410156 C 314.890625 244.316406 325.148438 242.226562 335.207031 239.136719 C 338.210938 238.195312 341.238281 237.171875 344.292969 236.386719 C 345.351562 236.109375 346.414062 235.808594 347.488281 235.589844 C 347.960938 235.507812 348.984375 235.808594 348.886719 235.335938 C 348.320312 232.585938 339.511719 228.375 337.339844 226.808594 C 332.285156 223.1875 327.519531 217.445312 321.320312 215.695312 C 315.839844 214.164062 309.75 215.828125 304.234375 216.394531 C 297.863281 217.027344 291.523438 216.785156 285.21875 215.671875 C 278.1875 214.464844 271.355469 211.761719 264.527344 209.722656 C 262.40625 209.097656 260.304688 208.421875 258.15625 207.851562 C 257.277344 207.613281 256.371094 207.394531 255.480469 207.203125 C 255.179688 207.203125 254.273438 206.9375 254.585938 207.042969 C 258.820312 208.832031 264.046875 208.480469 268.511719 208.359375 C 276.269531 208.128906 284.027344 208.105469 291.785156 208.082031 C 296.222656 208.082031 300.628906 208.746094 305.054688 208.433594 C 306.320312 208.335938 307.578125 208.226562 308.855469 208.191406 C 309.578125 208.191406 311.644531 208.492188 311.027344 208.117188 C 304.621094 204.222656 296.550781 202.375 289.550781 199.84375 C 273.179688 193.882812 256.335938 189.210938 240.085938 183.144531 C 231.324219 180.09375 223.480469 175.480469 216.558594 169.304688 C 214.566406 167.554688 212.550781 165.816406 210.417969 164.25 C 209.632812 163.671875 208.835938 163.128906 208.003906 162.621094 C 207.652344 162.402344 206.554688 162.089844 206.953125 161.96875 C 208.402344 161.546875 211.320312 162.488281 212.851562 162.800781 C 217.679688 163.816406 222.625 164.695312 227.476562 165.792969 C 246.925781 170.222656 265.082031 178.570312 284.183594 184.363281 C 291.265625 186.324219 298.207031 188.695312 305.007812 191.480469 C 307.167969 192.421875 309.3125 193.386719 311.449219 194.351562 L 313.65625 195.355469 C 314.128906 195.558594 315.164062 196.441406 315.082031 195.933594 C 313.875 189.550781 307.84375 184.53125 303.800781 179.875 C 298.457031 173.632812 293.964844 166.828125 290.324219 159.460938 C 288.128906 154.898438 287.152344 150.351562 285.921875 145.476562 C 285.492188 143.757812 284.972656 142.070312 284.363281 140.410156 C 284.050781 139.589844 282.480469 137.5 283.15625 137.996094 C 285.292969 139.625 287.089844 143.027344 288.742188 145.234375 C 294.644531 152.96875 299.09375 161.777344 305.042969 169.367188 C 312.679688 179.136719 324.347656 185.171875 333.238281 193.699219 C 337.351562 197.910156 341.808594 201.71875 346.609375 205.125 C 347.695312 205.851562 348.78125 206.585938 349.890625 207.261719 C 350.371094 207.550781 351.191406 208.636719 351.359375 208.09375 C 352.976562 202.894531 347.523438 192.554688 345.402344 187.910156 C 344.683594 186.320312 343.878906 184.773438 342.988281 183.277344 C 342.46875 182.40625 340.429688 181.128906 341.359375 180.71875 C 342.289062 180.308594 343.351562 182.082031 344.277344 182.855469 C 347.015625 185.28125 349.539062 187.914062 351.84375 190.757812 C 361.160156 201.617188 369.121094 214.753906 380.511719 223.597656 C 385.335938 227.375 391.597656 228.929688 396.292969 232.914062 C 404.605469 239.921875 404.160156 241.5625 413.570312 247.511719 C 417.285156 249.875 410.300781 261.976562 403.75 254.339844 Z M 403.75 254.339844 " fill-opacity="1" fill-rule="evenodd"/><path fill="#d9435e" d="M 450.308594 183.058594 C 443.574219 186.390625 435.828125 188.308594 428.796875 191.035156 C 414.050781 196.777344 399.707031 203.4375 385.035156 209.324219 C 365.078125 217.359375 344.882812 224.707031 324.601562 231.828125 C 319.652344 233.574219 314.730469 235.445312 309.773438 237.097656 C 308.566406 237.535156 305.609375 239.175781 304.175781 238.726562 C 298.671875 237.003906 297.625 224.984375 297.261719 220.460938 C 295.753906 201.710938 297.792969 181.164062 308.757812 165.25 C 313.816406 157.914062 321.402344 152.390625 328.945312 147.828125 C 354.535156 132.386719 393.011719 132.746094 418.710938 147.828125 C 431.558594 155.359375 440.738281 167 448.472656 179.425781 " fill-opacity="1" fill-rule="evenodd"/><path fill="#fff7f0" d="M 399.441406 182.855469 C 399.144531 180.578125 399.144531 178.300781 399.441406 176.023438 C 399.5625 174.964844 399.765625 173.917969 400.042969 172.886719 C 400.636719 170.667969 403.976562 165.503906 404.773438 171.007812 C 404.960938 173.203125 404.519531 175.265625 403.445312 177.195312 C 402.441406 179.269531 401.289062 181.257812 399.984375 183.15625 Z M 327.050781 209.578125 C 325.679688 208.476562 324.214844 207.515625 322.660156 206.695312 C 320.847656 205.777344 317.613281 204.523438 315.417969 205.136719 C 314.839844 205.308594 315.226562 206.609375 315.417969 206.886719 C 316.175781 208.265625 317.277344 209.261719 318.726562 209.878906 C 321.222656 211.085938 323.925781 211.085938 326.617188 211.183594 Z M 378.398438 180.730469 C 377.613281 178.738281 377.027344 176.683594 376.636719 174.578125 C 376.410156 173.273438 376.332031 171.964844 376.410156 170.644531 C 376.46875 169.074219 377.710938 163.1875 380.027344 166.902344 C 380.359375 167.449219 380.597656 168.035156 380.753906 168.652344 C 381.15625 170.410156 381.277344 172.1875 381.117188 173.984375 C 380.957031 175.777344 380.523438 177.503906 379.8125 179.164062 Z M 341.527344 192.433594 C 340.175781 189.859375 338.402344 187.621094 336.207031 185.714844 C 335.511719 185.070312 334.765625 184.496094 333.964844 183.988281 C 332.417969 183.058594 329.015625 181.9375 330.488281 185.097656 C 331.546875 186.996094 332.980469 188.546875 334.796875 189.742188 C 336.496094 190.949219 338.355469 191.902344 340.117188 193.039062 Z M 359.398438 184.664062 C 357.191406 182.683594 355.371094 180.398438 353.941406 177.796875 C 353.359375 176.808594 352.898438 175.761719 352.554688 174.660156 C 352.121094 173.09375 351.988281 167.035156 355.246094 169.761719 C 356.191406 170.707031 356.964844 171.773438 357.558594 172.96875 C 358.152344 174.167969 358.539062 175.425781 358.722656 176.75 C 359.144531 178.898438 359.15625 181.070312 359.382812 183.238281 Z M 359.398438 184.664062 " fill-opacity="1" fill-rule="evenodd"/><path fill="#a0d995" d="M 254.804688 246.136719 C 270.175781 251.410156 281.878906 238.59375 294.535156 231.753906 C 314.621094 220.894531 338.269531 211.773438 361.363281 218.578125 C 374.828125 222.546875 383.960938 234.105469 397.257812 238.125 C 410.769531 242.203125 426.214844 237.207031 440.246094 239.984375 C 460.949219 244.085938 481.929688 258.273438 492.125 276.878906 C 497.410156 286.53125 500.355469 297.472656 495.746094 308.019531 C 492.125 316.28125 484.03125 321.074219 475.753906 323.882812 C 470.660156 325.621094 464.980469 326.296875 460.585938 329.601562 C 448.726562 338.578125 442.210938 353.382812 428.121094 359.765625 C 408.914062 368.476562 383.996094 366.449219 368.578125 351.320312 C 356.863281 339.820312 350.855469 324.558594 336.835938 315.027344 C 330.667969 310.839844 323.070312 307.304688 315.445312 307.847656 C 307.527344 308.402344 299.902344 311.722656 291.929688 309.574219 C 271.25 303.976562 267.796875 283.574219 260.703125 266.828125 C 258.472656 261.589844 253.816406 254.761719 253.296875 249.019531 " fill-opacity="1" fill-rule="evenodd"/><path fill="#80ad77" d="M 255.722656 244.734375 C 258.453125 246.855469 261.402344 248.609375 264.566406 250.003906 C 267.730469 251.398438 271.015625 252.390625 274.421875 252.976562 C 289.324219 255.8125 309.882812 248.152344 323.09375 241.585938 C 332.804688 236.761719 341.105469 236.265625 351.796875 234.757812 C 355.28125 234.265625 358.515625 233.140625 354.945312 234.277344 C 344.898438 237.355469 335.25 241.378906 325.988281 246.339844 C 323.214844 247.847656 320.449219 249.441406 317.601562 250.804688 C 316.613281 251.289062 315.636719 251.792969 314.609375 252.203125 C 314.175781 252.386719 313.113281 252.289062 313.296875 252.722656 C 314.394531 255.316406 323.851562 257.742188 326.277344 258.863281 C 331.949219 261.457031 337.726562 266.105469 344.144531 266.648438 C 349.816406 267.09375 355.476562 264.234375 360.785156 262.640625 C 366.910156 260.789062 373.171875 259.800781 379.570312 259.671875 C 386.710938 259.503906 393.925781 260.820312 401.035156 261.496094 C 403.230469 261.699219 405.425781 261.953125 407.632812 262.097656 C 408.550781 262.160156 409.480469 262.195312 410.382812 262.207031 C 410.699219 262.207031 411.589844 262.207031 411.289062 262.207031 C 406.789062 261.277344 401.734375 262.628906 397.378906 263.617188 C 389.8125 265.34375 382.210938 266.875 374.609375 268.445312 C 370.253906 269.3125 365.792969 269.507812 361.507812 270.675781 C 360.300781 271.003906 359.09375 271.363281 357.828125 271.652344 C 357.117188 271.808594 355.027344 271.894531 355.703125 272.136719 C 362.738281 274.71875 371.027344 274.960938 378.386719 276.09375 C 395.605469 278.761719 413.027344 280.085938 430.207031 282.863281 C 439.390625 284.164062 447.976562 287.167969 455.964844 291.875 C 458.257812 293.214844 460.574219 294.515625 462.976562 295.652344 C 463.855469 296.0625 464.75 296.449219 465.667969 296.773438 C 466.050781 296.917969 467.1875 297.015625 466.875 297.207031 C 465.535156 297.894531 462.492188 297.546875 460.925781 297.535156 C 455.941406 297.535156 450.972656 297.535156 446 297.4375 C 426.058594 296.871094 406.632812 292.1875 386.796875 290.199219 C 379.410156 289.648438 372.082031 288.660156 364.8125 287.242188 C 362.523438 286.734375 360.230469 286.203125 357.949219 285.671875 L 355.535156 285.117188 C 355.042969 284.996094 353.847656 284.335938 354.039062 284.816406 C 356.453125 290.847656 363.390625 294.589844 368.214844 298.390625 C 374.671875 303.472656 380.398438 309.277344 385.398438 315.800781 C 388.4375 319.855469 390.285156 324.125 392.429688 328.660156 C 393.179688 330.265625 394.015625 331.820312 394.941406 333.332031 C 395.410156 334.078125 397.355469 335.816406 396.558594 335.429688 C 394.144531 334.222656 391.730469 331.253906 389.679688 329.457031 C 382.441406 323.015625 376.324219 315.234375 369.011719 308.945312 C 359.613281 300.839844 347.019531 297.183594 336.628906 290.535156 C 331.773438 287.207031 326.660156 284.332031 321.296875 281.910156 C 320.089844 281.414062 318.882812 280.90625 317.675781 280.472656 C 317.144531 280.28125 316.132812 279.363281 316.070312 279.929688 C 315.492188 285.347656 322.851562 294.410156 325.832031 298.570312 C 326.847656 299.996094 327.949219 301.355469 329.125 302.648438 C 329.8125 303.398438 332.058594 304.265625 331.226562 304.832031 C 330.390625 305.398438 329.003906 303.890625 327.953125 303.3125 C 324.796875 301.460938 321.808594 299.363281 318.992188 297.027344 C 307.757812 288.207031 297.394531 276.828125 284.507812 270.375 C 278.996094 267.613281 272.589844 267.285156 267.207031 264.34375 C 257.699219 259.070312 257.820312 257.378906 247.433594 253.363281 C 243.304688 251.734375 247.804688 238.5 255.722656 244.734375 Z M 255.722656 244.734375 " fill-opacity="1" fill-rule="evenodd"/><path fill="#d9435e" d="M 301.121094 218.84375 C 301.917969 233.46875 301.050781 248.257812 294.835938 261.796875 C 282.386719 288.871094 251.050781 311.203125 221.238281 313.195312 C 212.457031 313.785156 203.070312 313.59375 194.695312 310.46875 C 176.597656 303.710938 163.15625 288.039062 153.675781 271.859375 C 151.382812 267.9375 145.359375 257.488281 148.847656 252.929688 C 149.765625 251.722656 153.105469 251.394531 154.375 251.046875 C 159.417969 249.597656 164.484375 248.285156 169.539062 246.871094 C 190.242188 241.09375 211.007812 235.542969 231.964844 230.714844 C 247.382812 227.097656 262.960938 224.394531 278.332031 220.667969 C 285.628906 218.894531 293.109375 215.996094 300.53125 214.875 " fill-opacity="1" fill-rule="evenodd"/><path fill="#fff7f0" d="M 259.980469 243.445312 C 261.023438 245.488281 262.3125 247.363281 263.851562 249.066406 C 264.558594 249.867188 265.324219 250.605469 266.144531 251.289062 C 267.894531 252.773438 273.601562 255.089844 271.105469 250.082031 C 270 248.171875 268.453125 246.730469 266.472656 245.761719 C 264.457031 244.640625 262.367188 243.675781 260.210938 242.867188 Z M 185.332031 263.003906 C 184.832031 264.671875 184.179688 266.28125 183.378906 267.828125 C 182.414062 269.613281 180.484375 272.5 178.359375 273.234375 C 177.792969 273.4375 177.359375 272.148438 177.308594 271.847656 C 177.132812 270.28125 177.460938 268.828125 178.296875 267.492188 C 179.648438 265.078125 181.917969 263.558594 184.019531 261.90625 Z M 243.945312 257.234375 C 244.4375 259.316406 245.132812 261.324219 246.019531 263.269531 C 246.582031 264.464844 247.269531 265.582031 248.082031 266.621094 C 249.023438 267.828125 253.429688 271.980469 253.1875 267.613281 C 253.152344 266.972656 253.015625 266.359375 252.777344 265.765625 C 252.101562 264.085938 251.183594 262.558594 250.015625 261.179688 C 248.847656 259.796875 247.492188 258.636719 245.949219 257.695312 Z M 206.988281 268.722656 C 207.351562 271.605469 207.179688 274.457031 206.472656 277.277344 C 206.285156 278.242188 206.007812 279.183594 205.636719 280.097656 C 204.902344 281.753906 202.753906 284.613281 202.152344 281.183594 C 201.925781 279.019531 202.21875 276.929688 203.03125 274.910156 C 203.695312 272.910156 204.699219 271.097656 205.503906 269.167969 Z M 226.089844 264.859375 C 225.410156 267.746094 225.226562 270.660156 225.546875 273.609375 C 225.632812 274.753906 225.855469 275.871094 226.210938 276.960938 C 226.753906 278.519531 230.105469 283.550781 231.214844 279.449219 C 231.457031 278.148438 231.484375 276.847656 231.292969 275.539062 C 231.105469 274.230469 230.714844 272.988281 230.117188 271.808594 C 229.238281 269.808594 228.007812 268.011719 226.945312 266.117188 Z M 226.089844 264.859375 " fill-opacity="1" fill-rule="evenodd"/><path fill="#a0d995" d="M 345.316406 263.378906 C 343.445312 257.875 344.941406 249.792969 344.859375 244.074219 C 344.582031 225.84375 339.378906 205.839844 355.996094 192.3125 C 362.402344 187.113281 370.726562 187.039062 378.183594 184.324219 C 385.421875 181.71875 390.875 175.398438 394.796875 169.0625 C 403.734375 154.65625 403.023438 138.273438 409.042969 123 C 416.972656 102.933594 438.929688 90.941406 459.996094 91.085938 C 475.476562 91.195312 487.445312 102.078125 501.921875 105.445312 C 507.292969 106.652344 512.78125 104.996094 518.113281 104.503906 C 526.8125 103.71875 536.113281 104.804688 542.824219 110.875 C 551.378906 118.605469 553.140625 129.792969 552.234375 140.757812 C 550.496094 161.910156 537.09375 183.410156 519.839844 195.570312 C 508.171875 203.800781 492.015625 205.523438 481.328125 214.753906 C 470.636719 223.984375 467.164062 238.113281 456.484375 247.210938 C 438.144531 262.820312 412.84375 264.101562 390.066406 262.351562 C 375.734375 261.253906 359.832031 254.304688 347.921875 265.367188 " fill-opacity="1" fill-rule="evenodd"/><path fill="#80ad77" d="M 338.246094 261.832031 C 346.101562 253.941406 345.304688 252.445312 351.84375 243.734375 C 355.546875 238.8125 361.265625 235.917969 365.175781 231.152344 C 374.332031 220.003906 379.160156 205.402344 385.84375 192.773438 C 387.464844 189.488281 389.34375 186.359375 391.476562 183.386719 C 392.203125 182.433594 392.683594 180.429688 393.890625 180.660156 C 394.890625 180.851562 393.191406 182.550781 392.867188 183.519531 C 392.320312 185.179688 391.867188 186.863281 391.503906 188.574219 C 390.476562 193.578125 387.4375 204.875 390.175781 209.578125 C 390.464844 210.074219 391.019531 208.832031 391.382812 208.371094 C 392.324219 207.480469 393.214844 206.515625 394.121094 205.574219 C 398.042969 201.1875 401.539062 196.484375 404.617188 191.46875 C 411.410156 181.164062 421.4375 172.707031 426.707031 161.476562 C 430.824219 152.738281 433.210938 143.160156 437.253906 134.316406 C 438.386719 131.902344 439.386719 128.125 441.101562 126.0625 C 441.667969 125.386719 440.59375 127.765625 440.488281 128.632812 C 440.25 130.386719 440.117188 132.148438 440.089844 133.917969 C 439.96875 138.9375 440.015625 143.570312 438.882812 148.527344 C 436.972656 156.53125 434.101562 164.171875 430.265625 171.453125 C 427.421875 176.894531 422.605469 183.132812 422.847656 189.621094 C 422.847656 190.140625 423.679688 189.042969 424.054688 188.742188 L 425.996094 187.269531 C 427.867188 185.859375 429.738281 184.433594 431.628906 183.046875 C 437.695312 178.792969 443.992188 174.90625 450.511719 171.390625 C 467.886719 161.570312 483.691406 149.398438 501.667969 140.769531 C 506.15625 138.625 510.730469 136.679688 515.265625 134.605469 C 516.691406 133.964844 519.332031 132.398438 520.828125 132.496094 C 521.238281 132.496094 520.25 133.074219 519.949219 133.351562 C 519.246094 134.039062 518.585938 134.75 517.945312 135.488281 C 516.21875 137.488281 514.625 139.625 513.117188 141.785156 C 507.726562 149.335938 501.09375 155.570312 493.222656 160.484375 C 478.660156 170.015625 463.277344 178.304688 448.582031 187.742188 C 442.332031 191.769531 434.851562 195.355469 429.484375 200.578125 C 428.953125 201.085938 430.894531 200.300781 431.605469 200.167969 C 432.8125 199.925781 434.117188 199.757812 435.371094 199.5625 C 439.761719 198.890625 443.914062 197.246094 448.246094 196.269531 C 455.808594 194.582031 463.386719 192.878906 471 191.382812 C 475.378906 190.515625 480.542969 189.707031 484.269531 187.015625 C 484.523438 186.847656 483.714844 187.246094 483.4375 187.378906 C 482.605469 187.753906 481.773438 188.164062 480.964844 188.585938 C 479.011719 189.609375 477.105469 190.734375 475.175781 191.820312 C 468.960938 195.316406 462.902344 199.457031 456.328125 202.207031 C 450.425781 204.695312 444.296875 206.335938 437.941406 207.128906 C 432.425781 207.804688 426.117188 207.539062 421.121094 210.242188 C 415.453125 213.320312 412.085938 219.894531 407.960938 224.625 C 406.199219 226.636719 398.535156 232.683594 398.597656 235.480469 C 398.597656 235.964844 399.539062 235.480469 400.007812 235.480469 C 401.105469 235.480469 402.214844 235.480469 403.3125 235.480469 C 406.464844 235.566406 409.636719 235.90625 412.785156 236.144531 C 423.265625 236.933594 433.722656 236.699219 444.15625 235.445312 C 447.882812 235.023438 444.46875 235.3125 441.078125 236.289062 C 430.703125 239.246094 422.90625 242.15625 412.121094 241.71875 C 397.390625 241.128906 375.480469 242.445312 363.015625 251.105469 C 360.144531 253.027344 357.546875 255.269531 355.222656 257.828125 C 352.898438 260.386719 350.921875 263.191406 349.285156 266.238281 C 344.640625 275.1875 335.167969 264.933594 338.246094 261.832031 Z M 338.246094 261.832031 " fill-opacity="1" fill-rule="evenodd"/><path fill="#fff7f0" d="M 328.824219 274.164062 L 335.929688 291.367188 C 335.929688 291.367188 361.027344 250.347656 426.417969 252.757812 C 468.863281 248.285156 501.320312 295.953125 501.320312 295.953125 L 508.789062 279.714844 C 508.789062 279.714844 476.851562 239.164062 425.925781 239.164062 C 374.996094 239.164062 328.824219 274.164062 328.824219 274.164062 Z M 328.824219 274.164062 " fill-opacity="1" fill-rule="evenodd"/><path fill="#fff7f0" d="M 275.699219 248.34375 C 228.03125 266.261719 183.871094 239.488281 183.871094 239.488281 L 185.152344 221.65625 C 185.152344 221.65625 232.300781 254.871094 270.453125 235.761719 C 332.527344 214.984375 341.636719 167.808594 341.636719 167.808594 L 354.339844 181.441406 C 354.339844 181.441406 323.382812 230.425781 275.699219 248.34375 Z M 275.699219 248.34375 " fill-opacity="1" fill-rule="evenodd"/><path fill="#ffc06f" d="M 375.867188 471.996094 L 367.421875 493.363281 C 295.8125 509.046875 219.910156 490.238281 219.910156 490.238281 L 213.578125 472.597656 C 102.855469 448.070312 19.328125 373.785156 6.359375 283.175781 C 4.464844 282.042969 2.667969 280.90625 1 279.75 L 5.683594 252 C 5.683594 252 283.785156 345.660156 584.605469 249.730469 L 590.289062 279.519531 C 586.933594 282.257812 583.425781 284.78125 579.765625 287.097656 C 565.109375 375.171875 483.644531 447.226562 375.867188 471.996094 Z M 375.867188 471.996094 " fill-opacity="1" fill-rule="evenodd"/><path fill="#fff7f0" d="M 183.800781 334.464844 C 178.515625 333.800781 173.242188 333.003906 167.972656 332.28125 C 162.699219 331.558594 157.460938 330.617188 152.203125 329.769531 L 144.324219 328.433594 L 136.46875 326.925781 C 115.511719 322.894531 94.589844 317.910156 73.417969 312.023438 C 71.824219 311.589844 67.878906 310.539062 63.886719 309.34375 C 59.890625 308.152344 55.789062 306.933594 53.894531 306.316406 C 42.121094 302.433594 30.574219 298.078125 18.90625 293.261719 C 10.460938 289.726562 6.949219 287.542969 5.71875 286.433594 C 4.488281 285.324219 5.5 285.226562 6.019531 285.324219 C 7.660156 285.636719 9.445312 285.976562 11.125 286.242188 C 16.246094 287.335938 21.257812 288.804688 26.15625 290.65625 C 37.015625 295.109375 48.128906 299.101562 59.382812 302.722656 C 65.03125 304.484375 70.675781 306.339844 76.398438 307.859375 C 79.242188 308.65625 82.078125 309.527344 84.949219 310.273438 L 93.566406 312.53125 C 116.488281 318.417969 139.785156 323.015625 162.84375 326.5625 C 168.007812 327.347656 173.882812 328.128906 180.191406 329.035156 C 183.355469 329.519531 186.636719 329.832031 189.988281 330.242188 L 200.28125 331.449219 C 203.757812 331.894531 207.316406 332.125 210.875 332.460938 L 221.589844 333.390625 C 225.207031 333.753906 228.71875 333.875 232.242188 334.101562 L 242.617188 334.71875 C 269.800781 336.058594 292.085938 335.585938 293.414062 335.683594 C 306.601562 335.164062 319.109375 335.105469 331.527344 334.378906 C 343.941406 333.996094 356.234375 332.910156 369.035156 331.808594 C 375.636719 331.136719 382.308594 330.253906 388.933594 329.457031 C 392.261719 329.035156 395.617188 328.660156 398.957031 328.191406 L 408.996094 326.609375 L 419.070312 325.003906 C 422.425781 324.425781 425.816406 323.992188 429.15625 323.28125 L 449.316406 319.300781 C 455.183594 318.214844 460.960938 316.753906 466.753906 315.390625 L 484.113281 311.289062 L 501.390625 306.679688 L 510.054688 304.386719 C 512.949219 303.625 515.859375 302.890625 518.730469 301.972656 C 527.65625 299.34375 536.597656 296.808594 545.367188 294.492188 C 554.09375 291.972656 562.621094 289.511719 570.886719 287.445312 C 573.1875 286.816406 575.515625 286.316406 577.871094 285.949219 C 581.925781 285.492188 577.28125 287.75 573.902344 289.460938 C 568.222656 292.199219 562.398438 294.589844 556.433594 296.628906 C 553.101562 297.835938 549.722656 299.042969 546.335938 300.078125 C 542.945312 301.117188 539.648438 302.09375 536.585938 302.960938 L 518.34375 308.101562 C 512.203125 309.742188 505.988281 311.238281 499.761719 312.832031 L 490.414062 315.246094 C 488.84375 315.644531 487.289062 316.066406 485.71875 316.453125 L 480.976562 317.488281 L 461.988281 321.699219 C 455.894531 323.195312 449.667969 324.269531 443.480469 325.523438 C 437.289062 326.78125 431.089844 328.035156 424.863281 329.144531 L 406.234375 332.171875 C 403.144531 332.644531 400.082031 333.222656 396.992188 333.585938 L 387.785156 334.789062 L 378.074219 335.996094 C 374.839844 336.382812 371.644531 336.855469 368.566406 337.070312 L 358.601562 337.890625 L 350.855469 338.421875 C 347.996094 338.640625 344.894531 338.976562 341.550781 339.097656 L 319.316406 340.304688 L 293.871094 340.894531 C 285.074219 340.800781 276.074219 340.835938 267.207031 340.640625 L 254.042969 340.171875 L 247.613281 339.953125 C 245.488281 339.882812 243.402344 339.699219 241.328125 339.59375 C 224.773438 338.6875 210.066406 337.324219 199.785156 336.335938 Z M 268.96875 481.660156 C 274.722656 481.914062 285.425781 482.625 295.246094 482.867188 C 305.066406 483.109375 314.007812 482.949219 316.167969 482.976562 C 317.894531 482.976562 319.785156 482.78125 321.574219 482.625 C 325 482.347656 328.496094 481.996094 332.019531 481.636719 C 335.542969 481.273438 339.03125 480.585938 342.503906 480.089844 C 344.304688 479.863281 346.125 479.691406 347.898438 479.402344 L 353.242188 478.535156 L 358.550781 477.714844 C 360.3125 477.449219 362.0625 477.21875 363.789062 476.859375 C 365.699219 476.449219 367.582031 475.933594 369.433594 475.3125 C 371.214844 474.796875 372.824219 473.953125 374.261719 472.78125 C 375.152344 471.984375 376.359375 470.992188 375.082031 470.4375 C 374.398438 470.222656 373.699219 470.128906 372.980469 470.148438 C 370.507812 470.117188 368.046875 470.273438 365.597656 470.621094 C 363.113281 470.957031 360.628906 471.523438 358.082031 471.921875 C 354.824219 472.515625 351.601562 473.191406 348.429688 473.914062 C 346.824219 474.300781 345.207031 474.578125 343.601562 474.84375 L 338.777344 475.664062 L 333.144531 476.53125 C 331.261719 476.808594 329.378906 476.929688 327.507812 477.109375 C 323.757812 477.425781 320.027344 477.796875 316.347656 477.90625 C 312.667969 478.015625 309.363281 477.90625 305.910156 477.847656 C 302.460938 477.785156 298.988281 477.558594 295.320312 477.714844 L 290.976562 477.714844 L 281.214844 477.425781 C 273.671875 477.148438 264.757812 476.582031 258.964844 476.109375 C 246.042969 475.121094 232.640625 474.347656 219.742188 472.273438 C 218.078125 472.226562 216.527344 472.628906 215.097656 473.480469 L 213.445312 474.601562 C 213.082031 474.820312 212.082031 476.507812 217.234375 477.125 C 220.757812 477.519531 224.144531 478.078125 227.585938 478.523438 C 228.695312 478.667969 232.410156 478.765625 233.28125 478.835938 C 245.394531 479.789062 257.011719 481.164062 268.96875 481.695312 Z M 268.96875 481.660156 " fill-opacity="1" fill-rule="nonzero"/><path fill="#fff7f0" d="M 516.558594 366.679688 C 522.359375 365.039062 527.945312 371.347656 533.847656 378.019531 L 535.402344 379.78125 C 536.664062 378.261719 537.957031 376.6875 539.277344 375.0625 L 538.371094 374.027344 C 531.832031 366.617188 524.386719 358.195312 514.941406 360.863281 C 505.492188 363.53125 503.371094 374.449219 501.535156 384.171875 C 499.8125 393.34375 498.183594 401.992188 491.703125 403.550781 C 485.222656 405.105469 479.878906 397.988281 474.28125 390.53125 C 468.332031 382.628906 461.601562 373.640625 452.019531 375.582031 C 442.441406 377.523438 439.484375 388.226562 436.925781 397.78125 C 434.515625 406.785156 432.246094 415.277344 425.707031 416.328125 C 419.167969 417.375 414.390625 409.882812 409.394531 402.019531 C 404.085938 393.679688 398.042969 384.234375 388.390625 385.390625 C 378.738281 386.550781 374.960938 397.035156 371.679688 406.375 C 368.601562 415.15625 365.648438 423.457031 359.121094 424 C 352.59375 424.542969 348.355469 416.699219 343.976562 408.484375 C 339.429688 399.941406 334.324219 390.289062 324.9375 390.289062 L 324.3125 390.289062 C 314.539062 390.605469 310.039062 400.871094 306.070312 409.933594 C 302.339844 418.449219 298.828125 426.511719 292.21875 426.546875 C 285.605469 426.582031 282.058594 418.449219 278.320312 409.933594 C 274.347656 400.871094 269.875 390.628906 260.113281 390.289062 C 250.351562 389.953125 245.078125 399.75 240.433594 408.472656 C 236.054688 416.6875 231.890625 424.445312 225.328125 423.988281 C 218.765625 423.53125 215.808594 415.144531 212.734375 406.359375 C 209.449219 397.023438 205.746094 386.441406 196.058594 385.378906 C 186.371094 384.316406 180.375 393.65625 175.015625 402.003906 C 170.023438 409.859375 165.28125 417.292969 158.742188 416.316406 C 152.203125 415.335938 149.898438 406.769531 147.484375 397.769531 C 144.925781 388.203125 142.03125 377.367188 132.4375 375.570312 C 122.847656 373.773438 116.089844 382.605469 110.144531 390.519531 C 104.53125 397.964844 99.285156 404.996094 92.757812 403.539062 C 86.230469 402.078125 84.613281 393.320312 82.886719 384.160156 C 81.066406 374.425781 78.976562 363.398438 69.519531 360.851562 C 60.058594 358.304688 52.84375 366.460938 46.292969 373.832031 L 46.136719 374.003906 C 47.382812 375.546875 48.679688 377.113281 50.023438 378.707031 L 50.144531 378.585938 C 50.3125 378.394531 50.46875 378.199219 50.636719 378.019531 C 56.539062 371.335938 62.113281 365.039062 67.964844 366.679688 C 73.816406 368.320312 75.347656 376.523438 77 385.285156 C 78.90625 395.441406 81.078125 407 91.417969 409.414062 C 101.757812 411.828125 108.792969 402.414062 115.003906 394.152344 C 120.351562 387.042969 125.40625 380.324219 131.316406 381.507812 C 137.230469 382.6875 139.402344 390.738281 141.691406 399.339844 C 144.371094 409.316406 147.386719 420.609375 157.859375 422.261719 C 168.332031 423.914062 174.605469 413.9375 180.144531 405.226562 C 184.972656 397.722656 189.421875 390.640625 195.40625 391.363281 C 201.390625 392.089844 204.128906 399.941406 207.074219 408.339844 C 210.488281 418.078125 214.3125 429.117188 224.90625 429.996094 C 235.5 430.878906 240.941406 420.417969 245.792969 411.296875 C 249.976562 403.453125 253.921875 396.035156 259.917969 396.296875 C 265.914062 396.5625 269.257812 404.1875 272.828125 412.332031 C 276.96875 421.792969 281.660156 432.507812 292.253906 432.566406 C 302.847656 432.625 307.492188 421.792969 311.628906 412.332031 C 315.25 404.1875 318.582031 396.492188 324.578125 396.296875 C 330.574219 396.105469 334.480469 403.453125 338.667969 411.308594 C 343.496094 420.417969 349.019531 430.746094 359.589844 429.996094 C 370.160156 429.25 373.972656 418.113281 377.398438 408.398438 C 380.34375 399.953125 383.128906 392.0625 389.101562 391.414062 C 395.074219 390.761719 399.550781 397.78125 404.328125 405.289062 C 409.878906 414 416.152344 423.867188 426.648438 422.3125 C 437.144531 420.753906 440.113281 409.339844 442.777344 399.386719 C 445.082031 390.785156 447.253906 382.652344 453.191406 381.542969 C 459.128906 380.433594 464.132812 387.082031 469.480469 394.199219 C 475.691406 402.453125 482.75 411.828125 493.101562 409.449219 C 503.453125 407.074219 505.578125 395.476562 507.484375 385.320312 C 509.125 376.535156 510.683594 368.257812 516.558594 366.679688 Z M 516.558594 366.679688 " fill-opacity="1" fill-rule="nonzero"/></svg>