<svg xmlns="http://www.w3.org/2000/svg" xmlns:xlink="http://www.w3.org/1999/xlink" width="800" zoomAndPan="magnify" viewBox="0 0 600 599.999999" height="800" preserveAspectRatio="xMidYMid meet" version="1.0"><path fill="#f6a97c" d="M 280.988281 287.226562 C 268.320312 279.746094 251.914062 284.085938 244.433594 296.753906 L 92.785156 555.417969 C 85.304688 568.085938 89.648438 584.496094 102.316406 591.976562 C 114.984375 599.457031 131.390625 595.113281 138.871094 582.441406 L 290.640625 323.78125 C 298.003906 311.113281 293.660156 294.585938 280.988281 287.226562 Z M 280.988281 287.226562 " fill-opacity="1" fill-rule="nonzero"/><path fill="#ffffff" d="M 256.621094 493.769531 L 112.570312 409.316406 C 87.957031 394.839844 79.632812 362.871094 94.109375 338.257812 L 226.578125 112.410156 C 264.21875 48.226562 347.585938 26.511719 411.890625 64.152344 C 476.074219 101.792969 497.789062 185.160156 460.148438 249.460938 L 327.679688 475.3125 C 313.203125 499.921875 281.230469 508.246094 256.621094 493.769531 Z M 256.621094 493.769531 " fill-opacity="1" fill-rule="nonzero"/><path fill="#fff7f0" d="M 149.246094 388.929688 L 132.960938 379.636719 C 127.167969 376.382812 125.238281 368.902344 128.496094 363.230469 L 291.609375 77.785156 C 294.863281 71.992188 302.34375 70.0625 308.015625 73.320312 L 324.300781 82.609375 C 330.09375 85.867188 332.023438 93.347656 328.765625 99.019531 L 165.773438 384.464844 C 162.394531 390.253906 155.035156 392.1875 149.246094 388.929688 Z M 149.246094 388.929688 " fill-opacity="1" fill-rule="nonzero"/><path fill="#fff7f0" d="M 212.828125 423.554688 L 196.539062 414.261719 C 190.75 411.003906 188.816406 403.527344 192.074219 397.855469 L 355.1875 112.527344 C 358.445312 106.738281 365.925781 104.808594 371.59375 108.066406 L 387.882812 117.355469 C 393.671875 120.613281 395.605469 128.09375 392.347656 133.761719 L 229.234375 419.089844 C 225.976562 424.878906 218.496094 426.933594 212.828125 423.554688 Z M 212.828125 423.554688 " fill-opacity="1" fill-rule="nonzero"/><path fill="#fff7f0" d="M 277.855469 458.179688 L 261.566406 448.886719 C 255.777344 445.632812 253.847656 438.152344 257.101562 432.480469 L 420.335938 147.15625 C 423.59375 141.367188 431.074219 139.433594 436.742188 142.691406 L 453.03125 151.980469 C 458.820312 155.238281 460.753906 162.71875 457.496094 168.390625 L 294.382812 453.714844 C 291.003906 459.503906 283.644531 461.554688 277.855469 458.179688 Z M 277.855469 458.179688 " fill-opacity="1" fill-rule="nonzero"/><path fill="#ff6b6b" d="M 186.523438 150.65625 L 218.496094 96.121094 C 260.480469 24.578125 353.136719 0.449219 424.679688 42.316406 C 496.101562 84.179688 520.351562 176.953125 478.367188 248.5 L 463.769531 273.351562 C 451.824219 293.738281 428.417969 290 418.042969 278.902344 C 387.15625 246.328125 428.539062 235.949219 393.191406 213.871094 C 361.21875 193.964844 338.417969 286.984375 287.503906 261.285156 C 237.195312 235.832031 290.523438 186.96875 267.476562 172.734375 C 224.285156 146.3125 216.324219 245.601562 176.632812 225.9375 C 146.953125 211.339844 170.238281 178.402344 186.523438 150.65625 Z M 186.523438 150.65625 " fill-opacity="1" fill-rule="nonzero"/><path fill="#ffd966" d="M 295.347656 106.859375 L 273.871094 114.703125 C 271.21875 115.667969 268.203125 114.339844 267.234375 111.6875 L 267.117188 111.566406 C 266.152344 108.914062 267.476562 105.894531 270.128906 104.929688 L 291.605469 97.085938 C 294.261719 96.121094 297.277344 97.449219 298.242188 100.105469 L 298.363281 100.226562 C 299.328125 102.878906 298.003906 105.894531 295.347656 106.859375 Z M 295.347656 106.859375 " fill-opacity="1" fill-rule="nonzero"/><path fill="#ffd966" d="M 364.476562 90.695312 L 347.828125 75.128906 C 345.777344 73.199219 345.65625 69.941406 347.585938 67.890625 L 347.707031 67.769531 C 349.636719 65.71875 352.894531 65.597656 354.945312 67.53125 L 371.597656 83.09375 C 373.648438 85.023438 373.769531 88.28125 371.835938 90.332031 L 371.714844 90.453125 C 369.785156 92.503906 366.527344 92.625 364.476562 90.695312 Z M 364.476562 90.695312 " fill-opacity="1" fill-rule="nonzero"/><path fill="#ffd966" d="M 422.386719 161.027344 L 399.945312 156.6875 C 397.171875 156.203125 395.363281 153.429688 395.84375 150.65625 L 395.84375 150.535156 C 396.328125 147.757812 399.101562 145.949219 401.878906 146.433594 L 424.316406 150.773438 C 427.089844 151.257812 428.898438 154.03125 428.417969 156.808594 L 428.417969 156.925781 C 427.816406 159.824219 425.160156 161.632812 422.386719 161.027344 Z M 422.386719 161.027344 " fill-opacity="1" fill-rule="nonzero"/><path fill="#ffd966" d="M 451.339844 127.25 L 437.828125 108.789062 C 436.140625 106.5 436.625 103.242188 438.917969 101.550781 L 439.035156 101.433594 C 441.328125 99.742188 444.585938 100.222656 446.277344 102.515625 L 459.789062 120.976562 C 461.476562 123.269531 460.992188 126.527344 458.703125 128.214844 L 458.582031 128.335938 C 456.289062 130.144531 453.03125 129.539062 451.339844 127.25 Z M 451.339844 127.25 " fill-opacity="1" fill-rule="nonzero"/><path fill="#fff7f0" d="M 348.671875 166.097656 L 335.160156 147.636719 C 333.472656 145.34375 333.953125 142.085938 336.246094 140.398438 L 336.367188 140.277344 C 338.660156 138.589844 341.917969 139.070312 343.605469 141.363281 L 357.121094 159.824219 C 358.808594 162.117188 358.324219 165.371094 356.03125 167.0625 L 355.910156 167.183594 C 353.617188 168.871094 350.363281 168.390625 348.671875 166.097656 Z M 348.671875 166.097656 " fill-opacity="1" fill-rule="nonzero"/><path fill="#fff7f0" d="M 429.023438 72.234375 L 406.21875 70.425781 C 403.445312 70.183594 401.273438 67.773438 401.515625 64.875 L 401.515625 64.753906 C 401.753906 61.980469 404.167969 59.808594 407.0625 60.050781 L 429.867188 61.859375 C 432.640625 62.101562 434.8125 64.511719 434.570312 67.410156 L 434.570312 67.53125 C 434.332031 70.304688 431.796875 72.476562 429.023438 72.234375 Z M 429.023438 72.234375 " fill-opacity="1" fill-rule="nonzero"/><path fill="#fff7f0" d="M 476.316406 196.015625 L 453.511719 194.207031 C 450.738281 193.964844 448.566406 191.554688 448.808594 188.65625 L 448.808594 188.535156 C 449.046875 185.761719 451.460938 183.589844 454.355469 183.832031 L 477.160156 185.640625 C 479.933594 185.882812 482.105469 188.296875 481.863281 191.191406 L 481.863281 191.3125 C 481.621094 194.207031 479.089844 196.257812 476.316406 196.015625 Z M 476.316406 196.015625 " fill-opacity="1" fill-rule="nonzero"/><path fill="#fff7f0" d="M 322.25 56.066406 L 299.449219 56.1875 C 296.675781 56.1875 294.261719 53.898438 294.261719 51.121094 L 294.261719 51 C 294.261719 48.226562 296.554688 45.8125 299.328125 45.8125 L 322.128906 45.691406 C 324.90625 45.691406 327.316406 47.984375 327.316406 50.757812 L 327.316406 50.878906 C 327.316406 53.777344 325.023438 56.066406 322.25 56.066406 Z M 322.25 56.066406 " fill-opacity="1" fill-rule="nonzero"/></svg>